<svg id="user-marker" viewBox="0 0 512 512" width="48" height="48" xmlns="http://www.w3.org/2000/svg">
  <path fill="transparent" d=" M 0.00 0.00 L 512.00 0.00 L 512.00 512.00 L 0.00 512.00 L 0.00 0.00 Z" />
  <path fill="#555" d=" M 250.15 17.27 C 283.73 15.48 317.79 23.43 347.01 40.09 C 376.34 56.64 400.79 81.71 416.60 111.44 C 430.15 136.69 437.36 165.28 437.53 193.93 C 437.86 228.98 430.36 263.86 417.20 296.28 C 400.14 338.85 374.94 377.67 346.64 413.58 C 322.97 443.03 297.09 470.73 269.04 496.06 C 266.30 498.41 263.74 500.98 260.83 503.13 C 259.53 504.14 257.73 503.33 256.77 502.26 C 228.52 477.56 202.48 450.37 178.58 421.45 C 153.56 390.87 130.95 358.10 113.38 322.63 C 96.75 289.02 84.63 252.66 82.05 215.06 C 80.05 191.90 81.66 168.29 88.22 145.93 C 99.21 107.29 123.89 72.78 156.72 49.68 C 183.95 30.30 216.77 18.94 250.15 17.27 Z" />
  <path fill="#E4E6EF" d=" M 245.11 59.19 C 271.98 56.40 299.67 61.71 323.46 74.57 C 349.74 88.56 371.17 111.43 383.39 138.59 C 394.80 163.51 398.19 191.93 393.37 218.88 C 388.32 247.35 373.81 274.01 352.77 293.82 C 330.68 314.73 301.43 328.03 271.08 330.48 C 242.75 333.04 213.65 326.41 189.30 311.68 C 164.09 296.68 143.98 273.27 132.98 246.06 C 122.30 220.07 120.17 190.74 126.58 163.41 C 132.63 137.65 146.40 113.78 165.73 95.70 C 187.17 75.18 215.59 62.20 245.11 59.19 Z" />
  <g id="person-icon" transform="scale(10,10) translate(2,-3)">
    <path fill="#FFCC80" d="M29,16c0,2.762-2.238,5-5,5s-5-2.238-5-5s2.238-5,5-5S29,13.238,29,16"/>
    <path fill="#90CAF9" d="M33,28c0,0-2-5-9-5s-9,5-9,5v2h18V28z"/>
  </g>
</svg>