<?xml version="1.0" encoding="utf-8"?><!-- Generator: Adobe Illustrator 15.0.0, SVG Export Plug-In . SVG Version: 6.00 Build 0)  --><!DOCTYPE svg PUBLIC "-//W3C//DTD SVG 1.1//EN" "http://www.w3.org/Graphics/SVG/1.1/DTD/svg11.dtd"><svg xmlns="http://www.w3.org/2000/svg" xmlns:xlink="http://www.w3.org/1999/xlink" version="1.1" id="Слой_1" x="0px" y="0px" width="48" height="48" viewBox="0 0 48 48" enable-background="new 0 0 48 48" xml:space="preserve" style="fill: rgb(52, 73, 94);">
<path fill="#FFC107" d="M39,9.908C38.341,8.467,37,7,35.582,7H6c-3.038,0-4,0.963-4,4v22c0,0,0,2,2,2s35.999,0,38,0c2,0,2-2,2-2  s0,3.875,0-5.563S39,9.908,39,9.908z"/>
<g>
	<path fill="#795548" d="M15,20.5c0,0.828-0.671,1.5-1.5,1.5h-8C4.671,22,4,21.328,4,20.5v-9C4,10.672,4.671,10,5.5,10h8   c0.829,0,1.5,0.672,1.5,1.5V20.5z"/>
	<path fill="#795548" d="M28,20.5c0,0.828-0.672,1.5-1.5,1.5h-8c-0.829,0-1.5-0.672-1.5-1.5v-9c0-0.828,0.671-1.5,1.5-1.5h8   c0.828,0,1.5,0.672,1.5,1.5V20.5z"/>
	<path fill="#795548" d="M31.5,10c-0.83,0-1.5,0.67-1.5,1.5v9c0,0.83,0.67,1.5,1.5,1.5h8c0.83,0,1.5-0.67,1.5-1.5v-0.728   c-1.233-4.786-3.226-8.108-3.703-8.815c-0.582-0.865-1.576-0.952-2.063-0.957H31.5z"/>
</g>
<g>
	<path fill="#455A64" d="M39,35c0,2.761-2.238,5-5,5s-5-2.239-5-5s2.238-5,5-5S39,32.239,39,35"/>
	<path fill="#455A64" d="M16,35c0,2.761-2.239,5-5,5s-5-2.239-5-5s2.239-5,5-5S16,32.239,16,35"/>
</g>
<g>
	<path fill="#B0BEC5" d="M36,35c0,1.105-0.895,2-2,2s-2-0.895-2-2s0.895-2,2-2S36,33.895,36,35"/>
	<path fill="#B0BEC5" d="M13,35c0,1.105-0.895,2-2,2s-2-0.895-2-2s0.895-2,2-2S13,33.895,13,35"/>
</g>
<path fill="#FF3D00" d="M2.5,28H2v4h0.5C3.329,32,4,31.328,4,30.5v-1C4,28.672,3.329,28,2.5,28z"/>
<path fill="#F57C00" d="M45,28.5c0-0.828-0.672-1.5-1.5-1.5H43c-0.828,0-1.5,0.672-1.5,1.5v2c0,0.828,0.672,1.5,1.5,1.5h0.5  c0.828,0,1.5-0.672,1.5-1.5V28.5z"/>
</svg>