<?xml version="1.0" encoding="utf-8"?><!-- Generator: Adobe Illustrator 18.1.1, SVG Export Plug-In . SVG Version: 6.00 Build 0)  --><svg xmlns="http://www.w3.org/2000/svg" xmlns:xlink="http://www.w3.org/1999/xlink" version="1.0" id="Layer_1" x="0px" y="0px" viewBox="0 0 48 48" enable-background="new 0 0 48 48" xml:space="preserve" width="48" height="48" style="fill: rgb(52, 73, 94);">
<path fill="#1565C0" d="M25,22h13l6,6V11c0-2.2-1.8-4-4-4H25c-2.2,0-4,1.8-4,4v7C21,20.2,22.8,22,25,22z"/>
<path fill="#2196F3" d="M23,19H10l-6,6V8c0-2.2,1.8-4,4-4h15c2.2,0,4,1.8,4,4v7C27,17.2,25.2,19,23,19z"/>
<g>
	<circle fill="#FFA726" cx="12" cy="31" r="5"/>
	<circle fill="#FFA726" cx="36" cy="31" r="5"/>
</g>
<g>
	<path fill="#607D8B" d="M20,42c0,0-2.2-4-8-4s-8,4-8,4v2h16V42z"/>
	<path fill="#607D8B" d="M44,42c0,0-2.2-4-8-4s-8,4-8,4v2h16V42z"/>
</g>
</svg>