<?xml version="1.0" encoding="utf-8"?><!-- Generator: Adobe Illustrator 15.0.0, SVG Export Plug-In . SVG Version: 6.00 Build 0)  --><!DOCTYPE svg PUBLIC "-//W3C//DTD SVG 1.1//EN" "http://www.w3.org/Graphics/SVG/1.1/DTD/svg11.dtd"><svg xmlns="http://www.w3.org/2000/svg" xmlns:xlink="http://www.w3.org/1999/xlink" version="1.1" id="Слой_1" x="0px" y="0px" width="48" height="48" viewBox="0 0 48 48" enable-background="new 0 0 48 48" xml:space="preserve" style="fill: rgb(52, 73, 94);">
<path fill="#795548" d="M23.776,26.973l0.518,0.855l1.711-1.035l-0.518-0.855c-0.001-0.002-0.139-0.255-0.162-0.548  c-0.021-0.246,0.024-0.537,0.501-0.825c0.687-0.414,1.13-0.042,1.367,0.329L38.678,45H41L28.91,23.867  c-0.625-1.031-2.236-2.154-4.12-1.014c-1.031,0.623-1.549,1.581-1.459,2.697C23.392,26.305,23.712,26.867,23.776,26.973z"/>
<path fill="#FFB74D" d="M16,11c-2.206,0-4-1.794-4-4s1.794-4,4-4s4,1.794,4,4S18.206,11,16,11"/>
<g>
	<circle fill="#2196F3" cx="9" cy="42.999" r="2"/>
	<circle fill="#2196F3" cx="24" cy="42.999" r="2"/>
	<polygon fill="#2196F3" points="7.233,42.081 10.814,43.829 16,35.999 17.313,25.625 12,26 11.944,34.999  "/>
	<path fill="#2196F3" d="M28.061,22.939l-9-9C18.047,13,16.987,13,16,13h-1c-0.965,0-2.359,0-3.171,1.063l-4.771,5.413L6,26.881   c-0.117,0.82,0.453,1.58,1.273,1.697c0.072,0.01,0.143,0.015,0.214,0.015c0.734,0,1.376-0.54,1.483-1.288l0.942-6.595L12,18.651   c0,2.842,0,6.446,0,7.349c0,1.542,2.394,4.277,3,5s7.397,13.187,7.397,13.187l3.372-2.102L19,28v-9.879l6.939,6.939   C26.232,25.354,26.616,25.5,27,25.5s0.768-0.146,1.061-0.439C28.646,24.475,28.646,23.525,28.061,22.939z"/>
</g>
<path fill="#3F51B5" d="M15,31c-0.606-0.723-3-3.458-3-5l-0.027,4.418c0.437,0.592,0.908,1.173,1.379,1.729l0.083,0.1  c0.26,0.38,1.158,1.949,2.348,4.079L16,35.999l0.348-2.747C15.659,32.043,15.147,31.176,15,31z"/>
</svg>