<svg xmlns="http://www.w3.org/2000/svg" id="summer-camp-spec" viewBox="0 0 48 48" width="48" height="48" fill="rgb(52, 73, 94)">
  <g transform="">
    <g fill="none" stroke="none" stroke-width="1" stroke-linecap="butt" stroke-linejoin="miter" stroke-miterlimit="10" stroke-dasharray="" stroke-dashoffset="0" font-family="sans-serif" font-weight="normal" font-size="12" text-anchor="start" mix-blend-mode="normal">
      <g>
        <g>
          <g>
            <path d="M0,48l0,-48l48,0l0,48z" fill="none"/>
            <g id="Слой_1">
              <g fill="#ff9800">
                <path d="M38,38c0,0 -9,-3 -14,-3c-5,0 -14,3 -14,3c0,0 3,-10 3,-14c0,-4 -3,-14 -3,-14c0,0 9,3 14,3c5,0 14,-3 14,-3c0,0 -3,10 -3,14c0,4 3,14 3,14z"/>
                <path d="M43,24c0,0 -8.222,4.778 -11.222,7.778c-3,3 -7.778,11.222 -7.778,11.222c0,0 -4.278,-7.722 -7.778,-11.222c-3.5,-3.5 -11.222,-7.778 -11.222,-7.778c0,0 8.221,-4.777 11.222,-7.777c3.001,-3 7.778,-11.223 7.778,-11.223c0,0 4.779,8.223 7.778,11.223c2.999,3 11.222,7.777 11.222,7.777z"/>
              </g>
              <path d="M14,24c0,5.524 4.477,10 10,10c5.523,0 10,-4.476 10,-10c0,-5.524 -4.477,-10 -10,-10c-5.523,0 -10,4.476 -10,10" fill="#ffeb3b"/>
            </g>
            <g>
              <g fill="#ffca28">
                <path d="M36.45143,26.58857l3.4,7l7.6,1l-5.5,5.4l1.5,7.6l-7,-3.6l-7,3.6l1.5,-7.6l-5.5,-5.4l7.6,-1z"/>
              </g>
              <path d="M25.61714,37.08857c0,-5.98361 4.85067,-10.83429 10.83429,-10.83429c5.98361,0 10.83429,4.85067 10.83429,10.83429c0,5.98361 -4.85067,10.83429 -10.83429,10.83429c-5.98361,0 -10.83429,-4.85067 -10.83429,-10.83429z" fill="#ff0000" opacity="0"/>
            </g>
          </g>
        </g>
      </g>
    </g>
  </g>
</svg>