<svg xmlns="http://www.w3.org/2000/svg" id="activity" width="24" height="24" viewBox="0 0 48 48" fill="rgb(52, 73, 94)">
	<path fill="#64B5F6" d="M16,14c0,1.104-0.896,2-2,2H8c-1.104,0-2-0.896-2-2V8c0-1.104,0.896-2,2-2h6c1.104,0,2,0.896,2,2V14z"/>
	<path fill="#64B5F6" d="M29,14c0,1.104-0.896,2-2,2h-6c-1.104,0-2-0.896-2-2V8c0-1.104,0.896-2,2-2h6c1.104,0,2,0.896,2,2V14z"/>
	<path fill="#64B5F6" d="M42,14c0,1.104-0.896,2-2,2h-6c-1.104,0-2-0.896-2-2V8c0-1.104,0.896-2,2-2h6c1.104,0,2,0.896,2,2V14z"/>
	<path fill="#64B5F6" d="M16,27c0,1.104-0.896,2-2,2H8c-1.104,0-2-0.896-2-2v-6c0-1.104,0.896-2,2-2h6c1.104,0,2,0.896,2,2V27z"/>
	<path fill="#64B5F6" d="M29,27c0,1.104-0.896,2-2,2h-6c-1.104,0-2-0.896-2-2v-6c0-1.104,0.896-2,2-2h6c1.104,0,2,0.896,2,2V27z"/>
	<path fill="#64B5F6" d="M42,27c0,1.104-0.896,2-2,2h-6c-1.104,0-2-0.896-2-2v-6c0-1.104,0.896-2,2-2h6c1.104,0,2,0.896,2,2V27z"/>
	<path fill="#64B5F6" d="M16,40c0,1.104-0.896,2-2,2H8c-1.104,0-2-0.896-2-2v-6c0-1.104,0.896-2,2-2h6c1.104,0,2,0.896,2,2V40z"/>
	<path fill="#64B5F6" d="M29,40c0,1.104-0.896,2-2,2h-6c-1.104,0-2-0.896-2-2v-6c0-1.104,0.896-2,2-2h6c1.104,0,2,0.896,2,2V40z"/>
	<path fill="#64B5F6" d="M42,40c0,1.104-0.896,2-2,2h-6c-1.104,0-2-0.896-2-2v-6c0-1.104,0.896-2,2-2h6c1.104,0,2,0.896,2,2V40z"/>
</svg>