<?xml version="1.0" encoding="utf-8"?><!-- Generator: Adobe Illustrator 18.1.1, SVG Export Plug-In . SVG Version: 6.00 Build 0)  --><svg xmlns="http://www.w3.org/2000/svg" xmlns:xlink="http://www.w3.org/1999/xlink" version="1.1" id="Layer_1" x="0px" y="0px" viewBox="0 0 48 48" enable-background="new 0 0 48 48" xml:space="preserve" width="48" height="48" style="fill: rgb(52, 73, 94);">
<rect x="27" y="28" fill="#90A4AE" width="2" height="16"/>
<circle fill="#FFB74D" cx="22.5" cy="8.5" r="3.5"/>
<path fill="#2196F3" d="M15,45.1L15,45.1c-1.1-0.5-1.5-1.8-1-2.9l6.5-14.2L19.1,19l-3.7,1.5c-0.8,0.3-1.8,0.1-2.3-0.6l-4.7-6  c-0.7-0.9-0.5-2.1,0.4-2.8l0,0c0.9-0.6,2.1-0.5,2.7,0.4l3.6,4.6l4.6-2l6.6-1.3l6.2-9c0.6-0.9,1.8-1.1,2.7-0.5l0,0  C36,3.8,36.3,5,35.7,5.9l-6.5,9.9l-0.4,7.8l2.8-0.6c1.6-0.4,3.2,0.6,3.6,2.2l2.4,9.1c0.3,1.2-0.4,2.4-1.6,2.8l0,0  c-1.2,0.4-2.5-0.4-2.8-1.6l-1.8-6.9l-6.8,2.9L18,44.1C17.5,45.2,16.1,45.6,15,45.1z"/>
<path fill="#607D8B" d="M40,3c0,11.2-11.9,21.4-19.8,22.8l0.4,2C29.2,26.3,42,15.2,42,3H40z"/>
</svg>