<?xml version="1.0" encoding="utf-8"?><!-- Generator: Adobe Illustrator 19.1.1, SVG Export Plug-In . SVG Version: 6.00 Build 0)  --><svg xmlns="http://www.w3.org/2000/svg" xmlns:xlink="http://www.w3.org/1999/xlink" version="1.1" id="Слой_1" x="0px" y="0px" viewBox="0 0 48 48" enable-background="new 0 0 48 48" xml:space="preserve" width="48" height="48" style="fill: rgb(52, 73, 94);">
<path fill="#1976D2" d="M36,5c-3,0-4-2-4-2s-1,2-4,2s-4-2-4-2s-1,2-4,2s-4-2-4-2s-1,2-4,2S8,3,8,3v40c0,0,1,2,4,2s4-2,4-2s1,2,4,2  s4-2,4-2s1,2,4,2s4-2,4-2s1,2,4,2s4-2,4-2V3C40,3,39,5,36,5z"/>
<path fill="#FFB74D" d="M24,9c2.2,0,4,1.8,4,4s-1.8,4-4,4s-4-1.8-4-4S21.8,9,24,9z M34,8.3c-0.1-0.8-0.8-1.4-1.7-1.3  c-0.8,0.1-1.4,0.9-1.3,1.7l0.9,6.7L27,19h-6.5c-0.3,0-0.6,0.1-0.8,0.3l-6,3.5C13.3,23,13,23.5,13,24v6.5c0,0.8,0.7,1.5,1.5,1.5  s1.5-0.7,1.5-1.5v-5.7l4-1.4V27h8v-4l6.3-5.5c0.5-0.3,0.8-0.9,0.7-1.5L34,8.3z"/>
<path fill="#0D47A1" d="M24.9,25.6l-1.8,0c0,0.1-0.8,1.5-3.1,1.5v2c2,0,3.3-0.7,4-1.4c0.8,0.7,2,1.4,4,1.4v-2  C25.7,27,24.9,25.6,24.9,25.6z M28.9,31.5l-1.8,0c0,0.1-0.8,1.5-3.1,1.5s-3.1-1.4-3.1-1.4l-1.8,0c0,0.1-0.8,1.5-3.1,1.5v2  c2,0,3.3-0.7,4-1.4c0.8,0.7,2,1.4,4,1.4s3.3-0.7,4-1.4c0.8,0.7,2,1.4,4,1.4v-2C29.7,32.9,28.9,31.5,28.9,31.5z M32.9,37.6l-1.8,0  c0,0.1-0.8,1.5-3.1,1.5s-3.1-1.4-3.1-1.4l-1.8,0c0,0.1-0.8,1.5-3.1,1.5s-3.1-1.4-3.1-1.4l-1.8,0c0,0.1-0.8,1.5-3.1,1.5v2  c2,0,3.3-0.7,4-1.4c0.8,0.7,2,1.4,4,1.4s3.3-0.7,4-1.4c0.8,0.7,2,1.4,4,1.4s3.3-0.7,4-1.4c0.8,0.7,2,1.4,4,1.4v-2  C33.7,39,32.9,37.6,32.9,37.6z"/>
</svg>