<?xml version="1.0" encoding="utf-8"?><!-- Generator: Adobe Illustrator 19.1.1, SVG Export Plug-In . SVG Version: 6.00 Build 0)  --><svg xmlns="http://www.w3.org/2000/svg" xmlns:xlink="http://www.w3.org/1999/xlink" version="1.1" id="Слой_1" x="0px" y="0px" viewBox="0 0 48 48" enable-background="new 0 0 48 48" xml:space="preserve" width="48" height="48" style="fill: rgb(52, 73, 94);">
<path fill="#FFB74D" d="M20,2c2.2,0,4,1.8,4,4s-1.8,4-4,4s-4-1.8-4-4S17.8,2,20,2z"/>
<path fill="#2196F3" d="M36.7,11.5c-0.5-0.6-1.5-0.7-2.1-0.2l-3.9,4.1l-4-4c-0.3-0.3-0.8-0.5-1.2-0.4l-8,1c-0.5,0.1-0.9,0.4-1.2,0.8  L13,19.7l-5-1.6c-0.8-0.3-1.6,0.2-1.9,0.9c-0.3,0.8,0.2,1.6,0.9,1.9l6.3,2c0.2,0.1,0.3,0.1,0.5,0.1c0.6,0,1.1-0.3,1.3-0.8l2.9-4.8  v8.8L15.1,34c-0.3,0.5-0.3,1.1-0.1,1.7l3,8c0.3,0.8,1.1,1.3,1.9,1.3c0.2,0,0.5,0,0.7-0.1c1-0.4,1.6-1.5,1.2-2.6l-2.7-7.1l2.3-3.4  l-0.3,3c-0.1,0.5,0.1,1,0.4,1.4l5.6,7c0.4,0.5,1,0.8,1.6,0.8c0.4,0,0.8-0.1,1.2-0.4c0.9-0.6,1.1-1.9,0.5-2.8l-5.2-6.4L26,28V15.7  l3.4,2.9c0.5,0.6,1.4,0.6,2,0.1l5-5C37.1,13.1,37.2,12.2,36.7,11.5z M21.9,27.1L21.9,27.1V27V27.1z"/>
<polygon fill="#1976D2" points="22,26.2 19.1,35.2 21.3,31.8 "/>
<path fill="#F50057" d="M38,19c-1,0-1,1-1,1v6c-0.2,0-0.3,0-0.5,0c-1.4,0-2.5,0.9-2.5,2s1.1,2,2.5,2s2.5-0.9,2.5-2  c0-0.1,0-0.1,0-0.2c0-1,0-4.7,0-5.1c0-0.5,0.3-0.6,0.6-0.6c2.4,0,3.3,2,3.3,2S44,19,38,19z"/>
</svg>