<?xml version="1.0" encoding="utf-8"?><!-- Generator: Adobe Illustrator 15.0.0, SVG Export Plug-In . SVG Version: 6.00 Build 0)  --><!DOCTYPE svg PUBLIC "-//W3C//DTD SVG 1.1//EN" "http://www.w3.org/Graphics/SVG/1.1/DTD/svg11.dtd"><svg xmlns="http://www.w3.org/2000/svg" xmlns:xlink="http://www.w3.org/1999/xlink" version="1.1" id="Слой_1" x="0px" y="0px" width="48" height="48" viewBox="0 0 48 48" enable-background="new 0 0 48 48" xml:space="preserve" style="fill: rgb(52, 73, 94);">
<g>
	<path fill="#FF9800" d="M38,38c0,0-9-3-14-3s-14,3-14,3s3-10,3-14s-3-14-3-14s9,3,14,3s14-3,14-3s-3,10-3,14S38,38,38,38z"/>
	<path fill="#FF9800" d="M43,24c0,0-8.222,4.778-11.222,7.778S24,43,24,43s-4.278-7.722-7.778-11.222S5,24,5,24   s8.221-4.777,11.222-7.777S24,5,24,5s4.779,8.223,7.778,11.223S43,24,43,24z"/>
</g>
<path fill="#FFEB3B" d="M14,24c0,5.524,4.477,10,10,10s10-4.476,10-10s-4.477-10-10-10S14,18.476,14,24"/>
</svg>