<svg xmlns="http://www.w3.org/2000/svg" id="teen-center" viewBox="0 0 48 48" width="24" height="24" fill="rgb(52, 73, 94)">
  <circle fill="#FFB74D" cx="33.5" cy="12.5" r="3.5"/>
  <path fill="#546E7A" d="M33.6,31.1l-4.3-3.2l0.7,6.8l-2.7,6.1c-0.5,1.1,0.3,2.3,1.5,2.3h0c0.6,0,1.2-0.4,1.5-0.9l3-6.4L33.6,31.1z"/>
  <path fill="#607D8B" d="M40.3,40.8L37.3,34l-3-5l1-9.1c0.2-1.3-0.4-2.4-1.7-2.7l-1-0.2c-0.9-0.2-2.3,0.4-2.4,2l-0.9,8  c-0.1,1,0.1,2,0.5,2.8l4.3,5.7l3.3,6.7c0.3,0.5,0.8,0.9,1.4,0.9h0C40,43,40.7,41.8,40.3,40.8z"/>
  <path fill="#455A64" d="M34.9,22.2l-0.6,6.9c-0.4-0.3-1.9-8.7-1.9-8.7L34.9,22.2z"/>
  <path fill="#607D8B" d="M40,27.7l-2.8-3.1l-2-6c-0.4-0.7-1.2-0.9-1.9-0.7l0,0c-0.9,0.4-1.3,1.5-0.7,2.3l2.5,6l3,3.2  c0.5,0.5,1.4,0.6,1.9,0v0C40.5,29,40.5,28.2,40,27.7z"/>
  <path fill="#4DB6AC" d="M25.9,18.6l-1.5,6.5c-0.3,1.3,0.6,2.6,1.9,2.8l3.2,0.4l1.3-10c0.1-0.6-0.3-1.1-0.9-1.1L27.9,17  C26.9,16.9,26.1,17.6,25.9,18.6z"/>
  <circle fill="#FFB74D" cx="16" cy="9" r="4"/>
  <path fill="#546E7A" d="M15.9,29.8l-4.8-3.6l0.7,7.5l-3,6.8C8.3,41.6,9.2,43,10.5,43h0c0.7,0,1.3-0.4,1.6-1l3.3-7.1L15.9,29.8z"/>
  <path fill="#607D8B" d="M23.3,40.5L20,33l-3.4-5.5l1.2-10.2c0.2-1.4-0.5-2.7-1.9-3l-1.1-0.2c-1-0.2-2.5,0.4-2.7,2.2l-1,8.9  c-0.1,1.2,0.1,2.2,0.6,3.1l4.8,6.3l3.7,7.4c0.3,0.6,0.9,1,1.6,1h0C22.9,43,23.8,41.7,23.3,40.5z"/>
  <path fill="#455A64" d="M17.3,19.9l-0.7,7.6c-0.5-0.3-2.1-9.7-2.1-9.7L17.3,19.9z"/>
  <path fill="#607D8B" d="M23,26l-3.1-3.5l-2.2-6.6c-0.4-0.7-1.3-1-2.1-0.7l0,0c-1,0.4-1.4,1.6-0.8,2.5l2.8,6.7l3.3,3.6  c0.6,0.6,1.5,0.6,2.1,0l0,0C23.5,27.4,23.5,26.6,23,26z"/>
  <path fill="#8BC34A" d="M7.6,15.8l-1.8,8.4c-0.2,1.1,0.5,2.3,1.7,2.4l3.6,0.4l1.5-11.5c0.1-0.6-0.4-1.1-0.9-1.1l-2-0.1  C8.7,14.1,7.8,14.8,7.6,15.8z"/>
</svg>