<svg xmlns="http://www.w3.org/2000/svg" id="tennis" viewBox="0 0 48 48" width="24" height="24" fill="rgb(52, 73, 94)">
  <path fill="#CFD8DC" d="M41.5,14.8l-1.4-1.4l-4.9,4.9l-1.4-1.4l5.7-5.7L38,9.8l-5.7,5.7l-1.4-1.4l4.9-4.9l-1.4-1.4l-4.9,4.9  l-2.6-2.6l-1.4,1.4l2.6,2.6l-1.4,1.4l-2.6-2.6l-1.4,1.4l2.6,2.6l-1.4,1.4l-2.6-2.6l-1.4,1.4l2.6,2.6L18.2,24l1.4,1.4l4.2-4.2  l1.4,1.4l-5,4.9l1.4,1.4l5-5l1.4,1.4l-4.2,4.2l1.4,1.4l4.2-4.2l3.1,3.1l1.4-1.4l-3.1-3.1l1.4-1.4l3.1,3.1l1.4-1.4l-3.1-3.1l1.4-1.4  l3.1,3.1l1.4-1.4l-3.1-3.1L41.5,14.8z M29.5,15.5l1.4,1.4l-1.4,1.4l-1.4-1.4L29.5,15.5z M25.3,19.7l1.4-1.4l1.4,1.4l-1.4,1.4  L25.3,19.7z M29.5,24l-1.4-1.4l1.4-1.4l1.4,1.4L29.5,24z M32.4,21.1l-1.4-1.4l1.4-1.4l1.4,1.4L32.4,21.1z"/>
  <path fill="#BF360C" d="M36.3,25.4c-4.8,4.1-8.5,4.4-12.1,4.6c-2.1,0.2-4.3,0.3-6.6,1.3c1-2.3,1.1-4.5,1.3-6.6  c0.3-3.6,0.5-7.3,4.6-12.1l-1.5-1.3c-4.5,5.3-4.8,9.5-5.1,13.2c-0.3,3.5-0.5,6.5-4,10l1.4,1.4c3.6-3.6,6.6-3.8,10-4  c3.7-0.3,8-0.6,13.2-5.1L36.3,25.4z"/>
  <path fill="#FF3D00" d="M33.5,9L33.5,9c1.3,0,3.3,0.3,4.7,1.8c1.4,1.4,2,3.6,1.7,6.1c-0.4,2.8-1.9,5.6-4.2,7.9  c-2.7,2.7-6.1,4.3-9.2,4.3c-1.4,0-3.3-0.3-4.7-1.8c-3.1-3.1-2-9.5,2.5-14C26.9,10.6,30.4,9,33.5,9 M33.5,6c-3.8,0-8,1.8-11.4,5.1  c-5.7,5.7-6.8,13.9-2.5,18.2c1.8,1.8,4.2,2.6,6.8,2.6c3.8,0,8-1.8,11.4-5.1c5.7-5.7,6.8-13.9,2.5-18.2C38.6,6.9,36.1,6,33.5,6  L33.5,6z"/>
  <polygon fill="#37474F" points="9,43 7,43 6,42 6,40 12,34 13.5,34 15,35.5 15,37 "/>
  <path fill="#546E7A" d="M11.1,34.9l-1.4,1.4l3,3l1.4-1.4L11.1,34.9z M9.8,42.1l1.4-1.4l-3-3l-1.4,1.4L9.8,42.1z"/>
  <circle fill="#8BC34A" cx="11" cy="12" r="7"/>
  <path fill="#DCEDC8" d="M17.9,10.9c-1.5,0-3-0.6-4.1-1.7c-1.1-1.1-1.7-2.6-1.7-4.1c-0.7-0.1-1.3-0.1-2,0c0,2,0.8,4,2.3,5.5  c1.5,1.5,3.5,2.3,5.5,2.3C18,12.3,18,11.6,17.9,10.9z M9.6,13.4c-1.5-1.5-3.5-2.3-5.5-2.3c-0.1,0.7-0.1,1.3,0,2c1.5,0,3,0.6,4.1,1.7  c1.1,1.1,1.7,2.6,1.7,4.1c0.7,0.1,1.3,0.1,2,0C11.9,16.9,11.1,14.9,9.6,13.4z"/>
</svg>