<svg xmlns="http://www.w3.org/2000/svg" id="ball-fields" height="24" width="24" viewBox="0 0 48 48" fill="rgb(52, 73, 94)">
  <circle fill="#BCAAA4" cx="21" cy="11" r="4"/>
  <path fill="#B71C1C" d="M27.4,27.4c1.8-1.3,3.5-2.8,5.1-4.4l10.1-10.1c0.8-0.8,0.1-2.6-1.4-4.2s-3.4-2.2-4.2-1.4L27,17.5  c-1.6,1.6-3.1,3.3-4.4,5.1l-3.9,5.3l3.5,3.5L27.4,27.4z"/>
  <path fill="#D32F2F" d="M20.4,29.6l7-9.7L38.1,9.1c0,0,0.4-0.4,1.8,1L20.4,29.6z"/>
  <path fill="#F57C00" d="M15.1,37c1-1,2.1-1.9,3.2-2.8l3.9-2.9l-3.5-3.5l-2.9,3.9c-0.8,1.1-1.8,2.2-2.8,3.2l-5.5,5.5l2.1,2.1L15.1,37  z"/>
  <path fill="#FF9800" d="M5.4,40.4c-0.6,0.6-0.6,1.5,0,2.1l2.1,2.1c0.6,0.6,1.5,0.6,2.1,0c0.6-0.6,0.6-1.5,0-2.1l-2.1-2.1  C6.9,39.8,6,39.8,5.4,40.4z"/>
	<path fill="#EF5350" d="M22.2,12.2c1-1,2-1.6,2.7-1.8c0-0.2-0.1-0.3-0.1-0.5c-0.9,0.3-2,1-3,1.9c-0.9,0.9-1.7,2-1.9,3   c0.2,0,0.3,0.1,0.5,0.1C20.6,14.2,21.3,13.2,22.2,12.2z"/>
	<path fill="#EF5350" d="M19.8,9.8c-1,1-2,1.6-2.7,1.8c0,0.2,0.1,0.3,0.1,0.5c0.9-0.3,2-1,3-1.9c0.9-0.9,1.7-2,1.9-3   c-0.2,0-0.3-0.1-0.5-0.1C21.4,7.8,20.7,8.8,19.8,9.8z"/>
</svg>