<svg xmlns="http://www.w3.org/2000/svg" id="basketball" height="24" width="24" viewBox="0 0 48 48" fill="rgb(52, 73, 94)">
  <circle fill="#FF5722" cx="24" cy="24" r="20"/>
  <path fill="#BF360C" d="M25,25h6.1c0.4,5,3.5,9.4,8.1,12c0.4-0.5,0.8-1,1.2-1.6c-4.1-2.2-7-6-7.4-10.4h10.9c0-0.3,0.1-0.7,0.1-1  s0-0.7-0.1-1H33.1c0.4-4.4,3.2-8.2,7.4-10.4c-0.4-0.6-0.8-1.1-1.2-1.6c-4.6,2.6-7.8,7-8.1,12H25V4.1C24.7,4,24.3,4,24,4  s-0.7,0-1,0.1V23h-6.1c-0.4-5-3.5-9.4-8.1-12c-0.4,0.5-0.8,1-1.2,1.6c4.1,2.2,7,6,7.4,10.4H4.1C4,23.3,4,23.7,4,24s0,0.7,0.1,1h10.9  c-0.4,4.4-3.2,8.2-7.4,10.4C8,35.9,8.4,36.5,8.8,37c4.6-2.6,7.8-7,8.1-12H23v18.9c0.3,0,0.7,0.1,1,0.1s0.7,0,1-0.1V25z"/>
</svg>