<svg xmlns="http://www.w3.org/2000/svg" viewBox="0 0 666.66669 666.66669" height="24" width="24" id="boat-rental">
  <g transform="matrix(1.3333333,0,0,-1.3333333,0,666.66667)" id="g10">
    <g transform="scale(0.1)" id="g12">
      <path
       id="path18"
       style="fill:#eecf26;fill-opacity:1;fill-rule:nonzero;stroke:none"
       d="m 2499.93,857.141 c -100.53,0.019 -190.68,63.73 -224.34,158.509 -160.21,451.13 -351.18,1084.14 -351.18,1537.91 0,453.81 190.99,1086.86 351.21,1538 33.64,94.77 123.82,158.44 224.39,158.44 100.59,-0.03 190.75,-63.73 224.41,-158.52 160.21,-451.13 351.18,-1084.15 351.18,-1537.92 0,-453.81 -190.99,-1086.86 -351.21,-1538 -33.65,-94.759 -123.81,-158.419 -224.36,-158.419 -0.01,0 -0.1,0 -0.1,0" /><path
       id="path20"
       style="fill:#eeaf22;fill-opacity:1;fill-rule:nonzero;stroke:none"
       d="M 2500,4250 V 857.141 h 0.03 c 100.55,0 190.71,63.66 224.36,158.419 160.22,451.14 351.21,1084.19 351.21,1538 0,453.77 -190.97,1086.79 -351.18,1537.92 -33.66,94.79 -123.82,158.49 -224.41,158.52 H 2500" /><path
       id="path22"
       style="fill:#f04241;fill-opacity:1;fill-rule:nonzero;stroke:none"
       d="m 2499.93,857.141 c 0,0 0.09,0 0.1,0 100.55,0 190.71,63.66 224.36,158.419 79.15,222.87 165.77,490.13 233.21,758.25 -138.81,45.69 -293.91,71.3 -457.6,71.3 -163.69,0 -318.78,-25.61 -457.58,-71.3 67.42,-268.09 154.03,-535.31 233.17,-758.16 33.66,-94.779 123.81,-158.49 224.34,-158.509" /><path
       id="path24"
       style="fill:#d6362b;fill-opacity:1;fill-rule:nonzero;stroke:none"
       d="M 2500.01,1845.11 V 857.141 h 0.02 c 100.55,0 190.71,63.66 224.36,158.419 79.15,222.87 165.77,490.13 233.21,758.25 -138.81,45.69 -293.91,71.3 -457.6,71.3 h 0.01" /><path
       id="path26"
       style="fill:#f04241;fill-opacity:1;fill-rule:nonzero;stroke:none"
       d="m 2500.01,4250 c -100.57,0 -190.75,-63.67 -224.39,-158.44 -115.12,-324.14 -246.11,-742.19 -310.75,-1120.19 163.99,-67.92 344.92,-105.67 535.13,-105.67 190.21,0 371.14,37.75 535.14,105.67 -64.63,377.97 -195.62,795.98 -310.72,1120.11 -33.66,94.79 -123.82,158.49 -224.41,158.52" /><path
       id="path28"
       style="fill:#d6362b;fill-opacity:1;fill-rule:nonzero;stroke:none"
       d="M 2500,4250 V 2865.7 c 190.21,0 371.14,37.75 535.14,105.67 -64.63,377.97 -195.62,795.98 -310.72,1120.11 -33.66,94.79 -123.82,158.49 -224.41,158.52 H 2500" /><path
       id="path30"
       style="fill:#f04241;fill-opacity:1;fill-rule:nonzero;stroke:none"
       d="m 2500,1927.79 c -208.52,0 -378.17,169.64 -378.17,378.17 0,205.6 165.19,444.61 378.17,444.61 212.98,0 378.17,-239.01 378.17,-444.61 0,-208.53 -169.64,-378.17 -378.17,-378.17" /><path
       id="path32"
       style="fill:#d6362b;fill-opacity:1;fill-rule:nonzero;stroke:none"
       d="m 2500,2750.57 v -822.78 c 208.53,0 378.17,169.64 378.17,378.17 0,205.6 -165.19,444.61 -378.17,444.61 v 0" /><path
       id="path34"
       style="fill:#9ac02b;fill-opacity:1;fill-rule:nonzero;stroke:none"
       d="m 2802.98,2305.96 c 0,-167.34 -135.65,-302.98 -302.98,-302.98 -167.33,0 -302.98,135.64 -302.98,302.98 0,167.32 135.65,369.42 302.98,369.42 167.33,0 302.98,-202.1 302.98,-369.42" /><path
       id="path36"
       style="fill:#7fa62b;fill-opacity:1;fill-rule:nonzero;stroke:none"
       d="m 2500,2675.38 v -672.4 c 167.33,0 302.98,135.64 302.98,302.98 0,167.32 -135.65,369.42 -302.98,369.42 v 0" /><path
       id="path38"
       style="fill:#413f42;fill-opacity:1;fill-rule:nonzero;stroke:none"
       d="m 2889.9,3095.32 c -5.04,23.88 10.35,47.32 34.23,52.36 v 0 c 23.87,4.95 47.3,-10.36 52.33,-34.32 v 0 c 4.96,-23.86 -10.42,-47.3 -34.29,-52.25 v 0 c -3.01,-0.7 -6.02,-0.97 -9.03,-0.97 v 0 c -20.51,0 -38.9,14.32 -43.24,35.18" /><path
       id="path40"
       style="fill:#413f42;fill-opacity:1;fill-rule:nonzero;stroke:none"
       d="m 2853.22,3257.3 c -5.75,23.79 8.84,47.66 32.53,53.4 v 0 c 23.78,5.76 47.67,-8.75 53.41,-32.53 v 0 c 5.74,-23.7 -8.84,-47.56 -32.54,-53.39 v 0 c -3.53,-0.81 -6.98,-1.25 -10.52,-1.25 v 0 c -19.9,0 -37.93,13.62 -42.88,33.77" /><path
       id="path42"
       style="fill:#413f42;fill-opacity:1;fill-rule:nonzero;stroke:none"
       d="m 2811.75,3418.57 c -6.36,23.53 7.52,47.84 31.12,54.2 v 0 c 23.53,6.37 47.83,-7.51 54.2,-31.11 v 0 c 6.37,-23.53 -7.51,-47.84 -31.12,-54.21 v 0 c -3.89,-1.05 -7.78,-1.59 -11.58,-1.59 v 0 c -19.45,0 -37.31,13 -42.62,32.71" /><path
       id="path44"
       style="fill:#413f42;fill-opacity:1;fill-rule:nonzero;stroke:none"
       d="m 2766.31,3578.79 v 0 c -6.99,23.42 6.45,48 29.79,54.9 v 0 c 23.43,6.9 48.01,-6.45 54.91,-29.79 h 0.08 c 6.9,-23.44 -6.44,-48.01 -29.88,-54.99 v 0 c -4.15,-1.25 -8.4,-1.78 -12.56,-1.78 v 0 c -19.09,0 -36.69,12.47 -42.34,31.66" /><path
       id="path46"
       style="fill:#413f42;fill-opacity:1;fill-rule:nonzero;stroke:none"
       d="m 2717.41,3738.2 v 0 c -7.43,23.26 5.49,48.09 28.73,55.52 v 0 c 23.25,7.33 48.1,-5.58 55.53,-28.83 v 0 c 7.34,-23.25 -5.48,-48.09 -28.82,-55.52 v 0 c -4.42,-1.42 -8.93,-2.03 -13.36,-2.03 v 0 c -18.74,0 -36.15,12.02 -42.08,30.86" /><path
       id="path48"
       style="fill:#413f42;fill-opacity:1;fill-rule:nonzero;stroke:none"
       d="m 2665.52,3896.73 c -7.8,23.16 4.59,48.18 27.75,55.97 v 0 c 23.17,7.77 48.19,-4.6 55.97,-27.78 v 0 c 7.87,-23.06 -4.59,-48.17 -27.77,-55.96 v 0 c -4.67,-1.59 -9.37,-2.39 -14.05,-2.39 v 0 c -18.48,0 -35.72,11.68 -41.9,30.16" /><path
       id="path50"
       style="fill:#56575c;fill-opacity:1;fill-rule:nonzero;stroke:none"
       d="m 2066.86,3060.14 v 0 c -3.01,0 -6.02,0.27 -9.02,0.97 v 0 c -23.88,4.95 -39.26,28.39 -34.3,52.25 v 0 c 5.03,23.96 28.46,39.27 52.33,34.32 v 0 c 23.88,-5.04 39.26,-28.48 34.22,-52.36 -4.33,-20.86 -22.72,-35.18 -43.23,-35.18" /><path
       id="path52"
       style="fill:#56575c;fill-opacity:1;fill-rule:nonzero;stroke:none"
       d="m 2103.9,3223.53 v 0 c -3.53,0 -6.98,0.44 -10.52,1.25 v 0 c -23.7,5.83 -38.28,29.69 -32.54,53.39 v 0 c 5.75,23.78 29.62,38.29 53.41,32.53 v 0 c 23.69,-5.74 38.28,-29.61 32.53,-53.4 -4.95,-20.15 -22.99,-33.77 -42.88,-33.77" /><path
       id="path54"
       style="fill:#56575c;fill-opacity:1;fill-rule:nonzero;stroke:none"
       d="m 2145.63,3385.86 v 0 c -3.8,0 -7.69,0.54 -11.58,1.59 v 0 c -23.61,6.37 -37.49,30.68 -31.12,54.21 v 0 c 6.36,23.6 30.68,37.48 54.2,31.11 v 0 c 23.6,-6.36 37.48,-30.67 31.12,-54.2 -5.31,-19.71 -23.17,-32.71 -42.62,-32.71" /><path
       id="path56"
       style="fill:#56575c;fill-opacity:1;fill-rule:nonzero;stroke:none"
       d="m 2191.35,3547.13 v 0 c -4.16,0 -8.41,0.53 -12.56,1.78 v 0 c -23.43,6.98 -36.78,31.55 -29.88,54.99 h 0.08 c 6.9,23.34 31.48,36.69 54.91,29.79 v 0 c 23.34,-6.9 36.78,-31.48 29.8,-54.9 v 0 c -5.66,-19.19 -23.26,-31.66 -42.35,-31.66" /><path
       id="path58"
       style="fill:#56575c;fill-opacity:1;fill-rule:nonzero;stroke:none"
       d="m 2240.5,3707.34 v 0 c -4.42,0 -8.93,0.61 -13.35,2.03 v 0 c -23.34,7.43 -36.16,32.27 -28.82,55.52 v 0 c 7.43,23.25 32.27,36.16 55.52,28.83 v 0 c 23.25,-7.43 36.16,-32.26 28.74,-55.52 v 0 c -5.92,-18.84 -23.34,-30.86 -42.09,-30.86" /><path
       id="path60"
       style="fill:#56575c;fill-opacity:1;fill-rule:nonzero;stroke:none"
       d="m 2292.58,3866.57 v 0 c -4.68,0 -9.37,0.8 -14.06,2.39 v 0 c -23.16,7.79 -35.63,32.9 -27.76,55.96 v 0 c 7.78,23.18 32.8,35.55 55.96,27.78 v 0 c 23.17,-7.79 35.55,-32.81 27.77,-55.97 -6.19,-18.48 -23.43,-30.16 -41.91,-30.16" /><path
       id="path62"
       style="fill:#52ace4;fill-opacity:1;fill-rule:nonzero;stroke:none"
       d="m 2933.19,3086.69 c -1.13,0 -2.27,0.11 -3.42,0.33 l -831.79,163.37 c -8.23,1.62 -14.2,8.8 -14.28,17.18 -0.08,8.4 5.75,15.68 13.95,17.46 l 675.38,146.07 -587.42,143.04 c -7.81,1.9 -13.35,8.83 -13.5,16.88 -0.14,8.03 5.16,15.14 12.89,17.33 l 514.98,144.83 -413.09,140.87 c -9.23,3.16 -14.18,13.21 -11.02,22.44 3.14,9.24 13.18,14.22 22.44,11.03 l 466.92,-159.23 c 7.33,-2.5 12.18,-9.47 11.97,-17.22 -0.21,-7.73 -5.43,-14.44 -12.88,-16.54 l -504.84,-141.97 596.66,-145.29 c 8.01,-1.96 13.62,-9.17 13.51,-17.41 -0.11,-8.25 -5.89,-15.32 -13.95,-17.06 l -666.81,-144.22 747.69,-146.85 c 9.58,-1.89 15.82,-11.18 13.95,-20.76 -1.65,-8.43 -9.07,-14.28 -17.34,-14.28" /><path
       id="path64"
       style="fill:#418ac3;fill-opacity:1;fill-rule:nonzero;stroke:none"
       d="m 2517.28,3204.08 v -36.04 l 412.49,-81.02 c 1.15,-0.22 2.29,-0.33 3.42,-0.33 8.27,0 15.69,5.85 17.34,14.28 1.87,9.58 -4.37,18.87 -13.95,20.76 l -419.3,82.35 z m 0,325.7 v -36.4 l 255.75,-62.28 -255.75,-55.31 v -36.18 l 338.42,73.19 c 8.06,1.74 13.84,8.81 13.95,17.06 0.11,8.24 -5.5,15.45 -13.51,17.41 l -338.86,82.51 z m 0,323.06 v -37.35 l 182.7,-62.31 -182.7,-51.38 v -36.74 l 247.04,69.47 c 7.45,2.1 12.67,8.81 12.88,16.54 0.21,7.75 -4.64,14.72 -11.97,17.22 l -247.95,84.55 v 0" /><path
       id="path66"
       style="fill:#9ac02b;fill-opacity:1;fill-rule:nonzero;stroke:none"
       d="m 2066.81,3086.69 c 1.12,0 2.27,0.11 3.42,0.33 l 831.79,163.37 c 8.23,1.62 14.19,8.8 14.28,17.18 0.08,8.4 -5.74,15.68 -13.95,17.46 l -675.38,146.07 587.42,143.04 c 7.81,1.9 13.35,8.83 13.5,16.88 0.14,8.03 -5.16,15.14 -12.9,17.33 l -514.98,144.83 413.1,140.87 c 9.23,3.16 14.18,13.21 11.02,22.44 -3.14,9.24 -13.18,14.22 -22.44,11.03 l -466.92,-159.23 c -7.33,-2.5 -12.18,-9.47 -11.97,-17.22 0.21,-7.73 5.43,-14.44 12.89,-16.54 l 504.83,-141.97 -596.67,-145.29 c -8.01,-1.96 -13.6,-9.17 -13.5,-17.41 0.11,-8.25 5.9,-15.32 13.95,-17.06 l 666.81,-144.22 -747.69,-146.85 c -9.58,-1.89 -15.83,-11.18 -13.94,-20.76 1.65,-8.43 9.05,-14.28 17.33,-14.28" /><path
       id="path68"
       style="fill:#7fa62b;fill-opacity:1;fill-rule:nonzero;stroke:none"
       d="m 2482.72,3375.79 v -36.18 l 328.39,-71.03 -328.39,-64.5 v -36.04 l 419.3,82.35 c 8.23,1.62 14.19,8.8 14.28,17.18 0.08,8.4 -5.74,15.68 -13.95,17.46 l -419.63,90.76 z m 0,326.01 v -36.74 l 257.8,-72.5 -257.8,-62.78 v -36.4 l 331.67,80.76 c 7.81,1.9 13.35,8.83 13.5,16.88 0.14,8.03 -5.16,15.14 -12.9,17.33 l -332.27,93.45 z m 224.7,226.69 c -1.9,0 -3.83,-0.31 -5.73,-0.97 l -218.97,-74.68 v -37.35 l 230.39,78.56 c 9.23,3.16 14.18,13.21 11.02,22.44 -2.5,7.35 -9.35,12 -16.71,12 v 0" /><path
       id="path70"
       style="fill:#7fa62b;fill-opacity:1;fill-rule:nonzero;stroke:none"
       d="m 2673.89,1150.44 c 0,-12.21 -9.9,-22.1 -22.1,-22.1 h -36.85 c -12.22,0 -22.1,9.89 -22.1,22.1 v 73.7 c 0,12.21 9.88,22.1 22.1,22.1 h 36.85 c 12.2,0 22.1,-9.89 22.1,-22.1 v -73.7" /><path
       id="path72"
       style="fill:#9ac02b;fill-opacity:1;fill-rule:nonzero;stroke:none"
       d="m 2326.11,1150.44 c 0,-12.21 9.9,-22.1 22.1,-22.1 h 36.85 c 12.21,0 22.1,9.89 22.1,22.1 v 73.7 c 0,12.21 -9.89,22.1 -22.1,22.1 h -36.85 c -12.2,0 -22.1,-9.89 -22.1,-22.1 v -73.7" /><path
       id="path74"
       style="fill:#7fa62b;fill-opacity:1;fill-rule:nonzero;stroke:none"
       d="m 2676.58,1386.47 c -11.6,3.79 -17.94,16.26 -14.15,27.87 l 11.44,35.03 c 1.81,5.57 5.78,10.19 10.99,12.85 5.24,2.65 11.3,3.12 16.87,1.3 l 70.06,-22.88 c 5.56,-1.81 10.19,-5.77 12.84,-10.99 2.66,-5.24 3.12,-11.3 1.31,-16.87 l -11.45,-35.03 c -3.79,-11.6 -16.26,-17.94 -27.86,-14.15 l -70.05,22.87" /><path
       id="path76"
       style="fill:#7fa62b;fill-opacity:1;fill-rule:nonzero;stroke:none"
       d="m 2799.6,1763.3 c -5.58,1.82 -11.65,1.35 -16.88,-1.31 -5.22,-2.65 -9.18,-7.27 -10.99,-12.84 l -11.45,-35.04 c -3.79,-11.6 2.55,-24.07 14.15,-27.86 l 70.06,-22.87 c 5.57,-1.83 11.64,-1.36 16.87,1.3 5.22,2.65 9.19,7.27 10.99,12.84 l 11.45,35.04 c 3.78,11.6 -2.56,24.07 -14.15,27.86 l -70.05,22.88" /><path
       id="path78"
       style="fill:#9ac02b;fill-opacity:1;fill-rule:nonzero;stroke:none"
       d="m 2323.42,1386.47 c 11.6,3.79 17.93,16.26 14.15,27.87 l -11.44,35.03 c -1.81,5.57 -5.77,10.19 -11,12.85 -5.22,2.65 -11.29,3.12 -16.86,1.3 l -70.06,-22.88 c -5.57,-1.81 -10.19,-5.77 -12.84,-10.99 -2.66,-5.24 -3.12,-11.3 -1.3,-16.87 l 11.43,-35.03 c 3.79,-11.6 16.27,-17.94 27.87,-14.15 l 70.05,22.87" /><path
       id="path80"
       style="fill:#9ac02b;fill-opacity:1;fill-rule:nonzero;stroke:none"
       d="m 2200.4,1763.3 c 5.58,1.82 11.64,1.35 16.87,-1.31 5.23,-2.65 9.18,-7.27 11,-12.84 l 11.44,-35.04 c 3.79,-11.6 -2.55,-24.07 -14.15,-27.86 l -70.06,-22.87 c -5.57,-1.83 -11.64,-1.36 -16.86,1.3 -5.23,2.65 -9.19,7.27 -11,12.85 l -11.44,35.03 c -3.78,11.6 2.55,24.07 14.15,27.86 l 70.05,22.88" /><path
       id="path82"
       style="fill:#f04241;fill-opacity:1;fill-rule:nonzero;stroke:none"
       d="m 2616.13,2527.53 h -232.27 c -12.2,0 -22.1,9.89 -22.1,22.1 0,12.21 9.9,22.11 22.1,22.11 h 232.27 c 12.22,0 22.1,-9.9 22.1,-22.11 0,-12.21 -9.88,-22.1 -22.1,-22.1" /><path
       id="path84"
       style="fill:#d6362b;fill-opacity:1;fill-rule:nonzero;stroke:none"
       d="m 2500,2571.74 v -44.21 h 116.13 c 12.22,0 22.1,9.89 22.1,22.1 0,12.21 -9.88,22.11 -22.1,22.11 H 2500" /><path
       id="path86"
       style="fill:#f04241;fill-opacity:1;fill-rule:nonzero;stroke:none"
       d="m 2694.3,2420.32 h -388.59 c -12.21,0 -22.11,9.89 -22.11,22.1 0,12.22 9.9,22.11 22.11,22.11 h 388.59 c 12.2,0 22.1,-9.89 22.1,-22.11 0,-12.21 -9.9,-22.1 -22.1,-22.1" /><path
       id="path88"
       style="fill:#d6362b;fill-opacity:1;fill-rule:nonzero;stroke:none"
       d="m 2500,2464.53 v -44.21 h 194.3 c 12.2,0 22.1,9.89 22.1,22.1 0,12.22 -9.9,22.11 -22.1,22.11 H 2500" /><path
       id="path90"
       style="fill:#f04241;fill-opacity:1;fill-rule:nonzero;stroke:none"
       d="m 2726.01,2313.12 h -452.02 c -12.21,0 -22.1,9.9 -22.1,22.1 0,12.21 9.89,22.1 22.1,22.1 h 452.02 c 12.21,0 22.1,-9.89 22.1,-22.1 0,-12.2 -9.89,-22.1 -22.1,-22.1" /><path
       id="path92"
       style="fill:#d6362b;fill-opacity:1;fill-rule:nonzero;stroke:none"
       d="m 2500,2357.32 v -44.2 h 226.01 c 12.21,0 22.1,9.9 22.1,22.1 0,12.21 -9.89,22.1 -22.1,22.1 H 2500" /><path
       id="path94"
       style="fill:#f04241;fill-opacity:1;fill-rule:nonzero;stroke:none"
       d="m 2714.05,2205.92 h -428.1 c -12.21,0 -22.11,9.89 -22.11,22.1 0,12.2 9.9,22.11 22.11,22.11 h 428.1 c 12.21,0 22.1,-9.91 22.1,-22.11 0,-12.21 -9.89,-22.1 -22.1,-22.1" /><path
       id="path96"
       style="fill:#d6362b;fill-opacity:1;fill-rule:nonzero;stroke:none"
       d="m 2500,2250.13 v -44.21 h 214.05 c 12.21,0 22.1,9.89 22.1,22.1 0,12.2 -9.89,22.11 -22.1,22.11 H 2500" /><path
       id="path98"
       style="fill:#f04241;fill-opacity:1;fill-rule:nonzero;stroke:none"
       d="m 2632.47,2098.71 h -264.94 c -12.21,0 -22.1,9.89 -22.1,22.11 0,12.21 9.89,22.1 22.1,22.1 h 264.94 c 12.21,0 22.1,-9.89 22.1,-22.1 0,-12.22 -9.89,-22.11 -22.1,-22.11" /><path
       id="path100"
       style="fill:#d6362b;fill-opacity:1;fill-rule:nonzero;stroke:none"
       d="m 2500,2142.92 v -44.21 h 132.47 c 12.21,0 22.1,9.89 22.1,22.11 0,12.21 -9.89,22.1 -22.1,22.1 H 2500" /><path
       id="path102"
       style="fill:#eecf26;fill-opacity:1;fill-rule:nonzero;stroke:none"
       d="m 843.367,1057.47 c -25.297,48.98 -14.519,108.84 26.274,145.91 l 452.969,411.68 c 29.95,27.23 71.78,37.18 110.78,26.36 l 228.68,-63.45 59.87,-224.84 c 10.3,-38.69 0.26,-79.97 -26.67,-109.59 L 1282.87,789.77 C 1245.9,749.082 1186.21,738.309 1137.33,763.512 1011.34,828.461 908.699,931.02 843.645,1056.94 l -0.278,0.53" /><path
       id="path104"
       style="fill:#52ace4;fill-opacity:1;fill-rule:nonzero;stroke:none"
       d="m 1162.29,1168.72 321.5,321.51 c 23.79,23.78 62.35,23.78 86.13,0 23.78,-23.78 23.78,-62.33 0,-86.12 l -321.52,-321.5 c -23.78,-23.78 -62.33,-23.79 -86.11,0 -23.78,23.78 -23.78,62.33 0,86.11" /><path
       id="path106"
       style="fill:#eeaf22;fill-opacity:1;fill-rule:nonzero;stroke:none"
       d="m 4156.62,3783.17 c 25.31,-48.97 14.53,-108.83 -26.27,-145.91 l -452.96,-411.67 c -29.95,-27.23 -71.78,-37.18 -110.79,-26.36 l -228.66,63.44 -59.87,224.83 c -10.31,38.69 -0.27,79.97 26.66,109.61 l 412.4,453.76 c 36.97,40.68 96.66,51.45 145.53,26.26 h 0.02 c 125.97,-64.96 228.63,-167.51 293.68,-293.45 l 0.26,-0.51" /><path
       id="path108"
       style="fill:#418ac3;fill-opacity:1;fill-rule:nonzero;stroke:none"
       d="M 3837.71,3671.91 3516.2,3350.39 c -23.78,-23.78 -62.34,-23.78 -86.12,0 -23.78,23.79 -23.78,62.34 0,86.12 l 321.52,321.52 c 23.77,23.78 62.33,23.79 86.11,0 23.78,-23.79 23.78,-62.34 0,-86.12" /><path
       id="path110"
       style="fill:#52ace4;fill-opacity:1;fill-rule:nonzero;stroke:none"
       d="m 3321.95,3242.28 c 26.96,-26.96 26.96,-70.65 0,-97.61 L 1538.35,1361.06 c -26.95,-26.95 -70.65,-26.95 -97.6,0 -26.95,26.96 -26.95,70.65 0,97.6 l 1783.61,1783.62 c 26.95,26.95 70.65,26.95 97.59,0" /><path
       id="path112"
       style="fill:#418ac3;fill-opacity:1;fill-rule:nonzero;stroke:none"
       d="m 3273.15,3262.49 c -17.65,0 -35.32,-6.74 -48.79,-20.21 l -843.01,-843.01 v -195.2 l 940.6,940.6 c 26.96,26.96 26.96,70.65 0,97.61 -13.47,13.47 -31.13,20.21 -48.8,20.21 v 0" /><path
       id="path114"
       style="fill:#7fa62b;fill-opacity:1;fill-rule:nonzero;stroke:none"
       d="m 3441.56,3499.67 -354.04,-354.05 c -11.63,-11.63 -11.63,-30.47 0,-42.1 l 95.68,-95.69 c 11.63,-11.63 30.48,-11.63 42.11,0 l 354.05,354.04 c 38.04,38.05 38.04,99.75 0,137.8 -38.05,38.04 -99.75,38.04 -137.8,0" /><path
       id="path116"
       style="fill:#9ac02b;fill-opacity:1;fill-rule:nonzero;stroke:none"
       d="M 1558.43,1340.97 1912.47,1695 c 11.63,11.63 11.63,30.48 0,42.11 l -95.68,95.68 c -5.58,5.59 -13.16,8.72 -21.05,8.72 -7.9,0 -15.47,-3.13 -21.06,-8.72 l -354.04,-354.04 c -38.04,-38.05 -38.04,-99.73 0,-137.78 38.05,-38.04 99.75,-38.05 137.79,0" /><path
       id="path118"
       style="fill:#52ace4;fill-opacity:1;fill-rule:nonzero;stroke:none"
       d="m 2623.78,1162.61 c 0,-5.9 -4.79,-10.69 -10.68,-10.69 h -226.18 c -5.9,0 -10.68,4.79 -10.68,10.69 v 49.36 c 0,5.9 4.78,10.69 10.68,10.69 h 226.18 c 5.89,0 10.68,-4.79 10.68,-10.69 v -49.36" /><path
       id="path120"
       style="fill:#418ac3;fill-opacity:1;fill-rule:nonzero;stroke:none"
       d="m 2500,1222.66 v -70.74 h 113.11 c 5.89,0 10.67,4.79 10.67,10.69 v 49.37 c 0,5.9 -4.78,10.68 -10.67,10.68 H 2500" /><path
       id="path122"
       style="fill:#418ac3;fill-opacity:1;fill-rule:nonzero;stroke:none"
       d="m 2703.69,1430.3 c -2.69,0.88 -4.92,2.79 -6.21,5.32 -1.29,2.52 -1.5,5.45 -0.62,8.15 l 85.28,261.27 c 0.88,2.69 2.79,4.93 5.31,6.21 2.53,1.28 5.46,1.5 8.16,0.62 l 46.93,-15.31 c 5.6,-1.83 8.67,-7.87 6.84,-13.47 l -85.29,-261.26 c -1.82,-5.62 -7.86,-8.68 -13.47,-6.85 l -46.93,15.32" /><path
       id="path124"
       style="fill:#52ace4;fill-opacity:1;fill-rule:nonzero;stroke:none"
       d="m 2296.31,1430.3 c 2.69,0.88 4.93,2.79 6.21,5.32 1.28,2.52 1.51,5.45 0.63,8.15 l -85.29,261.27 c -0.88,2.69 -2.79,4.93 -5.32,6.21 -2.53,1.28 -5.46,1.5 -8.15,0.62 l -46.93,-15.31 c -5.61,-1.83 -8.67,-7.87 -6.84,-13.47 l 85.29,-261.26 c 1.83,-5.62 7.86,-8.68 13.47,-6.85 l 46.93,15.32" />
    </g>
  </g>
</svg>