<?xml version="1.0" encoding="utf-8"?><!-- Generator: Adobe Illustrator 18.1.1, SVG Export Plug-In . SVG Version: 6.00 Build 0)  --><svg xmlns="http://www.w3.org/2000/svg" xmlns:xlink="http://www.w3.org/1999/xlink" version="1.0" id="Layer_1" x="0px" y="0px" viewBox="0 0 48 48" enable-background="new 0 0 48 48" xml:space="preserve" width="48" height="48" style="fill: rgb(52, 73, 94);">
<g>
	<circle fill="#FFA726" cx="12" cy="21" r="5"/>
</g>
<g>
	<path fill="#455A64" d="M2,34.7c0,0,2.8-6.3,10-6.3s10,6.3,10,6.3V38H2V34.7z"/>
	<path fill="#455A64" d="M46,34.7c0,0-2.8-6.3-10-6.3s-10,6.3-10,6.3V38h20V34.7z"/>
</g>
<circle fill="#FFB74D" cx="24" cy="17" r="6"/>
<path fill="#607D8B" d="M36,34.1c0,0-3.3-7.5-12-7.5s-12,7.5-12,7.5V38h24V34.1z"/>
<g>
	<circle fill="#FFA726" cx="36" cy="21" r="5"/>
</g>
<g>
	<g>
		<circle fill="#FFA726" cx="12" cy="21" r="5"/>
	</g>
	<g>
		<circle fill="#FFA726" cx="36" cy="21" r="5"/>
	</g>
</g>
</svg>