<svg xmlns="http://www.w3.org/2000/svg" id="community-center" width="24" height="24" viewBox="0 0 48 48" fill="rgb(52, 73, 94)">
	<g>
		<path fill="#455A64" d="M18,36c0,0-2.214-4-8-4s-8,4-8,4v3h16V36z"/>
		<path fill="#455A64" d="M46,36c0,0-2.214-4-8-4s-8,4-8,4v3h16V36z"/>
	</g>
	<path fill="#FF9800" d="M28,28c0,0,0,4-4,4s-4-4-4-4"/>
	<path fill="#607D8B" d="M36,34.939c0,0-3.321-7.939-12-7.939c-8.679,0-12,7.939-12,7.939V39h24V34.939z"/>
	<g>
		<path fill="#FFA726" d="M32,19.5c0,0.829-0.672,1.5-1.5,1.5S29,20.329,29,19.5s0.672-1.5,1.5-1.5S32,18.671,32,19.5"/>
		<path fill="#FFA726" d="M19,19.5c0,0.829-0.672,1.5-1.5,1.5S16,20.329,16,19.5s0.672-1.5,1.5-1.5S19,18.671,19,19.5"/>
	</g>
	<g>
		<path fill="#FF9800" d="M12.001,29h-4v3c0,0-0.124,2,1.959,2s2.041-2,2.041-2V29z"/>
		<path fill="#FF9800" d="M40.001,29h-4v3c0,0-0.124,2,1.959,2s2.041-2,2.041-2V29z"/>
		<path fill="#FF9800" d="M24,32c-4,0-4-4-4-4v-4h8v4C28,28,28,32,24,32z"/>
	</g>
	<g>
		<path fill="#FFB74D" d="M10,31c-2.758,0-5-2.243-5-5s2.242-5,5-5s5,2.243,5,5S12.758,31,10,31"/>
		<path fill="#FFB74D" d="M38,31c-2.758,0-5-2.243-5-5s2.242-5,5-5s5,2.243,5,5S40.758,31,38,31"/>
		<path fill="#FFB74D" d="M31,15.68c0-5.878-14-3.827-14,0v4.39C17,23.896,20.133,27,24,27c3.866,0,7-3.104,7-6.931V15.68z"/>
	</g>
	<g>
		<path fill="#424242" d="M9.781,19C7.344,19.219,5,20.93,5,24.574V26l1,1v-3l6.31-2.201L14,24v3l1-1v-1.202   c0-2.414-0.135-4.206-3-4.798l-0.485-1H9.781z"/>
		<path fill="#424242" d="M37.781,19C35.344,19.219,33,20.93,33,24.574V26l1,1v-3l6.31-2.201L42,24v3l1-1v-1.202   c0-2.414-0.135-4.206-3-4.798l-0.485-1H37.781z"/>
		<path fill="#424242" d="M24,8c-4.86,0-8,4.313-8,8.173V18l2,2v-4l9.2-3l2.8,3v4l2-2v-0.808c0-3.22-0.83-6.804-4.8-7.593L26.4,8H24z   "/>
	</g>
	<g>
		<path fill="#784719" d="M26,19c0,0.552,0.448,1,1,1s1-0.448,1-1s-0.448-1-1-1S26,18.448,26,19"/>
		<path fill="#784719" d="M20,19c0,0.552,0.448,1,1,1s1-0.448,1-1s-0.448-1-1-1S20,18.448,20,19"/>
	</g>
</svg>