<svg xmlns="http://www.w3.org/2000/svg" id="disc-golf" width="24" height="24" viewBox="0 0 48 48" fill="rgb(52, 73, 94)">
  <path fill="#FFB74D" d="M19,5c2.2,0,4,1.8,4,4s-1.8,4-4,4s-4-1.8-4-4S16.8,5,19,5z"/>
  <path fill="#2196F3" d="M32.2,4.2c-0.7-0.4-1.6-0.1-2,0.7L28,10l-5.1,4h-6.6c-0.4,0-0.9,0.2-1.2,0.5l-4.8,6c-0.2,0.3-0.3,0.6-0.3,1  v6.1c0,0.8,0.7,1.5,1.5,1.5s1.5-0.7,1.5-1.5V22l3-3.2v8.4l-2.3,4.1l-6.2,1.8c-1.1,0.3-1.7,1.4-1.4,2.5C6.3,36.4,7.1,37,8,37  c0.2,0,0.4,0,0.6-0.1l7-2c0.5-0.1,0.9-0.5,1.2-0.9l3-5.3l-0.7,5.5l-5.6,6.5c-0.7,0.8-0.6,2.1,0.2,2.8c0.4,0.3,0.8,0.5,1.3,0.5  c0.6,0,1.1-0.2,1.5-0.7l6-7c0.3-0.3,0.4-0.7,0.5-1.1l1-8.2c0,0,0,0,0,0l0,0v0c0-0.1,0-0.3,0-0.4v-9.1l6.3-5.5  c0.1-0.1,0.2-0.2,0.3-0.4l2.3-5.4C33.2,5.5,32.9,4.6,32.2,4.2z"/>
  <ellipse fill="#FF5722" cx="38.5" cy="6" rx="4.5" ry="2"/>
</svg>