<?xml version="1.0" encoding="utf-8"?><!-- Generator: Adobe Illustrator 18.0.0, SVG Export Plug-In . SVG Version: 6.00 Build 0)  --><svg xmlns="http://www.w3.org/2000/svg" xmlns:xlink="http://www.w3.org/1999/xlink" version="1.1" id="Layer_1" x="0px" y="0px" viewBox="0 0 48 48" style="fill: rgb(52, 73, 94);" xml:space="preserve" width="48" height="48">
<style type="text/css">
	.st0{fill:#FF9800;}
	.st1{fill:#00A344;}
	.st2{fill:#1565C0;}
	.st3{fill:#3F51B5;}
	.st4{fill:#B3E5FC;}
	.st5{fill:none;stroke:#F44336;stroke-width:4;stroke-miterlimit:10;}
	.st6{fill:#37474F;}
	.st7{fill:#F44336;}
	.st8{fill:#546E7A;}
	.st9{fill:#00C853;}
	.st10{fill:#9CCC65;}
	.st11{fill:#8BC34A;}
	.st12{fill:#2E7D32;}
	.st13{fill:#388E3C;}
	.st14{fill:#43A047;}
	.st15{fill:#AD1457;}
	.st16{fill:#E91E63;}
	.st17{fill:#303F9F;}
	.st18{fill:#4CAF50;}
	.st19{fill:#FF5722;}
	.st20{fill:#FFC107;}
	.st21{fill:#BF360C;}
	.st22{fill:#FF8A65;}
	.st23{fill:#2196F3;}
	.st24{fill:#64B5F6;}
	.st25{fill:#B2EBF2;}
	.st26{fill:#4DD0E1;}
	.st27{fill:#FFA726;}
	.st28{fill:#FFB74D;}
	.st29{fill:#B0BEC5;}
	.st30{fill:#81D4FA;}
	.st31{fill:#80DEEA;}
	.st32{fill:#03A9F4;}
	.st33{fill:#455A64;}
	.st34{fill:#8A5100;}
	.st35{fill:#607D8B;}
	.st36{fill:#2962FF;}
	.st37{fill:#CC861E;}
	.st38{fill:#90A4AE;}
	.st39{fill:#00BCD4;}
	.st40{fill:none;stroke:#3F51B5;stroke-width:4;stroke-miterlimit:10;}
	.st41{fill:#E64A19;}
	.st42{fill:#EF6C00;}
	.st43{fill:#992B0A;}
	.st44{fill:#FFFFFF;}
	.st45{fill:#D32F2F;}
	.st46{fill:#0277BD;}
	.st47{fill:#263238;}
	.st48{fill:#795548;}
	.st49{fill:#CDDC39;}
	.st50{fill:#1976D2;}
	.st51{fill:#F8BBD0;}
	.st52{fill:#D1C4E9;}
	.st53{fill:#F06292;}
	.st54{fill:#673AB7;}
	.st55{fill:#1B5E20;}
	.st56{fill:#81C784;}
	.st57{fill:#EF9A9A;}
	.st58{fill:#CC4216;}
	.st59{fill:#FFEB3B;}
	.st60{fill:#FFCC80;}
	.st61{fill:#1E88E5;}
	.st62{fill:#BBDEFB;}
	.st63{fill:#469C10;}
	.st64{fill:#64DD17;}
	.st65{fill:#90CAF9;}
	.st66{fill:#42A5F5;}
	.st67{fill:#B39DDB;}
	.st68{fill:#33691E;}
	.st69{fill:#CCFF90;}
	.st70{fill:#4FC3F7;}
	.st71{fill:#689F38;}
	.st72{fill:#C6FF00;}
	.st73{fill:none;stroke:#C6FF00;stroke-width:2;stroke-linecap:round;stroke-linejoin:round;stroke-miterlimit:10;}
	.st74{fill:#009688;}
	.st75{fill:#26A69A;}
	.st76{fill:#00897B;}
	.st77{fill:#A5D6A7;}
	.st78{fill:#9C2C0A;}
	.st79{fill:#E0F7FA;}
	.st80{fill:#9E2D0A;}
	.st81{fill:#F57C00;}
	.st82{fill:#004D40;}
	.st83{fill:#80CBC4;}
	.st84{fill:#FFCDD2;}
	.st85{fill:#9575CD;}
	.st86{fill:#7454B3;}
	.st87{fill:none;stroke:#BBDEFB;stroke-width:4;stroke-linecap:round;stroke-miterlimit:10;}
	.st88{fill:#D15F00;}
	.st89{fill:#DB6400;}
	.st90{fill:#C45900;}
	.st91{fill:#9FA8DA;}
	.st92{fill:#7986CB;}
	.st93{fill:#D18A2E;}
	.st94{fill:#FFAB40;}
</style>
<path id="XMLID_549_" class="st49" d="M38,17c0-7.8-6.2-14-14-14S10,9.2,10,17c0,8.2,8,10.8,8,16.6V35h12v-1.4  C30,27.8,38,25.2,38,17z"/>
<path id="XMLID_548_" class="st13" d="M19.3,8.9c0,0-3.4,7.7-1.9,12.8c1.1,3.6,4.9,4.5,6.6,3.2c0.2,1.5-0.4,2.8-0.9,4.1l3,1.1  c1.9-5.6-1.3-12-3.2-15c4.5,3.2,5.8,8.6,5.8,8.6c0.4-0.2,0.6-0.6,1.1-1.1C32.6,19.2,31.1,11.3,19.3,8.9z"/>
<path id="XMLID_547_" class="st13" d="M18,34v5c0,1.9,1.4,3.5,3.2,3.9c0.4,1.2,1.5,2.1,2.8,2.1s2.5-0.9,2.8-2.1  c1.8-0.4,3.2-2,3.2-3.9v-5H18z"/>
<g id="XMLID_544_">
	<path id="XMLID_546_" class="st18" d="M30,39l-11.6,1.6c0.3,0.7,0.9,1.4,1.6,1.8l9.4-1.3C29.8,40.5,30,39.8,30,39z"/>
	<polygon id="XMLID_545_" class="st18" points="18,36.7 18,38.7 30,37 30,35  "/>
</g>
</svg>