<?xml version="1.0" encoding="utf-8"?><!-- Generator: Adobe Illustrator 19.1.1, SVG Export Plug-In . SVG Version: 6.00 Build 0)  --><svg xmlns="http://www.w3.org/2000/svg" xmlns:xlink="http://www.w3.org/1999/xlink" version="1.1" id="Слой_1" x="0px" y="0px" viewBox="0 0 48 48" enable-background="new 0 0 48 48" xml:space="preserve" width="48" height="48" style="fill: rgb(52, 73, 94);">
<path fill="#455A64" d="M26,1.8c0-1.1-1-2-2.1-1.9S22,0.9,22,2l1,22.5V47c0,0.6,0.4,1,1,1c0.6,0,1-0.4,1-1V24.5L26,2  C26,1.9,26,1.9,26,1.8z"/>
<path fill="#CFD8DC" d="M13,21c0,0.1,0,0.1,0,0.2C13,28.5,19,40,24,40s11-11.5,11-18.8c0-0.1,0-0.1,0-0.2H13z"/>
<path fill="#FF5722" d="M35,20c-0.4-8-5.2-12-11-12s-10.5,4-11,12H35z"/>
<path fill="#546E7A" d="M13.1,23h21.8c0.1-0.6,0.1-1.2,0.1-1.8c0-1.1-0.1-2.2-0.3-3.2H13.3c-0.2,1-0.3,2.1-0.3,3.2  C13,21.8,13,22.4,13.1,23z"/>
</svg>