<svg xmlns="http://www.w3.org/2000/svg" id="greenway" width="24" height="24" viewBox="0 0 48 48" fill="rgb(52, 73, 94)">
	<g>
		<line fill="none" stroke="#795548" stroke-width="4" x1="31" y1="42" x2="31" y2="34"/>
		<line fill="none" stroke="#795548" stroke-width="4" x1="16" y1="42" x2="16" y2="31"/>
	</g>
	<g>
		<circle fill="#8BC34A" cx="15.5" cy="12.5" r="4.5"/>
		<circle fill="#8BC34A" cx="21" cy="29" r="5"/>
		<circle fill="#8BC34A" cx="22.5" cy="22.5" r="3.5"/>
		<circle fill="#8BC34A" cx="20" cy="17" r="4"/>
		<circle fill="#8BC34A" cx="15.5" cy="32.5" r="4.5"/>
		<ellipse fill="#8BC34A" cx="15" cy="22.5" rx="6" ry="7.5"/>
		<circle fill="#8BC34A" cx="11" cy="15" r="4"/>
		<circle fill="#8BC34A" cx="10" cy="31" r="3"/>
		<circle fill="#8BC34A" cx="9.5" cy="20.5" r="3.5"/>
		<circle fill="#8BC34A" cx="8.5" cy="25.5" r="3.5"/>
		<circle fill="#8BC34A" cx="8.5" cy="25.5" r="3.5"/>
	</g>
	<g>
		<path fill="#009688" d="M31,14L20,34c0,0,3,3,11,3s11-3,11-3L31,14z"/>
		<path fill="#009688" d="M31,9l-9,15c0,0,1.5,3,9,3s9-3,9-3L31,9z"/>
		<path fill="#009688" d="M31,6l-6,9c0,0,1,2,6,2s6-2,6-2L31,6z"/>
	</g>
	<g>
		<path fill="#00796B" d="M31,29c3.486,0,5.87-0.604,7.506-1.353l-0.971-1.765C36.168,26.484,34.104,27,31,27   s-5.168-0.516-6.535-1.117l-0.971,1.765C25.13,28.396,27.514,29,31,29z"/>
		<path fill="#00796B" d="M36.387,17.979l-1.033-1.723C34.442,16.657,33.066,17,31,17s-3.442-0.343-4.354-0.744l-1.033,1.723   C26.797,18.545,28.514,19,31,19S35.203,18.545,36.387,17.979z"/>
	</g>
	<g>
		<path fill="none" stroke="#689F38" stroke-width="2" stroke-linecap="round" stroke-linejoin="round" d="M11,17.5   c0-1.933,1.567-3.5,3.5-3.5"/>
		<path fill="none" stroke="#689F38" stroke-width="2" stroke-linecap="round" stroke-linejoin="round" d="M20,24   c0-2.209-1.791-4-4-4"/>
		<path fill="none" stroke="#689F38" stroke-width="2" stroke-linecap="round" stroke-linejoin="round" d="M13,30   c0-1.381,1.119-2.5,2.5-2.5"/>
	</g>
</svg>