<?xml version="1.0" encoding="utf-8"?><!-- Generator: Adobe Illustrator 19.1.1, SVG Export Plug-In . SVG Version: 6.00 Build 0)  --><svg xmlns="http://www.w3.org/2000/svg" xmlns:xlink="http://www.w3.org/1999/xlink" version="1.1" id="Слой_1" x="0px" y="0px" viewBox="0 0 48 48" enable-background="new 0 0 48 48" xml:space="preserve" width="48" height="48" style="fill: rgb(52, 73, 94);">
<rect y="22" fill="#90A4AE" width="48" height="4"/>
<path fill="#BF360C" d="M42,34c0,0.6-0.4,1-1,1h-3c-0.6,0-1-0.4-1-1V14c0-0.6,0.4-1,1-1h3c0.6,0,1,0.4,1,1V34z M6,34  c0,0.6,0.4,1,1,1h3c0.6,0,1-0.4,1-1V14c0-0.6-0.4-1-1-1H7c-0.6,0-1,0.4-1,1V34z"/>
<path fill="#FF5722" d="M37,38c0,0.6-0.4,1-1,1h-3c-0.6,0-1-0.4-1-1V10c0-0.6,0.4-1,1-1h3c0.6,0,1,0.4,1,1V38z M11,38  c0,0.6,0.4,1,1,1h3c0.6,0,1-0.4,1-1V10c0-0.6-0.4-1-1-1h-3c-0.6,0-1,0.4-1,1V38z"/>
<path fill="#607D8B" d="M2,22h2v4H2V22z M44,22h2v4h-2V22z"/>
</svg>