<svg xmlns="http://www.w3.org/2000/svg" id="horseshoe" width="24" height="24" viewBox="0 0 48 48" fill="rgb(52, 73, 94)">
  <g>
  	<path fill="#FFC107" d="M40,43c0,0.553-0.447,1-1,1h-7c-0.553,0-1-0.447-1-1v-4c0-0.553,0.447-1,1-1h7c0.553,0,1,0.447,1,1V43z"/>
  	<path fill="#FFC107" d="M24,3C13.507,3,6,12.197,6,23.543C6,30.053,9.408,37.138,12,42l5-3c-2.017-6.123-4-9-4-14.736   c0-7.166,4.373-12.975,11-12.975s11,5.809,11,12.975C35,31,33.017,32.877,31,39l5,3c2.592-4.862,6-11.947,6-18.457   C42,12.197,34.493,3,24,3z M8,21.5C8,20.672,8.672,20,9.5,20s1.5,0.672,1.5,1.5S10.328,23,9.5,23S8,22.328,8,21.5z M10.5,32   C9.672,32,9,31.328,9,30.5S9.672,29,10.5,29s1.5,0.672,1.5,1.5S11.328,32,10.5,32z M12.5,15c-0.828,0-1.5-0.672-1.5-1.5   s0.672-1.5,1.5-1.5s1.5,0.672,1.5,1.5S13.328,15,12.5,15z M18.5,10C17.672,10,17,9.328,17,8.5S17.672,7,18.5,7S20,7.672,20,8.5   S19.328,10,18.5,10z M29.5,10C28.672,10,28,9.328,28,8.5S28.672,7,29.5,7S31,7.672,31,8.5S30.328,10,29.5,10z M35.5,15   c-0.828,0-1.5-0.672-1.5-1.5s0.672-1.5,1.5-1.5s1.5,0.672,1.5,1.5S36.328,15,35.5,15z M37.5,32c-0.828,0-1.5-0.672-1.5-1.5   s0.672-1.5,1.5-1.5s1.5,0.672,1.5,1.5S38.328,32,37.5,32z M38.5,23c-0.828,0-1.5-0.672-1.5-1.5s0.672-1.5,1.5-1.5   s1.5,0.672,1.5,1.5S39.328,23,38.5,23z"/>
  	<path fill="#FFC107" d="M17,43c0,0.553-0.447,1-1,1H9c-0.553,0-1-0.447-1-1v-4c0-0.553,0.447-1,1-1h7c0.553,0,1,0.447,1,1V43z"/>
  </g>
  <g>
  	<path fill="#C98C06" d="M31.19,38.444C31.371,38.183,31.657,38,32,38h6.021c0.306-0.648,0.607-1.317,0.902-2h-6.828   C31.801,36.741,31.497,37.552,31.19,38.444z"/>
  	<path fill="#C98C06" d="M16,38c0.345,0,0.634,0.186,0.813,0.45c-0.297-0.875-0.592-1.688-0.879-2.45H9.076   c0.295,0.683,0.597,1.352,0.902,2H16z"/>
  </g>
</svg>