<svg xmlns="http://www.w3.org/2000/svg" id="icons8" viewBox="0 0 48 48" width="24" height="24">
  <circle style="fill:#4CAF50;" cx="24" cy="24" r="19"/>
  <g>
  	<path style="fill:#FFFFFF;" d="M30,20c2.206,0,4,1.794,4,4s-1.794,4-4,4s-4-1.794-4-4S27.794,20,30,20 M30,16c-4.418,0-8,3.582-8,8   s3.582,8,8,8s8-3.582,8-8S34.418,16,30,16L30,16z"/>
  </g>
  <g>
  	<path style="fill:#FFFFFF;" d="M18,20c2.206,0,4,1.794,4,4s-1.794,4-4,4s-4-1.794-4-4S15.794,20,18,20 M18,16c-4.418,0-8,3.582-8,8   s3.582,8,8,8s8-3.582,8-8S22.418,16,18,16L18,16z"/>
  </g>
</svg>