<?xml version="1.0" encoding="utf-8"?><!-- Generator: Adobe Illustrator 18.1.1, SVG Export Plug-In . SVG Version: 6.00 Build 0)  --><svg xmlns="http://www.w3.org/2000/svg" xmlns:xlink="http://www.w3.org/1999/xlink" version="1.0" id="Layer_1" x="0px" y="0px" viewBox="0 0 48 48" enable-background="new 0 0 48 48" xml:space="preserve" width="48" height="48" style="fill: rgb(52, 73, 94);">
<g>
	<rect x="1" y="38" fill="#FF9800" width="46" height="2"/>
	<rect x="25" y="18" fill="#FF9800" width="4" height="16"/>
	<rect x="31" y="18" fill="#FF9800" width="4" height="16"/>
	<rect x="37" y="18" fill="#FF9800" width="4" height="16"/>
	<rect x="19" y="18" fill="#FF9800" width="4" height="16"/>
	<rect x="13" y="18" fill="#FF9800" width="4" height="16"/>
	<rect x="7" y="18" fill="#FF9800" width="4" height="16"/>
	<polygon fill="#FF9800" points="43,16 5,16 5,13 24,4 43,13  "/>
	<rect x="5" y="34" fill="#FF9800" width="38" height="2"/>
</g>
<g>
	<rect x="25" y="16" fill="#EF6C00" width="4" height="2"/>
	<rect x="31" y="16" fill="#EF6C00" width="4" height="2"/>
	<rect x="37" y="16" fill="#EF6C00" width="4" height="2"/>
	<rect x="19" y="16" fill="#EF6C00" width="4" height="2"/>
	<rect x="13" y="16" fill="#EF6C00" width="4" height="2"/>
	<rect x="7" y="16" fill="#EF6C00" width="4" height="2"/>
	<rect x="3" y="36" fill="#EF6C00" width="42" height="2"/>
	<circle fill="#EF6C00" cx="24" cy="11" r="2"/>
</g>
</svg>