<svg xmlns="http://www.w3.org/2000/svg" id="multipurpose-field" viewBox="0 0 48 48" width="24" height="24" fill="rgb(52, 73, 94)">
  <rect x="4" y="10" fill="#4CAF50" width="40" height="28"/>
  <g>
  	<rect x="23" y="10" fill="#A5D6A7" width="2" height="28"/>
  	<g>
  		<path fill="#A5D6A7" d="M24,16c-4.4,0-8,3.6-8,8s3.6,8,8,8s8-3.6,8-8S28.4,16,24,16z M24,30c-3.3,0-6-2.7-6-6s2.7-6,6-6s6,2.7,6,6    S27.3,30,24,30z"/>
  		<polygon fill="#A5D6A7" points="44,19 44,17 37,17 37,31 44,31 44,29 39,29 39,19   "/>
  		<polygon fill="#A5D6A7" points="4,19 9,19 9,29 4,29 4,31 11,31 11,17 4,17   "/>
  	</g>
  </g>
</svg>