<svg xmlns="http://www.w3.org/2000/svg" id="museum" width="24" height="24" viewBox="0 0 48 48" fill="rgb(52, 73, 94)">
	<rect x="9" y="20.999" fill="#805A26" width="30" height="15"/>
	<g>
		<rect x="3" y="39" fill="#E89419" width="42" height="2"/>
		<rect x="7" y="35" fill="#E89419" width="34" height="2"/>
		<rect x="8" y="17.999" fill="#E89419" width="32" height="4"/>
		<polygon fill="#E89419" points="42,16.999 24,8.999 6,17 6,19 42,19  "/>
	</g>
	<g>
		<rect x="14" y="21.999" fill="#FFB74D" width="2" height="13"/>
		<rect x="20" y="21.999" fill="#FFB74D" width="2" height="13"/>
		<rect x="26" y="21.999" fill="#FFB74D" width="2" height="13"/>
		<rect x="32" y="22" fill="#FFB74D" width="2" height="13"/>
		<circle fill="#FFB74D" cx="16" cy="22.999" r="1"/>
		<circle fill="#FFB74D" cx="22" cy="22.999" r="1"/>
		<circle fill="#FFB74D" cx="14" cy="23" r="1"/>
		<rect x="8" y="22" fill="#FFB74D" width="2" height="13"/>
		<circle fill="#FFB74D" cx="10" cy="23" r="1"/>
		<circle fill="#FFB74D" cx="8" cy="23.001" r="1"/>
		<circle fill="#FFB74D" cx="20" cy="23" r="1"/>
		<circle fill="#FFB74D" cx="28" cy="23" r="1"/>
		<circle fill="#FFB74D" cx="26" cy="22.999" r="1"/>
		<circle fill="#FFB74D" cx="34" cy="23.001" r="1"/>
		<circle fill="#FFB74D" cx="32" cy="23" r="1"/>
		<rect x="38" y="22" fill="#FFB74D" width="2" height="13"/>
		<circle fill="#FFB74D" cx="40" cy="23.001" r="1"/>
		<circle fill="#FFB74D" cx="38" cy="23" r="1"/>
		<path fill="#FFB74D" d="M24,11.21L38,17H10L24,11.21 M24,8.999L6,17v2h36v-2.001L24,8.999L24,8.999z"/>
		<rect x="10" y="37" fill="#FFB74D" width="28" height="2"/>
	</g>
	<g>
		<rect x="7" y="35" fill="#C97911" width="4" height="2"/>
		<rect x="5" y="37" fill="#C97911" width="5" height="2"/>
		<rect x="3" y="39" fill="#C97911" width="6" height="2"/>
		<rect x="37" y="35" fill="#C97911" width="4" height="2"/>
		<rect x="38" y="37.001" fill="#C97911" width="5" height="2"/>
		<rect x="39" y="39" fill="#C97911" width="6" height="2"/>
		<circle fill="#C97911" cx="24" cy="8" r="1"/>
	</g>
</svg>