<svg id="park-marker" width="48" height="48" viewBox="0 0 512 512" xmlns="http://www.w3.org/2000/svg">
  <path fill="transparent" d=" M 0.00 0.00 L 512.00 0.00 L 512.00 512.00 L 0.00 512.00 L 0.00 0.00 Z" />
  <path fill="#669834" d=" M 250.15 17.27 C 283.73 15.48 317.79 23.43 347.01 40.09 C 376.34 56.64 400.79 81.71 416.60 111.44 C 430.15 136.69 437.36 165.28 437.53 193.93 C 437.86 228.98 430.36 263.86 417.20 296.28 C 400.14 338.85 374.94 377.67 346.64 413.58 C 322.97 443.03 297.09 470.73 269.04 496.06 C 266.30 498.41 263.74 500.98 260.83 503.13 C 259.53 504.14 257.73 503.33 256.77 502.26 C 228.52 477.56 202.48 450.37 178.58 421.45 C 153.56 390.87 130.95 358.10 113.38 322.63 C 96.75 289.02 84.63 252.66 82.05 215.06 C 80.05 191.90 81.66 168.29 88.22 145.93 C 99.21 107.29 123.89 72.78 156.72 49.68 C 183.95 30.30 216.77 18.94 250.15 17.27 Z" />
  <path fill="#F8F2E4" d=" M 245.11 59.19 C 271.98 56.40 299.67 61.71 323.46 74.57 C 349.74 88.56 371.17 111.43 383.39 138.59 C 394.80 163.51 398.19 191.93 393.37 218.88 C 388.32 247.35 373.81 274.01 352.77 293.82 C 330.68 314.73 301.43 328.03 271.08 330.48 C 242.75 333.04 213.65 326.41 189.30 311.68 C 164.09 296.68 143.98 273.27 132.98 246.06 C 122.30 220.07 120.17 190.74 126.58 163.41 C 132.63 137.65 146.40 113.78 165.73 95.70 C 187.17 75.18 215.59 62.20 245.11 59.19 Z" />
  <path fill="#669834" d=" M 255.74 105.35 C 265.50 96.76 281.33 96.28 291.35 104.70 C 296.86 109.08 300.19 115.90 300.55 122.90 C 305.07 123.36 309.63 124.76 313.09 127.83 C 318.54 132.99 322.59 139.97 322.64 147.66 C 328.72 148.07 334.64 150.64 338.76 155.19 C 345.11 161.83 346.86 172.46 342.83 180.74 C 341.69 183.45 339.60 185.57 337.94 187.94 C 336.63 190.71 335.63 193.64 334.00 196.25 C 336.09 200.87 337.19 206.03 336.06 211.06 C 334.38 220.66 325.73 228.45 316.00 229.13 C 310.65 229.80 305.36 227.98 300.92 225.10 C 291.12 229.64 278.57 226.31 272.52 217.33 C 271.80 217.06 270.36 216.52 269.64 216.26 C 269.66 230.16 269.63 244.06 269.66 257.96 C 269.70 265.46 271.90 272.98 276.34 279.07 C 262.38 279.07 248.43 279.10 234.47 279.07 C 243.82 269.28 246.34 255.28 248.60 242.43 C 249.17 232.94 248.61 223.40 248.94 213.88 C 246.98 219.90 243.17 225.42 237.63 228.64 C 229.61 233.63 218.77 233.28 211.01 227.96 C 208.75 226.37 206.90 223.94 203.93 223.73 C 196.05 222.10 189.80 215.27 188.29 207.45 C 182.92 204.38 178.33 199.80 176.01 194.00 C 171.98 184.80 173.34 173.42 179.65 165.57 C 182.13 162.62 183.07 158.67 185.81 155.91 C 188.39 152.94 191.93 151.06 195.57 149.70 C 191.99 141.81 193.65 131.89 199.83 125.76 C 205.41 119.83 214.36 117.94 222.07 120.24 C 224.07 114.45 228.09 109.34 233.55 106.47 C 240.30 102.80 248.62 102.60 255.74 105.35 Z" />
</svg>
