<svg id="park-marker" viewBox="0 0 512 512" height="48" width="48" xmlns="http://www.w3.org/2000/svg">

  <path fill="transparent" d=" M 0.00 0.00 L 512.00 0.00 L 512.00 512.00 L 0.00 512.00 L 0.00 0.00 Z" />
  <path fill="#7CB33C" d=" M 250.15 17.27 C 283.73 15.48 317.79 23.43 347.01 40.09 C 376.34 56.64 400.79 81.71 416.60 111.44 C 430.15 136.69 437.36 165.28 437.53 193.93 C 437.86 228.98 430.36 263.86 417.20 296.28 C 400.14 338.85 374.94 377.67 346.64 413.58 C 322.97 443.03 297.09 470.73 269.04 496.06 C 266.30 498.41 263.74 500.98 260.83 503.13 C 259.53 504.14 257.73 503.33 256.77 502.26 C 228.52 477.56 202.48 450.37 178.58 421.45 C 153.56 390.87 130.95 358.10 113.38 322.63 C 96.75 289.02 84.63 252.66 82.05 215.06 C 80.05 191.90 81.66 168.29 88.22 145.93 C 99.21 107.29 123.89 72.78 156.72 49.68 C 183.95 30.30 216.77 18.94 250.15 17.27 Z" />
  <path fill="#F8F2E4" d=" M 245.11 59.19 C 271.98 56.40 299.67 61.71 323.46 74.57 C 349.74 88.56 371.17 111.43 383.39 138.59 C 394.80 163.51 398.19 191.93 393.37 218.88 C 388.32 247.35 373.81 274.01 352.77 293.82 C 330.68 314.73 301.43 328.03 271.08 330.48 C 242.75 333.04 213.65 326.41 189.30 311.68 C 164.09 296.68 143.98 273.27 132.98 246.06 C 122.30 220.07 120.17 190.74 126.58 163.41 C 132.63 137.65 146.40 113.78 165.73 95.70 C 187.17 75.18 215.59 62.20 245.11 59.19 Z" />

  <g id="tree" fill="rgb(52, 73, 94)" transform="scale(5.5, 5.5) translate(23, 11)">
    <line fill="none" stroke="#795548" stroke-width="4" x1="24" y1="42" x2="24" y2="30"/>
    <path fill="#795548" d="M28,43h-8c0,0,2-0.999,2-1.999s4-1,4,0S28,43,28,43z"/>
    <circle fill="#8BC34A" cx="22.5" cy="9.5" r="4.5"/>
    <circle fill="#8BC34A" cx="29" cy="28" r="5"/>
    <circle fill="#8BC34A" cx="36" cy="29" r="4"/>
    <circle fill="#8BC34A" cx="32.5" cy="13.5" r="3.5"/>
    <circle fill="#8BC34A" cx="38" cy="22" r="4"/>
    <circle fill="#8BC34A" cx="27.5" cy="11.5" r="3.5"/>
    <circle fill="#8BC34A" cx="35" cy="19" r="4"/>
    <circle fill="#8BC34A" cx="23.5" cy="31.5" r="4.5"/>
    <ellipse fill="#8BC34A" cx="23.5" cy="22" rx="12.5" ry="11.001"/>
    <circle fill="#8BC34A" cx="18" cy="11" r="4"/>
    <circle fill="#8BC34A" cx="13.5" cy="30.5" r="3.5"/>
    <circle fill="#8BC34A" cx="18.5" cy="29.5" r="3.5"/>
    <circle fill="#8BC34A" cx="9.5" cy="27.5" r="3.5"/>
    <circle fill="#8BC34A" cx="12.5" cy="13.5" r="3.5"/>
    <circle fill="#8BC34A" cx="12.5" cy="23.5" r="3.5"/>
    <circle fill="#8BC34A" cx="9.5" cy="17.5" r="3.5"/>
    <path fill="none" stroke="#689F38" stroke-width="2" stroke-linecap="round" stroke-linejoin="round" d="M15,16   c0-1.933,2.067-3,4-3"/>
    <path fill="none" stroke="#689F38" stroke-width="2" stroke-linecap="round" stroke-linejoin="round" d="M31,18   c0-2.209-1.791-4-4-4"/>
    <path fill="none" stroke="#689F38" stroke-width="2" stroke-linecap="round" stroke-linejoin="round" d="M32,27   c1.656,0,3-1.344,3-3"/>
    <path fill="none" stroke="#689F38" stroke-width="2" stroke-linecap="round" stroke-linejoin="round" d="M22,30   c0-1.381,1.619-3,3-3"/>
    <path fill="none" stroke="#689F38" stroke-width="2" stroke-linecap="round" stroke-linejoin="round" d="M21,19   c1.381,0,3,1.619,3,3"/>
    <path fill="none" stroke="#689F38" stroke-width="2" stroke-linecap="round" stroke-linejoin="round" d="M16,28   c-1.934,0-3-2.066-3-4"/>
  </g>
</svg>