<svg viewBox="0 0 500 500" xmlns="http://www.w3.org/2000/svg">
  <path fill="transparent" d=" M 0.00 0.00 L 500.00 0.00 L 500.00 500.00 L 0.00 500.00 L 0.00 0.00 Z" />
  
  <circle cx="250" cy="250" r="250" fill="#366804" />
  <circle cx="250" cy="250" r="210" fill="#669834" fill-opacity='0.5' />
  <circle cx="250" cy="250" r="225" fill="#669834" fill-opacity='0.3' />
  <circle cx="250" cy="250" r="240" fill="#669834" fill-opacity='0.2' />
  <circle cx="250" cy="250" r="200" fill="#669834" />

  <circle cx="375" cy="120" r="125" fill="#A0E11E" />

  <path id="tree" transform="translate(120,-80)" fill="#669834" d=" M 255.74 105.35 C 265.50 96.76 281.33 96.28 291.35 104.70 C 296.86 109.08 300.19 115.90 300.55 122.90 C 305.07 123.36 309.63 124.76 313.09 127.83 C 318.54 132.99 322.59 139.97 322.64 147.66 C 328.72 148.07 334.64 150.64 338.76 155.19 C 345.11 161.83 346.86 172.46 342.83 180.74 C 341.69 183.45 339.60 185.57 337.94 187.94 C 336.63 190.71 335.63 193.64 334.00 196.25 C 336.09 200.87 337.19 206.03 336.06 211.06 C 334.38 220.66 325.73 228.45 316.00 229.13 C 310.65 229.80 305.36 227.98 300.92 225.10 C 291.12 229.64 278.57 226.31 272.52 217.33 C 271.80 217.06 270.36 216.52 269.64 216.26 C 269.66 230.16 269.63 244.06 269.66 257.96 C 269.70 265.46 271.90 272.98 276.34 279.07 C 262.38 279.07 248.43 279.10 234.47 279.07 C 243.82 269.28 246.34 255.28 248.60 242.43 C 249.17 232.94 248.61 223.40 248.94 213.88 C 246.98 219.90 243.17 225.42 237.63 228.64 C 229.61 233.63 218.77 233.28 211.01 227.96 C 208.75 226.37 206.90 223.94 203.93 223.73 C 196.05 222.10 189.80 215.27 188.29 207.45 C 182.92 204.38 178.33 199.80 176.01 194.00 C 171.98 184.80 173.34 173.42 179.65 165.57 C 182.13 162.62 183.07 158.67 185.81 155.91 C 188.39 152.94 191.93 151.06 195.57 149.70 C 191.99 141.81 193.65 131.89 199.83 125.76 C 205.41 119.83 214.36 117.94 222.07 120.24 C 224.07 114.45 228.09 109.34 233.55 106.47 C 240.30 102.80 248.62 102.60 255.74 105.35 Z" />

</svg>