<svg xmlns="http://www.w3.org/2000/svg" width="20" height="20" viewBox="0 0 50 50" fill="rgb(52, 73, 94)">
  <path d="M 10 0 C 6.691 0 4 2.691 4 6 C 4 9.309 6.691 12 10 12 C 13.309 12 16 9.309 16 6 C 16 2.691 13.309 0 10 0 z M 37 0 C 33.691 0 31 2.691 31 6 C 31 9.309 33.691 12 37 12 C 40.309 12 43 9.309 43 6 C 43 2.691 40.309 0 37 0 z M 5.5 13 C 2.467 13 0 15.467 0 18.5 L 0 33 C 0 34.104 0.897 35 2 35 C 3.103 35 4 34.104 4 33 L 4 21 C 4 20.729 4.229 20.5 4.5 20.5 C 4.771 20.5 5 20.729 5 21 L 5 47.3125 C 5 48.8765 5.84125 50 7.40625 50 C 8.88825 50 10 48.8515 10 47.3125 L 10 33.6875 C 10 33.4115 10.224 33.1875 10.5 33.1875 C 10.776 33.1875 11 33.4115 11 33.6875 L 11 42 L 11 44 L 11 47.59375 C 11.004 47.59975 11.02725 47.58775 11.03125 47.59375 C 11.16825 48.97675 12.21175 50 13.59375 50 C 15.15775 50 16 48.8765 16 47.3125 L 16 44 L 16 42 L 16 21 C 16 20.729 16.229 20.5 16.5 20.5 C 16.771 20.5 17 20.729 17 21 L 17 33 C 17 34.104 17.897 35 19 35 C 20.103 35 21 34.104 21 33 L 21 18.5 C 21 15.467 18.533 13 15.5 13 L 5.5 13 z M 32 13 C 30.609 12.906 28.2545 13.89825 27.3125 16.78125 L 23.25 29.375 C 22.907 30.424 23.48325 31.56325 24.53125 31.90625 C 25.58025 32.24825 26.7205 31.676 27.0625 30.625 L 30.125 21.34375 C 30.208 21.08675 30.493 20.94625 30.75 21.03125 C 30.984 21.10725 31.13175 21.35675 31.09375 21.59375 C 31.07575 21.63075 31.04425 21.6475 31.03125 21.6875 L 27.75 31.5 L 26.6875 34.65625 L 26.78125 34.5 C 26.67925 34.988 26.64225 35.57025 27.03125 36.15625 C 27.06825 36.21125 27.1405 36.2655 27.1875 36.3125 C 27.4475 36.5715 27.9785 37 28.6875 37 L 31 37 L 31 47.3125 C 31 48.8765 31.84125 50 33.40625 50 C 34.88725 50 36 48.8515 36 47.3125 L 36 37 L 37 37 L 37 42 L 37 44 L 37 47.59375 C 37.004 47.59975 37.02725 47.58775 37.03125 47.59375 C 37.16725 48.97675 38.21175 50 39.59375 50 C 41.15775 50 42 48.8765 42 47.3125 L 42 44 L 42 42 L 42 37 L 44.3125 37 C 45.0215 37 45.5535 36.5705 45.8125 36.3125 C 45.8595 36.2655 45.9005 36.21025 45.9375 36.15625 C 46.3395 35.55025 46.2975 34.9365 46.1875 34.4375 L 46.3125 34.65625 L 43.65625 26.8125 L 41.9375 21.6875 C 41.9295 21.6645 41.91625 21.647 41.90625 21.625 C 41.84325 21.376 42.001 21.11125 42.25 21.03125 C 42.507 20.94725 42.792 21.08675 42.875 21.34375 L 45.96875 30.625 C 46.31175 31.676 47.42075 32.24925 48.46875 31.90625 C 49.51575 31.56325 50.093 30.424 49.75 29.375 L 45.6875 16.78125 C 44.7455 13.89825 42.391 12.906 41 13 L 40.0625 13 L 32 13 z"/>
</svg>