<svg xmlns="http://www.w3.org/2000/svg" id="skate-park" viewBox="0 0 48 48" width="24" height="24" fill="rgb(52, 73, 94)">
  <path fill="#FFB74D" d="M37,4c2.2,0,4,1.8,4,4s-1.8,4-4,4s-4-1.8-4-4S34.8,4,37,4z"/>
  <path fill="#1976D2" d="M24.6,12.4L23.1,14l4.6-1L24.6,12.4z M37.5,21h-7c-0.5,0-0.9-0.2-1.2-0.6c-0.3-0.4-0.4-0.9-0.2-1.3L30,12  l4,1.2L32.5,18h5c0.8,0,1.5,0.7,1.5,1.5S38.3,21,37.5,21z M16,30H9c-1.1,0-2-0.9-2-2s0.9-2,2-2h6.2l5.1-7.3l4.1,3.7l-7,7  C17,29.8,16.5,30,16,30z"/>
  <path fill="#607D8B" d="M17.5,39c1.4,0,2.5,1.1,2.5,2.5S18.9,44,17.5,44S15,42.9,15,41.5S16.1,39,17.5,39z M30.5,39  c1.4,0,2.5,1.1,2.5,2.5S31.9,44,30.5,44S28,42.9,28,41.5S29.1,39,30.5,39z"/>
  <path fill="#263238" d="M17.5,40.5c0.6,0,1,0.4,1,1s-0.4,1-1,1s-1-0.4-1-1S16.9,40.5,17.5,40.5z M30.5,40.5c0.6,0,1,0.4,1,1  s-0.4,1-1,1s-1-0.4-1-1S29.9,40.5,30.5,40.5z"/>
  <path fill="#2196F3" d="M32.7,10C32,9.3,30.8,9,29.7,9l-8.2,0c-0.3,0-0.5,0.1-0.7,0.2l-7,4c-0.7,0.4-1,1.3-0.6,2  c0.3,0.5,0.8,0.8,1.3,0.8c0.3,0,0.5-0.1,0.7-0.2l6.7-3.8l4.1,0.7l1.7,0.3l-4.6,1l-4,4c-1.4,1.4-1.4,3.6,0,4.9  c0.1,0.1,0.1,0.1,0.2,0.1l0,0l0.2,0.1c0.1,0.1,0.2,0.2,0.3,0.2L26,28v7c0,1.1,0.9,2,2,2s2-0.9,2-2v-8c0-0.6-0.3-1.2-0.8-1.6  l-3.7-3.8L33,15C34.6,13.4,34.1,11.4,32.7,10z"/>
  <path fill="#FF5722" d="M31,39H17c-3.3,0-6.4-2.1-6.6-2.2l1.1-1.7c0,0,2.8,1.8,5.4,1.8h14c0,0,2.8,0,5.4-1.8l1.1,1.7  C34.3,39,31.1,39,31,39z"/>
</svg>