<?xml version="1.0" encoding="utf-8"?><!-- Generator: Adobe Illustrator 19.1.1, SVG Export Plug-In . SVG Version: 6.00 Build 0)  --><svg xmlns="http://www.w3.org/2000/svg" xmlns:xlink="http://www.w3.org/1999/xlink" version="1.1" id="Слой_1" x="0px" y="0px" viewBox="0 0 48 48" enable-background="new 0 0 48 48" xml:space="preserve" width="48" height="48" style="fill: rgb(52, 73, 94);">
<path fill="#FFB74D" d="M36,13c2.8,0,5,2.2,5,5s-2.2,5-5,5s-5-2.2-5-5S33.2,13,36,13z M21.7,11.9c-0.5-0.8-1.6-1.1-2.5-0.7l-11,5  c-1,0.5-1.4,1.6-1,2.6c0.5,1,1.6,1.4,2.6,1l9.5-4.3l2.5,5.8L9,29h16h5h3L21.7,11.9z"/>
<path fill="#1E88E5" d="M44,28c-3,0-4-2-4-2s-1,2-4,2s-4-2-4-2s-1,2-4,2s-4-2-4-2s-1,2-4,2s-4-2-4-2s-1,2-4,2s-4-2-4-2s-1,2-4,2v8h4  h32h4V28z"/>
<path fill="#90CAF9" d="M44,32c-3,0-4-2-4-2s-1,2-4,2s-4-2-4-2s-1,2-4,2s-4-2-4-2s-1,2-4,2s-4-2-4-2s-1,2-4,2s-4-2-4-2s-1,2-4,2v4h4  h32h4V32z"/>
</svg>