<?xml version="1.0" encoding="utf-8"?><!-- Generator: Adobe Illustrator 18.1.1, SVG Export Plug-In . SVG Version: 6.00 Build 0)  --><svg xmlns="http://www.w3.org/2000/svg" xmlns:xlink="http://www.w3.org/1999/xlink" version="1.1" id="Layer_1" x="0px" y="0px" viewBox="0 0 48 48" enable-background="new 0 0 48 48" xml:space="preserve" width="48" height="48" style="fill: rgb(52, 73, 94);">
<path fill="#BF360C" d="M7.9,40.6v-1.4c0-0.2,0-0.3,0-0.5l0.4-3.1c0.3-2.4,0.2-4.9-0.4-7.3l-0.9-3.6c-0.1-0.5-0.1-1.1,0-1.6L8,19.6  c0.6-2.4,0.7-4.8,0.4-7.3L7.9,9.2c0-0.2,0-0.3,0-0.5V7.4C7.9,5.5,9.4,4,11.3,4h0c0.4,0,0.9,0.1,1.3,0.2l0.6,0.2  c2.5,1,5.3,1.1,7.9,0.4l2-0.6c0.7-0.2,1.3-0.2,2,0l0.8,0.3c2.7,0.9,5.7,0.8,8.4-0.2l0.3-0.1C34.9,4.1,35.3,4,35.7,4h1  c1.9,0,3.4,1.5,3.4,3.4v1.4c0,0.2,0,0.3,0,0.5l-0.4,3.1c-0.3,2.4-0.2,4.9,0.4,7.3l0.9,3.6c0.1,0.5,0.1,1.1,0,1.6L40,28.4  c-0.6,2.4-0.7,4.8-0.4,7.3l0.4,3.1c0,0.2,0,0.3,0,0.5v1.4c0,1.9-1.5,3.4-3.4,3.4h-1c-0.4,0-0.9-0.1-1.3-0.2l-0.3-0.1  c-2.7-1.1-5.6-1.2-8.4-0.2L25,43.7c-0.6,0.2-1.3,0.2-2,0l-2-0.6c-2.6-0.7-5.4-0.6-7.9,0.4l-0.6,0.2c-0.4,0.2-0.8,0.2-1.3,0.2h0  C9.4,44,7.9,42.5,7.9,40.6z"/>
<path fill="#3E2723" d="M12,38V10c0-0.6,0.4-1,1-1h22c0.6,0,1,0.4,1,1v28c0,0.6-0.4,1-1,1H13C12.4,39,12,38.6,12,38z"/>
<rect x="20" y="20.5" fill="#BF360C" width="8" height="10.5"/>
<path fill="#536DFE" d="M26.6,30h-5.3c-3.1,0-5.6,2.3-6,5.3L15,39h18l-0.4-3.7C32.3,32.3,29.7,30,26.6,30z"/>
<path fill="#3F51B5" d="M21.6,34.5L24,35l2.4-0.5c1.4-0.3,2.3-1.7,1.9-3L28,30.2c-0.4-0.1-0.9-0.2-1.4-0.2h-5.3  c-0.5,0-0.9,0.1-1.4,0.2l-0.3,1.3C19.3,32.8,20.2,34.2,21.6,34.5z"/>
<path fill="#FF9800" d="M24,32.5c-1.7,0-2.5-2.5-2.5-2.5v-3.8h5V30C26.5,30,25.7,32.5,24,32.5z"/>
<path fill="#FFB74D" d="M28.5,20c0-3.8-9-2.5-9,0c0,0.5,0,4,0,4.5c0,2.5,2,4.5,4.5,4.5s4.5-2,4.5-4.5C28.5,24,28.5,20.5,28.5,20z"/>
<path fill="#FF5722" d="M24,14.1c-3.2,0-8,1.8-8,11.9v2l4,3v-9l6.1-3.7L28,21v10l4-3.1V25c0-2.1-0.4-9.9-5.9-9.9l-0.5-1.1H24z"/>
<path fill="#FFB74D" d="M24,35c0,0-2.5-2.5-2.5-5c0,0,0.7,1,2.5,1s2.5-1,2.5-1C26.5,33,24,35,24,35z"/>
<circle fill="#784719" cx="26" cy="23.5" r="0.5"/>
<circle fill="#784719" cx="22" cy="23.5" r="0.5"/>
</svg>