<?xml version="1.0" encoding="utf-8"?><!-- Generator: Adobe Illustrator 19.1.1, SVG Export Plug-In . SVG Version: 6.00 Build 0)  --><svg xmlns="http://www.w3.org/2000/svg" xmlns:xlink="http://www.w3.org/1999/xlink" version="1.1" id="Слой_1" x="0px" y="0px" viewBox="0 0 48 48" enable-background="new 0 0 48 48" xml:space="preserve" width="48" height="48" style="fill: rgb(52, 73, 94);">
<path fill="#00897B" d="M41.7,16.4C41.1,16,35.5,12,35.5,12s-1.4,3.8-5.7,2.9C25.4,14,25.7,10,25.7,10s-6.8,1.4-7.5,1.5  c-1.8,0.4-5.5,7-5.5,7l4.6,2.5l1.7-2.4l-4,19.6L34,42l4.3-19.2L39,25h5C44,25,43.2,17.5,41.7,16.4z M16,5c0,0,2.4,1,5,1s5-1,5-1v5  H16L16,5z"/>
<path fill="#80CBC4" d="M33,8c-0.6-0.3-7-3-7-3s-0.6,4-5,4s-5-4-5-4S9.6,7.7,9,8c-1.7,0.8-4,8-4,8l5,1.5l1-2.5v20h20V15l1,2.5l5-1.5  C37,16,34.7,8.8,33,8z"/>
<path fill="#00695C" d="M39.5,17.3l-0.6-1.9c-0.1-0.5-0.3-0.9-0.4-1.3c-1.3-0.9-2.6-1.8-2.9-2.1C36.4,14,37,16,37,16l-5,1.5L31,15  c0,0,0,0,0,0v20H15.6l-0.4,2H31h2v-2V19.3l4.6-1.4L39.5,17.3z M19.6,19.5h1.2c1,0,1.4-0.5,1.4-1.4c0-0.4-0.1-0.6-0.3-0.9  c-0.2-0.2-0.5-0.3-1-0.3c-0.3,0-0.6,0.1-0.9,0.3c-0.3,0.2-0.4,0.4-0.4,0.7h-2.5c0-0.6,0.2-1.1,0.5-1.5s0.8-0.8,1.3-1  c0.6-0.2,1.2-0.4,1.9-0.4c1.2,0,2.2,0.3,2.9,0.8c0.7,0.5,1.1,1.3,1.1,2.2c0,0.5-0.1,0.9-0.4,1.3s-0.7,0.7-1.3,1  c0.6,0.2,1,0.5,1.4,0.9c0.3,0.4,0.5,0.9,0.5,1.6c0,1-0.4,1.7-1.1,2.3c-0.8,0.6-1.7,0.9-3,0.9c-0.7,0-1.4-0.1-2-0.4  c-0.6-0.3-1.1-0.6-1.4-1.1s-0.5-1-0.5-1.6h2.6c0,0.3,0.1,0.6,0.4,0.9c0.3,0.2,0.6,0.4,1,0.4c0.4,0,0.8-0.1,1.1-0.4  c0.3-0.2,0.4-0.6,0.4-0.9c0-0.5-0.1-0.9-0.4-1.1c-0.3-0.2-0.7-0.3-1.1-0.3h-1.2C19.6,21.3,19.6,19.5,19.6,19.5z"/>
<path fill="#E0F2F1" d="M36.3,14.1c-0.2-0.6-0.4-1.2-0.7-1.8l-5.1,1.5l0.7,1.8L36.3,14.1z M5.7,14.1c0.2-0.6,0.4-1.2,0.7-1.8  l5.1,1.5l-0.7,1.8L5.7,14.1z M11,31h20v2H11V31z"/>
</svg>