<svg xmlns="http://www.w3.org/2000/svg" id="summer-camp" width="48" height="48" viewBox="0 0 48 48" fill="rgb(52, 73, 94)">
  <path fill="#FFC107" d="M0,34C0,34,7.012,9,24,9c17,0,24,22,24,22l-17,8L0,34z"/>
  <g>
  	<path fill="#FFA000" d="M0,34l1.95,0.314l0.01-0.034C2.028,34.047,8.925,11,24,11c15.085,0,21.983,20.113,22.052,20.316l0.173,0.52   L48,31c0,0-7.083-21.998-23.908-21.998C7.083,9.002,0,34,0,34z"/>
  	<path fill="#FFA000" d="M23.707,9.293l-1.414,1.414C27.743,16.157,31,29.372,31,39l1.981-0.933   C32.788,28.255,29.558,15.144,23.707,9.293z"/>
  </g>
  <path fill="#607D8B" d="M46.113,26.424l-15.241,7.285L1.72,29.204C0.552,32.033,0,34,0,34l31,5l17-8  C48,31,47.438,29.019,46.113,26.424z"/>
  <path fill="#37474F" d="M22.998,37.709C22.97,32.316,22.893,21,16.953,21c-5.258,0-7.689,9.576-8.577,14.352L22.998,37.709z"/>
  <g>
  	<path fill="#455A64" d="M1.96,34.28c0.02-0.067,0.605-2.02,1.783-4.764l-2.022-0.313c-0.01,0.024-0.019,0.048-0.029,0.071   C0.969,30.844,0,34,0,34l1.95,0.314L1.96,34.28z"/>
  	<path fill="#455A64" d="M44.326,27.277c1.141,2.334,1.706,3.981,1.726,4.039l0.173,0.52L48,31c0,0-0.604-1.896-1.887-4.576   L44.326,27.277z"/>
  	<path fill="#455A64" d="M32.632,32.881l-1.76,0.828l-0.171-0.026C30.895,35.523,31,37.318,31,39l1.981-0.933   C32.949,36.412,32.836,34.672,32.632,32.881z"/>
  </g>
</svg>