<svg xmlns="http://www.w3.org/2000/svg" id="gym" viewBox="0 0 48 48" width="24" height="24" fill="rgb(52, 73, 94)">
  <rect y="22" fill="#90A4AE" width="48" height="4"/>
  <path fill="#BF360C" d="M42,34c0,0.6-0.4,1-1,1h-3c-0.6,0-1-0.4-1-1V14c0-0.6,0.4-1,1-1h3c0.6,0,1,0.4,1,1V34z M6,34  c0,0.6,0.4,1,1,1h3c0.6,0,1-0.4,1-1V14c0-0.6-0.4-1-1-1H7c-0.6,0-1,0.4-1,1V34z"/>
  <path fill="#FF5722" d="M37,38c0,0.6-0.4,1-1,1h-3c-0.6,0-1-0.4-1-1V10c0-0.6,0.4-1,1-1h3c0.6,0,1,0.4,1,1V38z M11,38  c0,0.6,0.4,1,1,1h3c0.6,0,1-0.4,1-1V10c0-0.6-0.4-1-1-1h-3c-0.6,0-1,0.4-1,1V38z"/>
  <path fill="#607D8B" d="M2,22h2v4H2V22z M44,22h2v4h-2V22z"/>
</svg>