<svg xmlns="http://www.w3.org/2000/svg" id="handball" viewBox="0 0 48 48" width="24" height="24" fill="rgb(52, 73, 94)">
  <path fill="#FFB74D" d="M30.5,6C32.4,6,34,7.6,34,9.5S32.4,13,30.5,13c-1.9,0-3.5-1.6-3.5-3.5S28.6,6,30.5,6z"/>
  <path fill="#455A64" d="M18,4c1.7,0,3,1.3,3,3s-1.3,3-3,3c-1.7,0-3-1.3-3-3S16.3,4,18,4z"/>
  <path fill="#2196F3" d="M36.9,22.4c-0.1-0.3-0.2-0.5-0.5-0.7l-4.8-5c-0.2-0.1-0.4-0.2-0.6-0.3c-0.1,0-0.1-0.1-0.2-0.1l-6.3-3.1  C24.3,13,24,13,23.6,13c0,0-0.1,0-0.1,0h-5.3l-3.6-4.4c-0.5-0.6-1.5-0.8-2.1-0.2c-0.6,0.5-0.8,1.5-0.2,2.1l4,5  c0.3,0.4,0.7,0.6,1.2,0.6l3.5,0.5L18,24l-3.3,7.8c-0.4,0.7-0.1,1.6,0.7,2c0.2,0.1,0.4,0.2,0.7,0.2c0.5,0,1.1-0.3,1.3-0.8l5.1-7.1  l-5.8,15.8c-0.3,0.8,0,1.6,0.8,2C17.6,44,17.8,44,18,44c0.6,0,1.1-0.3,1.4-0.9L27,27l0,0l3.6-5.9l3.2,2.4L32.1,28  c-0.3,0.8,0.2,1.6,0.9,1.9c0.8,0.3,1.6-0.2,1.9-0.9l2-5.6C37,23.1,37,22.7,36.9,22.4z M22.5,26C22.5,25.9,22.5,25.9,22.5,26  C22.5,25.9,22.5,25.9,22.5,26L22.5,26z"/>
</svg>