<svg xmlns="http://www.w3.org/2000/svg" id="kiddie-boats" width="24" height="24" viewBox="0 0 48 48" fill="rgb(52, 73, 94)">
  <path fill="#FF3D00" d="M33,37c-2.383,0-21,0-21,0l-6-6v-3h36C42,28,36,37,33,37z"/>
  <path fill="#FFAB91" d="M40.581,30H6v1l1,1h32.032C39.605,31.291,40.135,30.604,40.581,30z"/>
  <path fill="#90CAF9" d="M44,36c-3,0-4-2-4-2s-1,2-4,2s-4-2-4-2s-1,2-4,2s-4-2-4-2s-1,2-4,2s-4-2-4-2s-1,2-4,2s-4-2-4-2s-1,2-4,2v8h4  h32h4V36z"/>
  <path fill="#2196F3" d="M44,40c-3,0-4-2-4-2s-1,2-4,2s-4-2-4-2s-1,2-4,2s-4-2-4-2s-1,2-4,2s-4-2-4-2s-1,2-4,2s-4-2-4-2s-1,2-4,2v4h4  h32h4V40z"/>
  <rect x="22" y="3" fill="#795548" width="2" height="25"/>
  <g>
  	<polygon fill="#BBDEFB" points="40,25 24,26 24,6  "/>
  	<polygon fill="#BBDEFB" points="6,23 20,26 20,5  "/>
  </g>
</svg>