<svg xmlns="http://www.w3.org/2000/svg" id="playground" viewBox="0 0 48 48" width="24" height="24" fill="rgb(52, 73, 94)">
  <path fill="#FF3D00" d="M41,42h-3V10l-28,0v32H7V10c0-1.7,1.4-3,3-3H38c1.7,0,3,1.3,3,3V42z"/>
  <path fill="#7986CB" d="M15.9,6h2.3C18.6,6,19,6.4,19,6.9v3.3c0,0.5-0.4,0.9-0.9,0.9h-2.3c-0.5,0-0.9-0.4-0.9-0.9V6.9  C15,6.4,15.4,6,15.9,6z M29,6.9v3.3c0,0.5,0.4,0.9,0.9,0.9h2.3c0.5,0,0.9-0.4,0.9-0.9V6.9C33,6.4,32.6,6,32.1,6h-2.3  C29.4,6,29,6.4,29,6.9z"/>
  <path fill="#DD2C00" d="M6,42v-0.6C6,40.6,6.6,40,7.4,40h2.1c0.8,0,1.4,0.6,1.4,1.4V42H6z M42,42v-0.6c0-0.8-0.6-1.4-1.4-1.4h-2.1  c-0.8,0-1.4,0.6-1.4,1.4V42H42z"/>
  <path fill="#455A64" d="M24,37c-5.3,0-7.7-1.7-8-2v-2.7c0-0.6,0.6-1,1.1-0.7c1.5,0.6,4.1,1.4,6.9,1.4c2.8,0,5.4-0.5,6.9-1.2  c0.5-0.2,1.1,0.1,1.1,0.7V35C31.7,35.3,29.3,37,24,37z"/>
  <path fill="#9FA8DA" d="M18,12c0,0.6-0.4,1-1,1s-1-0.4-1-1s0.4-1,1-1S18,11.4,18,12z M17,13c-0.6,0-1,0.4-1,1s0.4,1,1,1s1-0.4,1-1  S17.6,13,17,13z M17,15c-0.6,0-1,0.4-1,1c0,0.6,0.4,1,1,1s1-0.4,1-1C18,15.4,17.6,15,17,15z M17,17c-0.6,0-1,0.4-1,1s0.4,1,1,1  s1-0.4,1-1S17.6,17,17,17z M17,19c-0.6,0-1,0.4-1,1s0.4,1,1,1s1-0.4,1-1S17.6,19,17,19z M17,21c-0.6,0-1,0.4-1,1s0.4,1,1,1  s1-0.4,1-1S17.6,21,17,21z M17,23c-0.6,0-1,0.4-1,1s0.4,1,1,1s1-0.4,1-1S17.6,23,17,23z M17,25c-0.6,0-1,0.4-1,1s0.4,1,1,1  s1-0.4,1-1S17.6,25,17,25z M17,27c-0.6,0-1,0.4-1,1s0.4,1,1,1s1-0.4,1-1S17.6,27,17,27z M31,11c-0.6,0-1,0.4-1,1s0.4,1,1,1  s1-0.4,1-1S31.6,11,31,11z M31,13c-0.6,0-1,0.4-1,1s0.4,1,1,1s1-0.4,1-1S31.6,13,31,13z M31,15c-0.6,0-1,0.4-1,1c0,0.6,0.4,1,1,1  s1-0.4,1-1C32,15.4,31.6,15,31,15z M31,17c-0.6,0-1,0.4-1,1s0.4,1,1,1s1-0.4,1-1S31.6,17,31,17z M31,19c-0.6,0-1,0.4-1,1s0.4,1,1,1  s1-0.4,1-1S31.6,19,31,19z M31,21c-0.6,0-1,0.4-1,1s0.4,1,1,1s1-0.4,1-1S31.6,21,31,21z M31,23c-0.6,0-1,0.4-1,1s0.4,1,1,1  s1-0.4,1-1S31.6,23,31,23z M31,25c-0.6,0-1,0.4-1,1s0.4,1,1,1s1-0.4,1-1S31.6,25,31,25z M31,27c-0.6,0-1,0.4-1,1s0.4,1,1,1  s1-0.4,1-1S31.6,27,31,27z M17,29c-0.6,0-1,0.4-1,1s0.4,1,1,1s1-0.4,1-1S17.6,29,17,29z M31,29c-0.6,0-1,0.4-1,1s0.4,1,1,1  s1-0.4,1-1S31.6,29,31,29z M17,31c-0.6,0-1,0.4-1,1s0.4,1,1,1s1-0.4,1-1S17.6,31,17,31z M31,31c-0.6,0-1,0.4-1,1s0.4,1,1,1  s1-0.4,1-1S31.6,31,31,31z"/>
</svg>