<svg xmlns="http://www.w3.org/2000/svg" id="train" width="24" height="24" viewBox="0 0 48 48">
	<g>
		<rect x="2" y="8" fill="#FFC107" width="16" height="12"/>
		<rect x="35" y="24" fill="#FFC107" width="5" height="6"/>
		<path fill="#FFC107" d="M20,9V8c0-1.104-0.896-2-2-2H4C2.896,6,2,6.896,2,8v1H20z"/>
		<path fill="#FFC107" d="M25,20v-4c0-0.885-0.716-1.601-1.6-1.601h-0.8c-0.884,0-1.6,0.716-1.6,1.601v4H25z"/>
	</g>
	<path fill="#2E7D32" d="M36,35H2V20h34c0,0,2,1.875,2,7.5S36,35,36,35z"/>
	<path fill="#0A3A0C" d="M9,28c2.456,0,4.613,1.268,5.862,3.182C14.315,32.343,14,33.634,14,35h4c0-1.366-0.315-2.657-0.862-3.818  C18.387,29.268,20.544,28,23,28c3.865,0,7,3.135,7,7h2c0-4.963-4.037-9-9-9c-2.826,0-5.349,1.312-7,3.355  C14.349,27.312,11.826,26,9,26s-5.349,1.312-7,3.355V35C2,31.135,5.134,28,9,28z"/>
	<g>
		<rect x="29" y="17" fill="#795548" width="5" height="3"/>
		<polygon fill="#795548" points="37,11 34,17 29,17 26,11 26,8 37,8  "/>
	</g>
	<rect x="4" y="9" fill="#795548" width="12" height="6"/>
	<g>
		<circle fill="#FF3D00" cx="23" cy="35" r="7"/>
		<polygon fill="#FF3D00" points="46,41 35,41 35,29 40,29  "/>
		<circle fill="#FF3D00" cx="9" cy="35" r="7"/>
	</g>
	<g>
		<path fill="#6D0A00" d="M25.772,39.159L23,35v0.001l0.98,4.9C24.632,39.771,25.238,39.516,25.772,39.159z"/>
		<path fill="#6D0A00" d="M22.02,39.901l0.98-4.9l-2.772,4.157C20.762,39.516,21.368,39.771,22.02,39.901z"/>
		<path fill="#6D0A00" d="M25.773,30.842c-0.534-0.357-1.141-0.613-1.793-0.743L23,35h0L25.773,30.842z"/>
		<path fill="#6D0A00" d="M18.099,34.02L23,35l-4.159-2.772C18.485,32.762,18.229,33.367,18.099,34.02z"/>
		<path fill="#6D0A00" d="M23,35l4.901-0.98c-0.13-0.651-0.386-1.258-0.742-1.792L23,35z"/>
		<path fill="#6D0A00" d="M27.901,35.98L23,35l0,0l4.158,2.773C27.516,37.239,27.771,36.633,27.901,35.98z"/>
		<path fill="#6D0A00" d="M18.841,37.772L23,35l0,0l-4.901,0.98C18.229,36.633,18.485,37.238,18.841,37.772z"/>
		<path fill="#6D0A00" d="M23,35l-0.98-4.901c-0.652,0.13-1.258,0.386-1.792,0.743L23,35z"/>
		<path fill="#6D0A00" d="M11.772,39.159L9,35v0.001l0.98,4.9C10.632,39.771,11.238,39.516,11.772,39.159z"/>
		<path fill="#6D0A00" d="M8.02,39.901l0.98-4.9l-2.772,4.157C6.762,39.516,7.368,39.771,8.02,39.901z"/>
		<path fill="#6D0A00" d="M11.773,30.842c-0.534-0.357-1.14-0.613-1.792-0.743L9,35h0L11.773,30.842z"/>
		<path fill="#6D0A00" d="M4.841,37.772L9,35l0,0l-4.901,0.98C4.229,36.633,4.485,37.238,4.841,37.772z"/>
		<path fill="#6D0A00" d="M9,35L9,35l4.158,2.773c0.357-0.534,0.613-1.141,0.743-1.793L9,35z"/>
		<path fill="#6D0A00" d="M13.159,32.229L9,35l4.901-0.98C13.771,33.368,13.516,32.762,13.159,32.229z"/>
		<path fill="#6D0A00" d="M9,35l-0.98-4.901c-0.652,0.13-1.258,0.386-1.792,0.743L9,35z"/>
		<path fill="#6D0A00" d="M4.099,34.02L9,35l-4.159-2.772C4.485,32.762,4.229,33.367,4.099,34.02z"/>
		<polygon fill="#6D0A00" points="37,39 39,39 37,31  "/>
		<polygon fill="#6D0A00" points="39,31 39,31 41,39 43,39  "/>
	</g>
	<g>
		<circle fill="#FFC107" cx="23" cy="35" r="2"/>
		<circle fill="#FFC107" cx="9" cy="35" r="2"/>
		<line fill="none" stroke="#FFC107" stroke-width="2" stroke-linecap="round" x1="9" y1="34" x2="23" y2="34"/>
	</g>
</svg>