<svg xmlns="http://www.w3.org/2000/svg" id="active-adult-center" viewBox="0 0 48 48" fill="rgb(52, 73, 94)" height="24" width="24">
  <path fill="#4DD0E1" d="M7,21h15v2H7V21z M7,16h20v2H7V16z M7,26h19v2H7V26z"/>
  <path fill="#1976D2" d="M19,43c-0.6,0-1.1-0.2-1.5-0.7c-0.7-0.8-0.7-2.1,0.2-2.8l9-8c0.8-0.7,2.1-0.7,2.8,0.2  c0.7,0.8,0.7,2.1-0.2,2.8l-9,8C19.9,42.8,19.5,43,19,43z"/>
  <path fill="#FFB74D" d="M37,6c2.2,0,4,1.8,4,4s-1.8,4-4,4s-4-1.8-4-4S34.8,6,37,6z"/>
  <path fill="#2196F3" d="M39.5,23H34v-6c0,0,0-0.1,0-0.2c0.1-0.8-0.1-1.7-0.7-2.4c-0.3-0.4-0.6-0.7-1-0.9c0,0,0,0,0,0l-7-4.2  C25,9.1,24.7,9,24.3,9l-7,0c-0.8,0.1-1.4,0.9-1.3,1.7c0.1,0.8,0.9,1.4,1.7,1.3h6.4l3.1,2.6l-6.8,5.1c-1.5,1.2-1.9,3.4-0.7,4.9  c0,0,0.1,0.1,0.1,0.1l4.7,6.3H17c-1.1,0-2,0.9-2,2s0.9,2,2,2h11c0.7,0,1.4-0.4,1.7-1c0.4-0.6,0.3-1.4,0-2l-3.6-7.8l4.3-3.2l0.6,3.6  c0,0.8,0.7,1.5,1.5,1.5h7c0.8,0,1.5-0.7,1.5-1.5S40.3,23,39.5,23z"/>
</svg>