<svg id="boat-ramp" xmlns="http://www.w3.org/2000/svg" width="24" height="24" viewBox="0 0 123.546 123.54">
  <path fill="#6372C3" d="M27.125,24.859l20.797,5.664l11.547-8.008l4.015,0.977l-11.437,8.031l63.039,17.281l-4.616,16.922
    L47.203,48.492c-24.516-7.305-20.047-23.633-20.047-23.633"/>
  <path fill="rgba(0,0,0,0.3)" d="M81.796,68.141c-0.07-1.414-0.344-2.758-0.805-4.023l28.522,7.93l-0.914,3.517L81.796,68.141z"/>
  <path fill="rgba(0,0,0,0.3)" d="M55.891,60.992c0.773-1.125,1.688-2.125,2.727-3.008L11.031,44.852v3.781L55.891,60.992z"/>
  <path fill="#2F41A5" d="M114.109,101.93c-2.258,0-4.406-0.508-6.32-1.391
    c-1.992-0.898-4.211-1.438-6.547-1.438c-2.32,0-4.555,0.539-6.516,1.438c-1.945,0.883-4.094,1.391-6.352,1.391
    s-4.406-0.508-6.345-1.391c-1.977-0.898-4.202-1.438-6.522-1.438c-2.328,0-4.555,0.539-6.539,1.438
    c-1.922,0.883-4.094,1.391-6.336,1.391c-2.25,0-4.406-0.508-6.335-1.391c-1.992-0.898-4.227-1.438-6.547-1.438
    c-2.312,0-4.547,0.539-6.516,1.438c-1.93,0.883-4.102,1.391-6.344,1.391c-2.25,0-4.406-0.508-6.352-1.391
    c-1.961-0.898-4.195-1.438-6.516-1.438s-4.555,0.539-6.531,1.438c-1.93,0.883-4.102,1.391-6.336,1.391l-0.148-37.789l52.04,14.352
    c-3.585-1.734-6.079-5.367-6.079-9.617c0-5.905,4.781-10.695,10.696-10.695c5.891,0,10.688,4.79,10.688,10.695
    c0,5.906-4.797,10.695-10.688,10.695c-0.359,0-0.711-0.078-1.056-0.102l47.431,13.062L114.109,101.93z"/>
  <path fill="#FFF" d="M67.664,73.516c2.562,0,4.633-2.078,4.633-4.641c0-2.563-2.069-4.642-4.633-4.642 c-2.57,0-4.641,2.078-4.641,4.642C63.023,71.438,65.093,73.516,67.664,73.516z"/>
</svg>