<svg width="24" height="24" viewBox="0 0 220 200" id="bocce" xmlns="http://www.w3.org/2000/svg">
  <path fill="#212749" d=" M 40.56 51.73 C 50.95 45.96 63.55 44.74 75.02 47.50 C 93.76 52.04 108.86 68.82 111.01 88.04 C 116.28 74.72 127.15 63.51 140.85 58.97 C 154.44 54.28 170.11 56.06 182.21 63.86 C 184.78 65.44 187.05 67.44 189.56 69.11 C 188.98 69.60 188.40 70.09 187.81 70.59 C 181.82 69.02 175.60 69.34 169.48 69.67 C 165.52 64.77 159.56 60.75 153.01 61.23 C 148.84 61.20 144.75 62.12 140.80 63.38 C 139.92 62.67 139.56 60.82 138.16 61.17 C 137.81 62.38 137.59 63.62 137.51 64.89 C 128.08 69.37 122.22 80.78 125.76 90.91 C 119.31 96.67 114.25 103.81 110.19 111.40 C 110.33 111.75 110.63 112.43 110.77 112.77 C 114.77 105.09 120.19 98.20 126.47 92.25 C 128.75 96.03 131.67 99.76 136.06 101.12 C 142.46 103.81 149.56 102.78 156.06 101.03 C 157.05 102.12 157.57 103.52 158.20 104.83 C 161.52 112.31 165.37 119.57 168.22 127.25 C 162.00 130.57 155.58 134.66 152.42 141.24 C 150.97 143.70 151.54 146.62 151.74 149.31 C 148.87 149.29 146.01 149.31 143.15 149.32 C 143.15 149.68 143.14 150.41 143.14 150.77 C 146.42 150.77 149.70 150.76 152.97 150.67 C 155.18 152.07 157.59 153.10 160.12 153.76 C 146.50 154.71 132.56 149.78 122.89 140.09 C 115.02 132.69 110.36 122.48 108.38 111.96 C 101.38 132.24 79.55 145.66 58.29 143.34 C 65.49 129.32 71.69 114.81 77.75 100.27 C 81.13 102.49 84.53 104.75 87.50 107.52 C 92.25 112.12 95.73 117.88 100.59 122.37 C 99.50 118.28 96.19 115.39 93.72 112.13 C 89.39 106.73 84.32 101.96 78.52 98.16 C 80.24 93.82 81.84 89.43 83.57 85.10 C 92.52 91.16 101.37 98.43 105.40 108.79 C 105.47 107.69 105.96 106.51 105.43 105.46 C 101.32 95.68 92.98 88.54 84.32 82.82 C 85.52 79.33 86.72 75.85 87.91 72.36 C 94.78 77.04 100.32 83.32 105.18 90.01 C 105.40 89.44 105.61 88.87 105.83 88.31 C 101.05 81.48 95.72 74.99 89.06 69.91 C 89.30 65.87 91.67 61.89 90.01 57.85 C 88.91 61.45 87.82 65.06 86.71 68.65 C 83.55 66.89 80.37 65.16 77.26 63.32 C 78.82 60.28 80.57 57.35 82.27 54.39 C 83.00 53.31 81.51 52.60 81.01 51.82 C 78.93 55.27 77.09 58.86 75.22 62.43 C 70.69 60.73 66.09 59.15 61.39 57.99 C 63.15 54.89 65.03 51.87 66.93 48.86 C 66.13 49.00 64.51 49.28 63.71 49.43 C 62.16 52.04 60.69 54.70 59.23 57.36 C 50.99 56.11 41.79 55.48 34.22 59.54 C 38.84 59.84 43.34 58.38 47.96 58.58 C 51.33 58.56 54.65 59.16 57.97 59.69 C 56.35 62.95 54.74 66.21 53.13 69.47 C 42.91 67.27 31.81 67.12 22.20 71.72 C 22.39 72.02 22.77 72.60 22.96 72.89 C 32.09 68.99 42.48 69.67 51.96 71.77 C 50.01 75.97 48.05 80.18 46.13 84.40 C 37.19 82.47 28.00 82.29 18.98 83.77 C 19.09 84.13 19.32 84.87 19.43 85.24 C 28.01 84.12 36.83 84.25 45.22 86.50 C 39.14 100.41 33.62 114.56 28.56 128.88 C 18.35 118.18 13.11 102.82 15.31 88.13 C 17.22 72.87 26.94 58.88 40.56 51.73 Z" />
  <path fill="#212749" d=" M 60.12 60.24 C 64.92 61.02 69.48 62.79 73.96 64.62 C 72.42 68.01 70.91 71.41 69.22 74.72 C 64.61 72.92 59.92 71.34 55.14 70.08 C 56.75 66.77 58.45 63.51 60.12 60.24 Z" />
  <path fill="#212749" d=" M 141.43 65.44 C 149.97 60.86 161.31 62.63 167.44 70.31 C 160.60 72.42 153.60 74.10 147.07 77.09 C 145.31 73.15 143.37 69.29 141.43 65.44 Z" />
  <path fill="#212749" d=" M 76.04 65.73 C 79.45 67.29 82.73 69.12 85.98 70.97 C 84.98 74.59 83.75 78.14 82.47 81.66 C 78.86 79.50 74.97 77.82 71.50 75.43 C 72.56 72.00 74.44 68.91 76.04 65.73 Z" />
  <path fill="#212749" d=" M 128.39 75.57 C 130.63 71.11 134.94 68.26 139.25 66.04 C 141.38 69.98 143.15 74.11 145.37 78.01 C 138.77 81.32 132.52 85.31 126.76 89.93 C 125.76 85.13 125.90 79.91 128.39 75.57 Z" />
  <path fill="#212749" d=" M 189.44 72.48 C 189.91 71.77 190.39 71.05 190.88 70.35 C 199.06 79.63 204.90 91.43 204.79 104.02 C 205.47 115.02 201.19 125.49 195.50 134.66 C 195.54 132.80 195.57 130.94 195.63 129.08 C 197.69 126.90 199.97 124.72 200.63 121.65 C 198.66 123.40 196.88 125.34 195.14 127.31 C 188.46 120.47 177.96 123.54 170.10 126.33 C 166.17 117.45 162.06 108.66 158.01 99.85 C 162.65 97.47 167.16 94.19 169.33 89.29 C 171.88 83.74 172.25 77.33 170.28 71.53 C 176.67 71.04 183.15 71.05 189.44 72.48 Z" />
  <path fill="#212749" d=" M 48.17 84.94 C 50.04 80.68 52.07 76.50 54.02 72.29 C 58.77 73.50 63.42 75.07 67.92 77.03 C 66.21 81.32 64.19 85.47 62.28 89.67 C 57.71 87.74 52.97 86.19 48.17 84.94 Z" />
  <path fill="#212749" d=" M 148.12 78.92 C 154.73 76.23 161.55 74.09 168.52 72.53 C 169.51 77.24 170.06 82.34 168.09 86.89 C 166.11 91.91 161.84 95.54 157.27 98.16 C 154.20 91.76 151.16 85.34 148.12 78.92 Z" />
  <path fill="#212749" d=" M 70.06 78.13 C 74.03 79.80 77.84 81.85 81.63 83.89 C 80.09 88.23 78.67 92.63 76.76 96.82 C 72.51 94.88 68.54 92.38 64.33 90.35 C 66.35 86.33 68.24 82.24 70.06 78.13 Z" />
  <path fill="#212749" d=" M 127.56 91.24 C 133.31 86.77 139.52 82.88 146.15 79.86 C 149.24 86.27 152.32 92.69 155.47 99.08 C 145.88 103.08 132.62 101.27 127.56 91.24 Z" />
  <path fill="#212749" d=" M 47.18 87.03 C 52.06 88.20 56.78 89.96 61.42 91.87 C 54.51 107.26 48.58 123.07 42.56 138.81 C 37.94 136.64 33.70 133.67 29.98 130.19 C 34.75 115.44 40.97 101.22 47.18 87.03 Z" />
  <path fill="#212749" d=" M 63.38 93.02 C 67.81 94.41 71.72 97.04 75.87 99.06 C 70.32 114.05 63.88 128.72 56.62 142.95 C 52.39 142.45 48.29 141.22 44.34 139.67 C 50.09 123.89 56.27 108.23 63.38 93.02 Z" />
  <path fill="#212749" d=" M 170.91 127.82 C 178.16 125.41 187.78 122.65 193.97 128.74 C 189.17 134.06 183.32 138.37 177.02 141.74 C 175.02 137.09 172.78 132.53 170.91 127.82 Z" />
  <path fill="#212749" d=" M 157.07 136.97 C 160.44 133.37 164.78 130.91 169.05 128.55 C 171.09 133.18 173.21 137.77 174.97 142.51 C 168.07 145.24 161.03 147.84 153.68 149.01 C 151.66 144.64 153.98 140.11 157.07 136.97 Z" />
  <path fill="#212749" d=" M 177.64 143.21 C 184.02 140.19 189.36 135.54 194.45 130.74 C 192.85 138.92 186.02 144.74 178.88 148.28 C 178.47 146.59 178.06 144.90 177.64 143.21 Z" />
  <path fill="#212749" d=" M 155.14 150.99 C 162.07 148.72 169.07 146.69 175.90 144.12 C 176.35 145.81 176.79 147.49 177.26 149.18 C 170.46 152.87 162.48 153.08 155.14 150.99 Z" />
</svg>
