<svg xmlns="http://www.w3.org/2000/svg" id="carousel" viewBox="0 0 48 48" width="24" height="24" fill="rgb(52, 73, 94)">
	<rect x="23" y="12" fill="#B0BEC5" width="2" height="26"/>
	<path fill="#FF9800" d="M33,36h-2l-2-3c-1.4-2-3.8-2.3-5-2.3c-3.2,0-4.7,2.3-4.7,2.3l-2,3H15l2.3-4.3l0.7-3.3c0.5-2,1.5-3.4,3.4-3.4  H29l0.5,2.7l1.5,4.1L33,36z"/>
	<g>
		<path fill="#FFC107" d="M24,6c0,0-12,4.1-12,8c0,1.1,1.8,2,4,2s4-0.9,4-2c0-3.2,1.8-3.7,4-3.7s4,4.8,4,3.7c0,1.1,1.8,2,4,2   s4-0.9,4-2C36,9.8,24,6,24,6z"/>
		<rect x="28" y="38" fill="#FFC107" width="8" height="4"/>
		<rect x="12" y="38" fill="#FFC107" width="8" height="4"/>
	</g>
	<path fill="#FF9800" d="M24.1,25.6c4,0,1.8-6.6,8.6-6.6l-0.5,1.1l2.8,3.9L33.5,25l-1.8-1.3c-1.1,0.6-1.8-0.1-1.8-0.1v5.7  C30,29.4,22.7,25.6,24.1,25.6z"/>
	<g>
		<path fill="#EF6C00" d="M25,25c0.7-1.7,1.8-6,7.7-6l-0.5,1.1c0,0-4.5,0-4.5,4.9C27.7,25,26.5,26.5,25,25z"/>
		<path fill="#EF6C00" d="M18.6,26.8c0.2-0.4,0.5-0.7,0.8-1c-1-1-2.1-1.8-3.3-1.8c-1.3,0-3.2,0.8-3.9,3.2l2.4,1.3   C15.8,25.2,17.6,26.1,18.6,26.8z"/>
	</g>
	<g>
		<g>
			<path fill="#FF5722" d="M24,6c0,0,12,5,12,8c0,1.1,1.3,2,3,2s3-0.9,3-2v-1.5c0-0.9-0.6-1.7-1.5-1.9L24,6z"/>
			<path fill="#FF5722" d="M24,6c0,0-12,5-12,8c0,1.1-1.3,2-3,2s-3-0.9-3-2v-1.5c0-0.9,0.6-1.7,1.5-1.9L24,6z"/>
			<path fill="#FF5722" d="M24,6c0,0-4,4-4,8c0,1.1,1.8,2,4,2s4-0.9,4-2C28,10,24,6,24,6z"/>
		</g>
		<g>
			<path fill="#FF5722" d="M8,38c-1.1,0-2,0.9-2,2v2h6v-4H8z"/>
			<rect x="20" y="38" fill="#FF5722" width="8" height="4"/>
			<path fill="#FF5722" d="M40,38h-4v4h6v-2C42,38.9,41.1,38,40,38z"/>
		</g>
	</g>
</svg>