<svg xmlns="http://www.w3.org/2000/svg" id="community-center" viewBox="0 0 48 48" width="48" height="48" fill="rgb(52, 73, 94)">
  <path fill="#FFB74D" d="M36.8,28.2L25.5,16.9L28,15l-2-2H12.5L4,11v16l5.9,1l12,12.2c0.8,0.8,2,0.8,2.8,0l0,0c0.8-0.8,0.8-2,0-2.8  l-0.1-0.1c0,0,0,0,0,0c0,0,0,0,0,0l0,0l0,0c-0.2-0.2-0.2-0.5,0-0.7c0.2-0.2,0.5-0.2,0.7,0l0,0l0,0c0,0,0,0,0,0c0,0,0,0,0,0l0.8,0.8  c0.8,0.8,2,0.8,2.8,0l0,0c0.8-0.8,0.8-2,0-2.8l-0.3-0.3c0,0,0,0,0,0c-0.2-0.2-0.2-0.5,0-0.7c0.2-0.2,0.5-0.2,0.7,0c0,0,0,0,0,0l1,1  c0.8,0.8,2,0.8,2.8,0l0,0c0.8-0.8,0.8-2,0-2.8c0,0-0.3-0.3-0.3-0.3c-0.2-0.2-0.2-0.5,0-0.7c0.2-0.2,0.5-0.2,0.7,0c0,0,0,0,0,0  l0.3,0.3c0.8,0.8,2,0.8,2.8,0l0,0C37.6,30.3,37.6,29,36.8,28.2z"/>
  <path fill="#C77600" d="M27.4,18.9l-4.7,1.8c-2.8,1.1-5.9,0.4-7.9-1.8l0,0c-0.4-0.4-0.3-1.1,0.3-1.4l13.3-6.5   c1.6-0.8,3.5-0.6,4.9,0.4l0.4,0.3c1.1,0.8,2.6,1,3.9,0.7L44,11v16l-5.9,1l-0.8,0.8L27.4,18.9z"/>
  <path fill="#C77600" d="M18,39L18,39c0.8,0.8,2,0.8,2.8,0l0.7-0.7c0.8-0.8,0.8-2,0-2.8l0,0c-0.8-0.8-2-0.8-2.8,0L18,36.2   C17.2,37,17.2,38.2,18,39z"/>
  <path fill="#C77600" d="M15.1,36.2L15.1,36.2c0.8,0.8,2,0.8,2.8,0l0.7-0.7c0.8-0.8,0.8-2,0-2.8l0,0c-0.8-0.8-2-0.8-2.8,0l-0.7,0.7   C14.4,34.1,14.4,35.4,15.1,36.2z"/>
  <path fill="#C77600" d="M12.3,33.4L12.3,33.4c0.8,0.8,2,0.8,2.8,0l0.7-0.7c0.8-0.8,0.8-2,0-2.8l0,0c-0.8-0.8-2-0.8-2.8,0l-0.7,0.7   C11.5,31.3,11.5,32.6,12.3,33.4z"/>
  <path fill="#C77600" d="M9.5,30.5L9.5,30.5c0.8,0.8,2,0.8,2.8,0l0.7-0.7c0.8-0.8,0.8-2,0-2.8l0,0c-0.8-0.8-2-0.8-2.8,0l-0.7,0.7   C8.7,28.5,8.7,29.7,9.5,30.5z"/>
  <path fill="#EBAE55" d="M20.5,37.9L19,36.5l0.4-0.4c0.4-0.4,0.9-0.4,1.3,0l0.1,0.1c0.4,0.4,0.4,0.9,0,1.3L20.5,37.9z"/>
  <path fill="#EBAE55" d="M17.6,35.1l-1.4-1.4l0.4-0.4c0.4-0.4,0.9-0.4,1.3,0l0.1,0.1c0.4,0.4,0.4,0.9,0,1.3L17.6,35.1z"/>
  <path fill="#EBAE55" d="M14.8,32.3l-1.4-1.4l0.4-0.4c0.4-0.4,0.9-0.4,1.3,0l0.1,0.1c0.4,0.4,0.4,0.9,0,1.3L14.8,32.3z"/>
  <path fill="#EBAE55" d="M12,29.5L10.6,28l0.4-0.4c0.4-0.4,0.9-0.4,1.3,0l0.1,0.1c0.4,0.4,0.4,0.9,0,1.3L12,29.5z"/>
</svg>