<svg xmlns="http://www.w3.org/2000/svg" id="dog-park" width="24" height="24" viewBox="0 0 48 48" fill="rgb(52, 73, 94)">
  <path fill="#844419" d="M16,29l-8.4,8.2C8.7,39.1,7,40,7,40s-1.3-1.6-2.5-3c-0.7-0.8-0.7-1.9,0.5-3l7-7l5,2H16z M42,15.1  c0,0-2.1-0.6-3,0.8c0,0,0,0.1,0,0.1l-9.2,1l0.4,4l7.8-1c0,0,1.3,0.1,2-1S42,15.1,42,15.1z M11.9,25.4c0.2-0.5-0.1-1.1-0.6-1.3  c-0.2-0.1-4.4-1.7-4.4-6.2c0-0.6-0.4-1-1-1s-1,0.4-1,1c0,5.9,5,8.2,5.3,8.3c0.1,0,0.7-0.1,0.8-0.1C11.4,26,11.8,25.8,11.9,25.4z   M28,7c0,0-2.7-2.1-5,0c0,0,2,2.1,3,4C30.4,8.9,28,7,28,7z"/>
  <circle fill="#E91E63" cx="42" cy="6" r="2"/>
  <path fill="#CC6C25" d="M43,22c0,0-2.2,2.5-3.1,3.6c-0.8,0.8-2.2,0.2-2.2,0.2l-6.9-2.2c-0.6,0.8-1.5,1.6-2.8,2.4  c-1.9,1.3-5,2.4-8.1,3.1L16,35l-2,6c1.8,0.1,2,2,2,2s-2.9,0.2-4,0c-1.1-0.2-2.4-1.5-2-3l2.6-8.6c-0.3-0.6-0.8-1.4-1.6-2.4  c-2.8-3.5,1-6,1-6s9.7-6.3,12-8c1.5-1.1,1.9-2.9,2-4c0,0,0,0,0,0c4.4-2.1,2-4,2-4s-0.1-0.1-0.2-0.1C28.4,6.5,29.1,6.2,30,6  c2.3-0.6,2.3,1,7,1c2.3,0,0.5,3.9-2,5c-1.7,0.7-4,2.3-4,4c0,0.8,0.8,2.1,1,3.8l7.9,2.3c0,0,0.1-0.2,0.2-0.2C41.7,20.7,43,22,43,22z   M24.5,8.7c1.1-0.9,2.3-1.9,3.3-1.9c-0.2-0.1-0.4-0.2-0.6-0.3c-1-0.5-2.7-0.9-4.2,0.5c0,0-1.6,2.1-0.8,2.9  C22.6,10.3,23.5,9.6,24.5,8.7z"/>
  <path fill="#5D4037" d="M37,7c-0.4,0-0.7,0-1,0v0c0,0,0.5,1.6,1.8,2C38.2,7.9,38.1,7,37,7z"/>
  <path fill="#3E2723" d="M33,8c0,0.6-0.4,1-1,1s-1-1-1-1s0.4-1,1-1S33,7.4,33,8z"/>
</svg>