<svg xmlns="http://www.w3.org/2000/svg" id="environmental-education" viewBox="0 0 48 48" fill="rgb(52, 73, 94)" width="24" height="24">
	<path id="XMLID_549_" fill="#CDDC39" d="M38,17c0-7.8-6.2-14-14-14S10,9.2,10,17c0,8.2,8,10.8,8,16.6V35h12v-1.4  C30,27.8,38,25.2,38,17z"/>
	<path id="XMLID_548_" fill="#388E3C" d="M19.3,8.9c0,0-3.4,7.7-1.9,12.8c1.1,3.6,4.9,4.5,6.6,3.2c0.2,1.5-0.4,2.8-0.9,4.1l3,1.1  c1.9-5.6-1.3-12-3.2-15c4.5,3.2,5.8,8.6,5.8,8.6c0.4-0.2,0.6-0.6,1.1-1.1C32.6,19.2,31.1,11.3,19.3,8.9z"/>
	<path id="XMLID_547_" fill="#388E3C" d="M18,34v5c0,1.9,1.4,3.5,3.2,3.9c0.4,1.2,1.5,2.1,2.8,2.1s2.5-0.9,2.8-2.1  c1.8-0.4,3.2-2,3.2-3.9v-5H18z"/>
	<path id="XMLID_546_" fill="#4CAF50" d="M30,39l-11.6,1.6c0.3,0.7,0.9,1.4,1.6,1.8l9.4-1.3C29.8,40.5,30,39.8,30,39z"/>
	<polygon id="XMLID_545_" fill="#4CAF50" points="18,36.7 18,38.7 30,37 30,35  "/>
</svg>