<svg xmlns="http://www.w3.org/2000/svg" id="hockey" viewBox="0 0 48 48" width="24" height="24" fill="rgb(52, 73, 94)">
  <path fill="#607D8B" d="M7,18v4h0c0,2.8,3.3,5,8.5,5s8.5-2.2,8.5-5h0v-4H7z"/>
  <path fill="#455A64" d="M24,18c0,2.8-3.3,5-8.5,5S7,20.8,7,18s3.3-5,8.5-5S24,15.2,24,18z"/>
  <path fill="#1976D2" d="M9,33c-1,0-3,0.8-3,3v2c0,3,2,5,5,5V33C10.4,33,9.7,33,9,33z M40,5c0,0-6.2,24.6-8,26  c-0.6,0.5-1.5,0.8-3,1.1c0,0,0,0,0,0v8.7C28.4,41,32,40,32,40c4-1,2.9-4.1,11-35H40z"/>
  <path fill="#C5CAE9" d="M29,32.1C29,32.1,29,32.1,29,32.1c-0.6,0.1-1.1,0.2-1.8,0.3c0,0,0,0-0.1,0c-0.2,0-0.5,0.1-0.7,0.1  c0,0,0,0,0,0c-0.8,0.1-1.7,0.1-2.7,0.2c0,0,0,0,0,0c-3,0.2-7.1,0.3-12.7,0.3v10c0.7,0,1.3,0,2,0c0.2,0,0.3,0,0.5,0  c0.6,0,1.3,0,1.9-0.1c0,0,0.1,0,0.1,0c0.6,0,1.2-0.1,1.7-0.1c0.1,0,0.3,0,0.4,0c0.6-0.1,1.2-0.1,1.7-0.2c0.1,0,0.1,0,0.2,0  c0.5-0.1,1-0.1,1.5-0.2c0.1,0,0.2,0,0.4,0c0.5-0.1,1-0.1,1.5-0.2c0.1,0,0.2,0,0.3-0.1c0.4-0.1,0.7-0.1,1.1-0.2  c0.2,0,0.3-0.1,0.5-0.1c0.4-0.1,0.8-0.1,1.1-0.2c0.2,0,0.4-0.1,0.6-0.1c0.2,0,0.3-0.1,0.5-0.1c0.8-0.2,1.5-0.3,2.1-0.5  C29,40.8,29,32.1,29,32.1z"/>
  <path fill="#9FA8DA" d="M14,42.9c1.4-0.1,2.7-0.1,4-0.3v-9.7c-1.2,0-2.6,0-4,0.1V42.9z M22,32.8v9.4c1.5-0.2,2.8-0.4,4-0.7v-9  C24.9,32.6,23.6,32.7,22,32.8z"/>
</svg>