<svg xmlns="http://www.w3.org/2000/svg" viewBox="0 0 104.53333 104.53333" id="picnic-basket">
  <g transform="matrix(1.3333333,0,0,-1.3333333,0,104.53333)" id="g10">
    <g transform="scale(0.1)" id="g12">
      <path style="fill:#875524;fill-opacity:1;fill-rule:nonzero;stroke:none" d="m 67.707,525.328 h 314.414 v 28.3281 H 67.707 Z" />
      <path style="fill:none;stroke:#231f20;stroke-width:10;stroke-linecap:butt;stroke-linejoin:miter;stroke-miterlimit:4;stroke-dasharray:none;stroke-opacity:1" d="m 67.707,525.328 h 314.414 v 28.3281 H 67.707 Z" />
      <path style="fill:#875524;fill-opacity:1;fill-rule:nonzero;stroke:none" d="m 399.715,525.328 h 314.441 v 28.3281 H 399.715 Z" />
      <path style="fill:none;stroke:#231f20;stroke-width:10;stroke-linecap:butt;stroke-linejoin:miter;stroke-miterlimit:4;stroke-dasharray:none;stroke-opacity:1" d="m 399.715,525.328 h 314.441 v 28.3281 H 399.715 Z" />
      <path style="fill:#d39c69;fill-opacity:1;fill-rule:nonzero;stroke:none" d="m 121.25,215.332 h 107.707 v 33.3398 H 121.25 Z" />
      <path style="fill:none;stroke:#231f20;stroke-width:10;stroke-linecap:butt;stroke-linejoin:miter;stroke-miterlimit:4;stroke-dasharray:none;stroke-opacity:1" d="m 121.25,215.332 h 107.707 v 33.3398 H 121.25 Z" />
      <path style="fill:#d39c69;fill-opacity:1;fill-rule:nonzero;stroke:none" d="M 300.871,215.332 H 408.59 v 33.3398 H 300.871 Z" />
      <path style="fill:none;stroke:#231f20;stroke-width:10;stroke-linecap:butt;stroke-linejoin:miter;stroke-miterlimit:4;stroke-dasharray:none;stroke-opacity:1" d="M 300.871,215.332 H 408.59 v 33.3398 H 300.871 Z" />
      <path style="fill:#d39c69;fill-opacity:1;fill-rule:nonzero;stroke:none" d="m 481.422,215.332 h 107.734 v 33.3398 H 481.422 Z" />
      <path style="fill:none;stroke:#231f20;stroke-width:10;stroke-linecap:butt;stroke-linejoin:miter;stroke-miterlimit:4;stroke-dasharray:none;stroke-opacity:1" d="m 481.422,215.332 h 107.734 v 33.3398 H 481.422 Z" />
      <path style="fill:#d39c69;fill-opacity:1;fill-rule:nonzero;stroke:none" d="m 228.957,215.332 h 73.4453 v 33.3398 H 228.957 Z" />
      <path style="fill:none;stroke:#231f20;stroke-width:10;stroke-linecap:butt;stroke-linejoin:miter;stroke-miterlimit:4;stroke-dasharray:none;stroke-opacity:1" d="m 228.957,215.332 h 73.4453 v 33.3398 H 228.957 Z" />
      <path style="fill:#d39c69;fill-opacity:1;fill-rule:nonzero;stroke:none" d="m 407.984,215.332 h 73.4375 v 33.3398 H 407.984 Z" />
      <path style="fill:none;stroke:#231f20;stroke-width:10;stroke-linecap:butt;stroke-linejoin:miter;stroke-miterlimit:4;stroke-dasharray:none;stroke-opacity:1" d="m 407.984,215.332 h 73.4375 v 33.3398 H 407.984 Z" />
      <path style="fill:#d39c69;fill-opacity:1;fill-rule:nonzero;stroke:none" d="m 588.531,215.332 h 73.457 v 33.3398 h -73.457 z" />
      <path style="fill:none;stroke:#231f20;stroke-width:10;stroke-linecap:butt;stroke-linejoin:miter;stroke-miterlimit:4;stroke-dasharray:none;stroke-opacity:1" d="m 588.531,215.332 h 73.457 v 33.3398 h -73.457 z" />
      <path style="fill:#d39c69;fill-opacity:1;fill-rule:nonzero;stroke:none" d="M 300.871,285.332 H 408.59 v 33.3398 H 300.871 Z" />
      <path style="fill:none;stroke:#231f20;stroke-width:10;stroke-linecap:butt;stroke-linejoin:miter;stroke-miterlimit:4;stroke-dasharray:none;stroke-opacity:1" d="M 300.871,285.332 H 408.59 v 33.3398 H 300.871 Z" />
      <path style="fill:#d39c69;fill-opacity:1;fill-rule:nonzero;stroke:none" d="m 481.422,285.332 h 107.734 v 33.3398 H 481.422 Z" />
      <path style="fill:none;stroke:#231f20;stroke-width:10;stroke-linecap:butt;stroke-linejoin:miter;stroke-miterlimit:4;stroke-dasharray:none;stroke-opacity:1" d="m 481.422,285.332 h 107.734 v 33.3398 H 481.422 Z" />
      <path style="fill:#d39c69;fill-opacity:1;fill-rule:nonzero;stroke:none" d="m 228.957,285.332 h 73.4453 v 33.3398 H 228.957 Z" />
      <path style="fill:none;stroke:#231f20;stroke-width:10;stroke-linecap:butt;stroke-linejoin:miter;stroke-miterlimit:4;stroke-dasharray:none;stroke-opacity:1" d="m 228.957,285.332 h 73.4453 v 33.3398 H 228.957 Z" />
      <path style="fill:#d39c69;fill-opacity:1;fill-rule:nonzero;stroke:none" d="m 407.984,285.332 h 73.4375 v 33.3398 H 407.984 Z" />
      <path style="fill:none;stroke:#231f20;stroke-width:10;stroke-linecap:butt;stroke-linejoin:miter;stroke-miterlimit:4;stroke-dasharray:none;stroke-opacity:1" d="m 407.984,285.332 h 73.4375 v 33.3398 H 407.984 Z" />
      <path style="fill:#d39c69;fill-opacity:1;fill-rule:nonzero;stroke:none" d="M 300.871,355.332 H 408.59 v 33.3398 H 300.871 Z" />
      <path style="fill:none;stroke:#231f20;stroke-width:10;stroke-linecap:butt;stroke-linejoin:miter;stroke-miterlimit:4;stroke-dasharray:none;stroke-opacity:1" d="M 300.871,355.332 H 408.59 v 33.3398 H 300.871 Z" />
      <path style="fill:#d39c69;fill-opacity:1;fill-rule:nonzero;stroke:none" d="m 481.422,355.332 h 107.734 v 33.3398 H 481.422 Z" />
      <path style="fill:none;stroke:#231f20;stroke-width:10;stroke-linecap:butt;stroke-linejoin:miter;stroke-miterlimit:4;stroke-dasharray:none;stroke-opacity:1" d="m 481.422,355.332 h 107.734 v 33.3398 H 481.422 Z" />
      <path style="fill:#d39c69;fill-opacity:1;fill-rule:nonzero;stroke:none" d="m 228.957,355.332 h 73.4453 v 33.3398 H 228.957 Z" />
      <path style="fill:none;stroke:#231f20;stroke-width:10;stroke-linecap:butt;stroke-linejoin:miter;stroke-miterlimit:4;stroke-dasharray:none;stroke-opacity:1" d="m 228.957,355.332 h 73.4453 v 33.3398 H 228.957 Z" />
      <path style="fill:#d39c69;fill-opacity:1;fill-rule:nonzero;stroke:none" d="m 407.984,355.332 h 73.4375 v 33.3398 H 407.984 Z" />
      <path style="fill:none;stroke:#231f20;stroke-width:10;stroke-linecap:butt;stroke-linejoin:miter;stroke-miterlimit:4;stroke-dasharray:none;stroke-opacity:1" d="m 407.984,355.332 h 73.4375 v 33.3398 H 407.984 Z" />
      <path style="fill:#d39c69;fill-opacity:1;fill-rule:nonzero;stroke:none" d="m 81.457,423.656 h 40.3867 v 33.3398 H 81.457 Z" />
      <path style="fill:none;stroke:#231f20;stroke-width:10;stroke-linecap:butt;stroke-linejoin:miter;stroke-miterlimit:4;stroke-dasharray:none;stroke-opacity:1" d="m 81.457,423.656 h 40.3867 v 33.3398 H 81.457 Z" />
      <path style="fill:#d39c69;fill-opacity:1;fill-rule:nonzero;stroke:none" d="M 300.871,423.656 H 408.59 v 33.3398 H 300.871 Z" />
      <path style="fill:none;stroke:#231f20;stroke-width:10;stroke-linecap:butt;stroke-linejoin:miter;stroke-miterlimit:4;stroke-dasharray:none;stroke-opacity:1" d="M 300.871,423.656 H 408.59 v 33.3398 H 300.871 Z" />
      <path style="fill:#d39c69;fill-opacity:1;fill-rule:nonzero;stroke:none" d="m 228.957,423.656 h 73.4453 v 33.3398 H 228.957 Z" />
      <path style="fill:none;stroke:#231f20;stroke-width:10;stroke-linecap:butt;stroke-linejoin:miter;stroke-miterlimit:4;stroke-dasharray:none;stroke-opacity:1" d="m 228.957,423.656 h 73.4453 v 33.3398 H 228.957 Z" />
      <path style="fill:#d39c69;fill-opacity:1;fill-rule:nonzero;stroke:none" d="m 407.984,423.656 h 73.4375 v 33.3398 H 407.984 Z" />
      <path style="fill:none;stroke:#231f20;stroke-width:10;stroke-linecap:butt;stroke-linejoin:miter;stroke-miterlimit:4;stroke-dasharray:none;stroke-opacity:1" d="m 407.984,423.656 h 73.4375 v 33.3398 H 407.984 Z" />
      <path style="fill:#d39c69;fill-opacity:1;fill-rule:nonzero;stroke:none" d="m 660.445,423.656 h 41.3281 v 33.3398 H 660.445 Z" />
      <path style="fill:none;stroke:#231f20;stroke-width:10;stroke-linecap:butt;stroke-linejoin:miter;stroke-miterlimit:4;stroke-dasharray:none;stroke-opacity:1" d="m 660.445,423.656 h 41.3281 v 33.3398 H 660.445 Z" />
      <path style="fill:#d39c69;fill-opacity:1;fill-rule:nonzero;stroke:none" d="m 210.625,180.332 h 107.707 v 33.3398 H 210.625 Z" />
      <path style="fill:none;stroke:#231f20;stroke-width:10;stroke-linecap:butt;stroke-linejoin:miter;stroke-miterlimit:4;stroke-dasharray:none;stroke-opacity:1" d="m 210.625,180.332 h 107.707 v 33.3398 H 210.625 Z" />
      <path style="fill:#d39c69;fill-opacity:1;fill-rule:nonzero;stroke:none" d="m 391.164,180.332 h 107.719 v 33.3398 H 391.164 Z" />
      <path style="fill:none;stroke:#231f20;stroke-width:10;stroke-linecap:butt;stroke-linejoin:miter;stroke-miterlimit:4;stroke-dasharray:none;stroke-opacity:1" d="m 391.164,180.332 h 107.719 v 33.3398 H 391.164 Z" />
      <path style="fill:#d39c69;fill-opacity:1;fill-rule:nonzero;stroke:none" d="m 571.715,180.332 h 84.7656 v 33.3398 H 571.715 Z" />
      <path style="fill:none;stroke:#231f20;stroke-width:10;stroke-linecap:butt;stroke-linejoin:miter;stroke-miterlimit:4;stroke-dasharray:none;stroke-opacity:1" d="m 571.715,180.332 h 84.7656 v 33.3398 H 571.715 Z" />
      <path style="fill:#d39c69;fill-opacity:1;fill-rule:nonzero;stroke:none" d="m 134.102,180.332 h 78.0352 v 33.3398 H 134.102 Z" />
      <path style="fill:none;stroke:#231f20;stroke-width:10;stroke-linecap:butt;stroke-linejoin:miter;stroke-miterlimit:4;stroke-dasharray:none;stroke-opacity:1" d="m 134.102,180.332 h 78.0352 v 33.3398 H 134.102 Z" />
      <path style="fill:#d39c69;fill-opacity:1;fill-rule:nonzero;stroke:none" d="m 317.707,180.332 h 73.457 v 33.3398 h -73.457 z" />
      <path style="fill:none;stroke:#231f20;stroke-width:10;stroke-linecap:butt;stroke-linejoin:miter;stroke-miterlimit:4;stroke-dasharray:none;stroke-opacity:1" d="m 317.707,180.332 h 73.457 v 33.3398 h -73.457 z" />
      <path style="fill:#d39c69;fill-opacity:1;fill-rule:nonzero;stroke:none" d="m 498.277,180.332 h 73.4375 v 33.3398 H 498.277 Z" />
      <path style="fill:none;stroke:#231f20;stroke-width:10;stroke-linecap:butt;stroke-linejoin:miter;stroke-miterlimit:4;stroke-dasharray:none;stroke-opacity:1" d="m 498.277,180.332 h 73.4375 v 33.3398 H 498.277 Z" />
      <path style="fill:#d39c69;fill-opacity:1;fill-rule:nonzero;stroke:none" d="m 209.09,250.332 h 107.707 v 33.3398 H 209.09 Z" />
      <path style="fill:none;stroke:#231f20;stroke-width:10;stroke-linecap:butt;stroke-linejoin:miter;stroke-miterlimit:4;stroke-dasharray:none;stroke-opacity:1" d="m 209.09,250.332 h 107.707 v 33.3398 H 209.09 Z" />
      <path style="fill:#d39c69;fill-opacity:1;fill-rule:nonzero;stroke:none" d="M 389.621,250.332 H 497.34 v 33.3398 H 389.621 Z" />
      <path style="fill:none;stroke:#231f20;stroke-width:10;stroke-linecap:butt;stroke-linejoin:miter;stroke-miterlimit:4;stroke-dasharray:none;stroke-opacity:1" d="M 389.621,250.332 H 497.34 v 33.3398 H 389.621 Z" />
      <path style="fill:#d39c69;fill-opacity:1;fill-rule:nonzero;stroke:none" d="m 137.156,250.332 h 73.4492 v 33.3398 H 137.156 Z" />
      <path style="fill:none;stroke:#231f20;stroke-width:10;stroke-linecap:butt;stroke-linejoin:miter;stroke-miterlimit:4;stroke-dasharray:none;stroke-opacity:1" d="m 137.156,250.332 h 73.4492 v 33.3398 H 137.156 Z" />
      <path style="fill:#d39c69;fill-opacity:1;fill-rule:nonzero;stroke:none" d="m 316.164,250.332 h 73.457 v 33.3398 h -73.457 z" />
      <path style="fill:none;stroke:#231f20;stroke-width:10;stroke-linecap:butt;stroke-linejoin:miter;stroke-miterlimit:4;stroke-dasharray:none;stroke-opacity:1" d="m 316.164,250.332 h 73.457 v 33.3398 h -73.457 z" />
      <path style="fill:#d39c69;fill-opacity:1;fill-rule:nonzero;stroke:none" d="m 496.734,250.332 h 73.457 v 33.3398 h -73.457 z" />
      <path style="fill:none;stroke:#231f20;stroke-width:10;stroke-linecap:butt;stroke-linejoin:miter;stroke-miterlimit:4;stroke-dasharray:none;stroke-opacity:1" d="m 496.734,250.332 h 73.457 v 33.3398 h -73.457 z" />
      <path style="fill:#d39c69;fill-opacity:1;fill-rule:nonzero;stroke:none" d="m 209.09,320.332 h 107.707 v 33.3398 H 209.09 Z" />
      <path style="fill:none;stroke:#231f20;stroke-width:10;stroke-linecap:butt;stroke-linejoin:miter;stroke-miterlimit:4;stroke-dasharray:none;stroke-opacity:1" d="m 209.09,320.332 h 107.707 v 33.3398 H 209.09 Z" />
      <path style="fill:#d39c69;fill-opacity:1;fill-rule:nonzero;stroke:none" d="M 389.621,320.332 H 497.34 v 33.3398 H 389.621 Z" />
      <path style="fill:none;stroke:#231f20;stroke-width:10;stroke-linecap:butt;stroke-linejoin:miter;stroke-miterlimit:4;stroke-dasharray:none;stroke-opacity:1" d="M 389.621,320.332 H 497.34 v 33.3398 H 389.621 Z" />
      <path style="fill:#d39c69;fill-opacity:1;fill-rule:nonzero;stroke:none" d="m 316.164,320.332 h 73.457 v 33.3398 h -73.457 z" />
      <path style="fill:none;stroke:#231f20;stroke-width:10;stroke-linecap:butt;stroke-linejoin:miter;stroke-miterlimit:4;stroke-dasharray:none;stroke-opacity:1" d="m 316.164,320.332 h 73.457 v 33.3398 h -73.457 z" />
      <path style="fill:#d39c69;fill-opacity:1;fill-rule:nonzero;stroke:none" d="m 496.734,320.332 h 73.457 v 33.3398 h -73.457 z" />
      <path style="fill:none;stroke:#231f20;stroke-width:10;stroke-linecap:butt;stroke-linejoin:miter;stroke-miterlimit:4;stroke-dasharray:none;stroke-opacity:1" d="m 496.734,320.332 h 73.457 v 33.3398 h -73.457 z" />
      <path style="fill:#d39c69;fill-opacity:1;fill-rule:nonzero;stroke:none" d="m 209.09,388.652 h 107.707 v 33.3438 H 209.09 Z" />
      <path style="fill:none;stroke:#231f20;stroke-width:10;stroke-linecap:butt;stroke-linejoin:miter;stroke-miterlimit:4;stroke-dasharray:none;stroke-opacity:1" d="m 209.09,388.652 h 107.707 v 33.3438 H 209.09 Z" />
      <path style="fill:#d39c69;fill-opacity:1;fill-rule:nonzero;stroke:none" d="M 389.621,388.652 H 497.34 v 33.3438 H 389.621 Z" />
      <path style="fill:none;stroke:#231f20;stroke-width:10;stroke-linecap:butt;stroke-linejoin:miter;stroke-miterlimit:4;stroke-dasharray:none;stroke-opacity:1" d="M 389.621,388.652 H 497.34 v 33.3438 H 389.621 Z" />
      <path style="fill:#d39c69;fill-opacity:1;fill-rule:nonzero;stroke:none" d="m 677.301,388.652 h 18.9648 v 33.3438 H 677.301 Z" />
      <path style="fill:none;stroke:#231f20;stroke-width:10;stroke-linecap:butt;stroke-linejoin:miter;stroke-miterlimit:4;stroke-dasharray:none;stroke-opacity:1" d="m 677.301,388.652 h 18.9648 v 33.3438 H 677.301 Z" />
      <path style="fill:#d39c69;fill-opacity:1;fill-rule:nonzero;stroke:none" d="m 316.164,388.652 h 73.457 v 33.3438 h -73.457 z" />
      <path style="fill:none;stroke:#231f20;stroke-width:10;stroke-linecap:butt;stroke-linejoin:miter;stroke-miterlimit:4;stroke-dasharray:none;stroke-opacity:1" d="m 316.164,388.652 h 73.457 v 33.3438 h -73.457 z" />
      <path style="fill:#d39c69;fill-opacity:1;fill-rule:nonzero;stroke:none" d="m 496.734,388.652 h 73.457 v 33.3438 h -73.457 z" />
      <path style="fill:none;stroke:#231f20;stroke-width:10;stroke-linecap:butt;stroke-linejoin:miter;stroke-miterlimit:4;stroke-dasharray:none;stroke-opacity:1" d="m 496.734,388.652 h 73.457 v 33.3438 h -73.457 z" />
      <path style="fill:#875524;fill-opacity:1;fill-rule:nonzero;stroke:none" d="m 711.109,458.656 v 51.68 H 580.113 l 29.727,-51.68 h 101.269" />
      <path style="fill:none;stroke:#231f20;stroke-width:10;stroke-linecap:butt;stroke-linejoin:miter;stroke-miterlimit:4;stroke-dasharray:none;stroke-opacity:1" d="m 711.109,458.656 v 51.68 H 580.113 l 29.727,-51.68 z" />
      <path style="fill:#875524;fill-opacity:1;fill-rule:nonzero;stroke:none" d="m 67.707,510.336 v -51.68 H 173.34 l 29.754,51.68 H 67.707" />
      <path style="fill:none;stroke:#231f20;stroke-width:10;stroke-linecap:butt;stroke-linejoin:miter;stroke-miterlimit:4;stroke-dasharray:none;stroke-opacity:1" d="m 67.707,510.336 v -51.68 H 173.34 l 29.754,51.68 z" />
      <path style="fill:#875524;fill-opacity:1;fill-rule:nonzero;stroke:none" d="m 220.281,458.656 h 342.625 l -21.875,38.008 20.02,13.672 H 232.352 l 12.699,-8.672 -24.77,-43.008" />
      <path style="fill:none;stroke:#231f20;stroke-width:10;stroke-linecap:butt;stroke-linejoin:miter;stroke-miterlimit:4;stroke-dasharray:none;stroke-opacity:1" d="m 220.281,458.656 h 342.625 l -21.875,38.008 20.02,13.672 H 232.352 l 12.699,-8.672 z" />
      <path style="fill:#d39c69;fill-opacity:1;fill-rule:nonzero;stroke:none" d="m 200.137,423.656 h 28.82 v 33.34 h -9.633 l -19.187,-33.34" />
      <path style="fill:none;stroke:#231f20;stroke-width:10;stroke-linecap:butt;stroke-linejoin:miter;stroke-miterlimit:4;stroke-dasharray:none;stroke-opacity:1" d="m 200.137,423.656 h 28.82 v 33.34 h -9.633 z" />
      <path style="fill:#d39c69;fill-opacity:1;fill-rule:nonzero;stroke:none" d="m 121.25,456.996 v -33.34 h 31.926 l 19.199,33.34 H 121.25" />
      <path style="fill:none;stroke:#231f20;stroke-width:10;stroke-linecap:butt;stroke-linejoin:miter;stroke-miterlimit:4;stroke-dasharray:none;stroke-opacity:1" d="m 121.25,456.996 v -33.34 h 31.926 l 19.199,33.34 z" />
      <path style="fill:#d39c69;fill-opacity:1;fill-rule:nonzero;stroke:none" d="m 210.605,388.652 v 33.344 h -11.417 l -19.2,-33.344 h 30.617" />
      <path style="fill:none;stroke:#231f20;stroke-width:10;stroke-linecap:butt;stroke-linejoin:miter;stroke-miterlimit:4;stroke-dasharray:none;stroke-opacity:1" d="m 210.605,388.652 v 33.344 h -11.417 l -19.2,-33.344 z" />
      <path style="fill:#d39c69;fill-opacity:1;fill-rule:nonzero;stroke:none" d="m 137.156,421.996 v -26.191 l 15.078,26.191 h -15.078" />
      <path style="fill:none;stroke:#231f20;stroke-width:10;stroke-linecap:butt;stroke-linejoin:miter;stroke-miterlimit:4;stroke-dasharray:none;stroke-opacity:1" d="m 137.156,421.996 v -26.191 l 15.078,26.191 z" />
      <path style="fill:#d39c69;fill-opacity:1;fill-rule:nonzero;stroke:none" d="m 179.988,388.652 -19.195,-33.32 h 68.164 v 33.34 h -48.969 v -0.02" />
      <path style="fill:none;stroke:#231f20;stroke-width:10;stroke-linecap:butt;stroke-linejoin:miter;stroke-miterlimit:4;stroke-dasharray:none;stroke-opacity:1" d="m 179.988,388.652 -19.195,-33.32 h 68.164 v 33.34 h -48.969 z" />
      <path style="fill:#d39c69;fill-opacity:1;fill-rule:nonzero;stroke:none" d="m 137.156,395.805 v 26.191 H 87.5898 v -33.344 h 45.4652 v 0.02 l 4.101,7.133" />
      <path style="fill:none;stroke:#231f20;stroke-width:10;stroke-linecap:butt;stroke-linejoin:miter;stroke-miterlimit:4;stroke-dasharray:none;stroke-opacity:1" d="m 137.156,395.805 v 26.191 H 87.5898 v -33.344 h 45.4652 v 0.02 z" />
      <path style="fill:#d39c69;fill-opacity:1;fill-rule:nonzero;stroke:none" d="m 124.902,374.531 8.153,14.141 H 95.2227 v -33.34 h 18.6323 l 7.395,12.832 3.652,6.367" />
      <path style="fill:none;stroke:#231f20;stroke-width:10;stroke-linecap:butt;stroke-linejoin:miter;stroke-miterlimit:4;stroke-dasharray:none;stroke-opacity:1" d="m 124.902,374.531 8.153,14.141 H 95.2227 v -33.34 h 18.6323 l 7.395,12.832 z" />
      <path style="fill:#d39c69;fill-opacity:1;fill-rule:nonzero;stroke:none" d="m 210.605,320.332 v 33.34 h -50.753 l -19.207,-33.34 h 69.96" />
      <path style="fill:none;stroke:#231f20;stroke-width:10;stroke-linecap:butt;stroke-linejoin:miter;stroke-miterlimit:4;stroke-dasharray:none;stroke-opacity:1" d="m 210.605,320.332 v 33.34 h -50.753 l -19.207,-33.34 z" />
      <path style="fill:#d39c69;fill-opacity:1;fill-rule:nonzero;stroke:none" d="m 98.293,353.672 v -25.391 l 14.605,25.391 H 98.293" />
      <path style="fill:none;stroke:#231f20;stroke-width:10;stroke-linecap:butt;stroke-linejoin:miter;stroke-miterlimit:4;stroke-dasharray:none;stroke-opacity:1" d="m 98.293,353.672 v -25.391 l 14.605,25.391 z" />
      <path style="fill:#d39c69;fill-opacity:1;fill-rule:nonzero;stroke:none" d="m 121.25,286.602 v -1.27 h 107.707 v 33.34 h -89.25 l -18.457,-32.07" />
      <path style="fill:none;stroke:#231f20;stroke-width:10;stroke-linecap:butt;stroke-linejoin:miter;stroke-miterlimit:4;stroke-dasharray:none;stroke-opacity:1" d="m 121.25,286.602 v -1.27 h 107.707 v 33.34 h -89.25 z" />
      <path style="fill:#d39c69;fill-opacity:1;fill-rule:nonzero;stroke:none" d="m 107.469,250.332 h 29.687 v 33.34 h -17.597 l -12.09,-20.996 v -12.344" />
      <path style="fill:none;stroke:#231f20;stroke-width:10;stroke-linecap:butt;stroke-linejoin:miter;stroke-miterlimit:4;stroke-dasharray:none;stroke-opacity:1" d="m 107.469,250.332 h 29.687 v 33.34 h -17.597 l -12.09,-20.996 z" />
      <path style="fill:#875524;fill-opacity:1;fill-rule:nonzero;stroke:none" d="m 232.352,510.336 -21.004,14.336 -8.254,-14.336 -29.754,-51.68 -0.965,-1.66 -19.199,-33.34 -0.942,-1.66 -15.078,-26.191 -4.101,-7.133 v -0.02 l -8.153,-14.121 -3.652,-6.367 -7.395,-12.832 -0.957,-1.66 -14.605,-25.391 -41.3789,-71.894 33.6797,-23.028 16.8752,29.317 12.09,20.996 1.691,2.93 18.457,32.07 0.938,1.66 19.207,33.34 0.941,1.66 19.195,33.32 v 0.02 l 19.2,33.324 0.949,1.66 19.187,33.34 0.957,1.66 24.77,43.008 -12.699,8.672" />
      <path style="fill:none;stroke:#231f20;stroke-width:10;stroke-linecap:butt;stroke-linejoin:miter;stroke-miterlimit:4;stroke-dasharray:none;stroke-opacity:1" d="m 232.352,510.336 -21.004,14.336 -8.254,-14.336 -29.754,-51.68 -0.965,-1.66 -19.199,-33.34 -0.942,-1.66 -15.078,-26.191 -4.101,-7.133 v -0.02 l -8.153,-14.121 -3.652,-6.367 -7.395,-12.832 -0.957,-1.66 -14.605,-25.391 -41.3789,-71.894 33.6797,-23.028 16.8752,29.317 12.09,20.996 1.691,2.93 18.457,32.07 0.938,1.66 19.207,33.34 0.941,1.66 19.195,33.32 v 0.02 l 19.2,33.324 0.949,1.66 19.187,33.34 0.957,1.66 24.77,43.008 z" />
      <path style="fill:#d39c69;fill-opacity:1;fill-rule:nonzero;stroke:none" d="m 661.988,423.656 v 33.34 h -51.191 l 19.219,-33.34 h 31.972" />
      <path style="fill:none;stroke:#231f20;stroke-width:10;stroke-linecap:butt;stroke-linejoin:miter;stroke-miterlimit:4;stroke-dasharray:none;stroke-opacity:1" d="m 661.988,423.656 v 33.34 h -51.191 l 19.219,-33.34 z" />
      <path style="fill:#d39c69;fill-opacity:1;fill-rule:nonzero;stroke:none" d="m 481.422,456.996 v -33.34 h 101.621 l -19.18,33.34 h -82.441" />
      <path style="fill:none;stroke:#231f20;stroke-width:10;stroke-linecap:butt;stroke-linejoin:miter;stroke-miterlimit:4;stroke-dasharray:none;stroke-opacity:1" d="m 481.422,456.996 v -33.34 h 101.621 l -19.18,33.34 z" />
      <path style="fill:#d39c69;fill-opacity:1;fill-rule:nonzero;stroke:none" d="m 676.363,388.652 v 33.344 h -45.41 l 19.18,-33.344 h 26.23" />
      <path style="fill:none;stroke:#231f20;stroke-width:10;stroke-linecap:butt;stroke-linejoin:miter;stroke-miterlimit:4;stroke-dasharray:none;stroke-opacity:1" d="m 676.363,388.652 v 33.344 h -45.41 l 19.18,-33.344 z" />
      <path style="fill:#d39c69;fill-opacity:1;fill-rule:nonzero;stroke:none" d="m 570.191,421.996 v -33.344 h 33.008 L 584,421.996 h -13.809" />
      <path style="fill:none;stroke:#231f20;stroke-width:10;stroke-linecap:butt;stroke-linejoin:miter;stroke-miterlimit:4;stroke-dasharray:none;stroke-opacity:1" d="m 570.191,421.996 v -33.344 h 33.008 L 584,421.996 Z" />
      <path style="fill:#d39c69;fill-opacity:1;fill-rule:nonzero;stroke:none" d="m 603.199,388.672 h -14.668 v -33.34 h 33.848 l -19.18,33.32 v 0.02" />
      <path style="fill:none;stroke:#231f20;stroke-width:10;stroke-linecap:butt;stroke-linejoin:miter;stroke-miterlimit:4;stroke-dasharray:none;stroke-opacity:1" d="m 603.199,388.672 h -14.668 v -33.34 h 33.848 l -19.18,33.32 z" />
      <path style="fill:#d39c69;fill-opacity:1;fill-rule:nonzero;stroke:none" d="m 661.988,388.672 h -11.855 v -0.02 l 11.855,-20.547 7.344,-12.773 h 15.606 v 33.34 h -22.95" />
      <path style="fill:none;stroke:#231f20;stroke-width:10;stroke-linecap:butt;stroke-linejoin:miter;stroke-miterlimit:4;stroke-dasharray:none;stroke-opacity:1" d="m 661.988,388.672 h -11.855 v -0.02 l 11.855,-20.547 7.344,-12.773 h 15.606 v 33.34 z" />
      <path style="fill:#d39c69;fill-opacity:1;fill-rule:nonzero;stroke:none" d="m 570.191,353.672 v -33.34 h 72.344 l -19.199,33.34 h -53.145" />
      <path style="fill:none;stroke:#231f20;stroke-width:10;stroke-linecap:butt;stroke-linejoin:miter;stroke-miterlimit:4;stroke-dasharray:none;stroke-opacity:1" d="m 570.191,353.672 v -33.34 h 72.344 l -19.199,33.34 z" />
      <path style="fill:#d39c69;fill-opacity:1;fill-rule:nonzero;stroke:none" d="m 680.953,353.672 h -10.664 l 10.664,-18.555 v 18.555" />
      <path style="fill:none;stroke:#231f20;stroke-width:10;stroke-linecap:butt;stroke-linejoin:miter;stroke-miterlimit:4;stroke-dasharray:none;stroke-opacity:1" d="m 680.953,353.672 h -10.664 l 10.664,-18.555 z" />
      <path style="fill:#d39c69;fill-opacity:1;fill-rule:nonzero;stroke:none" d="m 588.531,318.672 v -33.34 h 73.457 v 1.211 l -18.496,32.129 h -54.961" />
      <path style="fill:none;stroke:#231f20;stroke-width:10;stroke-linecap:butt;stroke-linejoin:miter;stroke-miterlimit:4;stroke-dasharray:none;stroke-opacity:1" d="m 588.531,318.672 v -33.34 h 73.457 v 1.211 l -18.496,32.129 z" />
      <path style="fill:#d39c69;fill-opacity:1;fill-rule:nonzero;stroke:none" d="m 570.191,283.672 v -33.34 h 106.172 v 11.211 l -12.715,22.129 h -93.457" />
      <path style="fill:none;stroke:#231f20;stroke-width:10;stroke-linecap:butt;stroke-linejoin:miter;stroke-miterlimit:4;stroke-dasharray:none;stroke-opacity:1" d="m 570.191,283.672 v -33.34 h 106.172 v 11.211 l -12.715,22.129 z" />
      <path style="fill:#875524;fill-opacity:1;fill-rule:nonzero;stroke:none" d="M 574.723,519.672 541.031,496.664 695.465,228.359 729.156,251.387 574.723,519.672" />
      <path style="fill:none;stroke:#231f20;stroke-width:10;stroke-linecap:butt;stroke-linejoin:miter;stroke-miterlimit:4;stroke-dasharray:none;stroke-opacity:1" d="m 574.723,519.672 -33.692,-23.008 154.434,-268.305 33.691,23.028 z" />
      <path style="fill:#231f20;fill-opacity:1;fill-rule:nonzero;stroke:none" d="m 222.605,487.621 c 0,-5.527 -4.089,-10 -9.179,-10 -5.078,0 -9.16,4.473 -9.16,10 0,5.527 4.082,10 9.16,10 5.09,0 9.179,-4.473 9.179,-10" />
      <path style="fill:#231f20;fill-opacity:1;fill-rule:nonzero;stroke:none" d="m 578.355,487.621 c 0,-5.527 -4.101,-10 -9.179,-10 -5.078,0 -9.18,4.473 -9.18,10 0,5.527 4.102,10 9.18,10 5.078,0 9.179,-4.473 9.179,-10" />
    </g>
  </g>
</svg>