<svg xmlns="http://www.w3.org/2000/svg" id="volleyball" viewBox="0 0 48 48" width="24" height="24" fill="rgb(52, 73, 94)">
  <circle fill="#ECEFF1" cx="24" cy="24" r="20"/>
  <path fill="#2962FF" d="M16.9,11.6C16.9,11.6,16.8,11.6,16.9,11.6C16.8,11.6,16.9,11.6,16.9,11.6c0.9,3.2,2.7,6.3,2.7,6.3  c0.8,1.4,1.8,2.9,3.1,4.5c0,0,0,0,0,0c0.4,0.5,0.9,1.1,1.4,1.6c-0.3,1.1-0.6,2.1-0.9,3c-0.4,1.1-1.1,2.5-1.9,3.9  c-0.1-0.1-0.2-0.1-0.2-0.1C19.9,30,10.8,23.5,10.9,8.9c1.6-1.3,3.3-2.5,5.2-3.3c0,0,0,0,0,0c2.4-1,5-1.6,7.8-1.6  c7.2,0,13.4,3.8,16.9,9.4C29.3,7.2,18.3,10.9,17,11.5L16.9,11.6z M43.6,25.8c0.1,0.1,0.2,0.1,0.3,0.2c-1,10-9.4,17.9-19.7,18  C37.1,37.6,38,27,38,23.9C39.8,24.3,41.7,24.9,43.6,25.8z"/>
  <path fill="#FFC107" d="M43.5,19.8c-11.4-6-22.7-2.6-24-1.9l0,0.1c1.1,1.9,2.6,4,4.5,6.1c0,0-0.8,6.9-7.5,12.4  c-1.7-1.2-10.3-8.2-9.7-22.5C5,16.8,4,20.3,4,24c0,6.3,2.9,11.8,7.4,15.5c0.5-0.2,0.4-0.2,0,0c1.8,1.5,3.9,2.6,6.1,3.4  c10.7-5.4,13.6-15.1,13.7-19.8c3.6,0,8.1,0.6,12.7,2.8c0.1-0.6,0.1-1.3,0.1-2C44,22.5,43.8,21.1,43.5,19.8z M24,24c0,0,0.1,0,0.1,0  C24.1,24,24.1,24,24,24z"/>
  <path fill="#0D47A1" d="M16,5.7c0.1,0-1.3,0.6-2,1c0.2,3.2,1.4,10.7,8.5,18.6l0.8,0.9c0.2-0.7,0.5-1.5,0.7-2.3  C16.5,15.6,15.9,8,16,5.7z"/>
  <path fill="#FFA000" d="M44,23.8c-0.5-0.2-1.2-0.5-2-0.8c-3.3-1.2-6.9-1.8-10.7-1.8c-2.9,0-5.2,0.4-6.6,0.7  c-0.8,0.2-1.5,0.4-2.1,0.6c0.4,0.5,0.9,1.1,1.4,1.7c0,0,0.4-0.1,0,0c0,0-2,11-12.6,15.5c0.6,0.5,1.3,0.9,1.9,1.4  c0.6-0.3,1.3-0.6,2-1.1c7-4.3,9.6-11.2,10.4-14.1c0.2-0.8,0.3-1.5,0.4-2.1c1.3-0.2,3.1-0.4,5.3-0.4c3.6,0,8.1,0.6,12.6,2.8  c0.1-0.6,0.1-1.3,0.1-2C44,23.9,44,23.8,44,23.8z"/>
</svg>