<svg xmlns="http://www.w3.org/2000/svg" id="walking" width="24" height="24" viewBox="0 0 48 48" fill="rgb(52, 73, 94)">
  <path fill="#1976D2" d="M14.998,44c-0.3,0-0.605-0.067-0.893-0.211c-0.988-0.494-1.389-1.695-0.895-2.684l3.841-7.681l0.479-8.862  c0.121-1.098,1.593-1.672,2.689-1.55c1.098,0.121,2.339,1.108,2.217,2.206l-1.45,9.002c-0.025,0.234-0.093,0.463-0.198,0.674l-4,8  C16.438,43.596,15.732,44,14.998,44z"/>
  <rect x="35" y="12" fill="#795548" width="2" height="32"/>
  <path fill="#FFB74D" d="M26,4c2.209,0,4,1.791,4,4s-1.791,4-4,4s-4-1.791-4-4S23.791,4,26,4"/>
  <path fill="#4CAF50" d="M10.094,20.084c-0.312,1.06,0.111,3.16,2.029,3.726l3.031,1.108c1.06,0.313,2.283-0.202,2.596-1.262  l2.281-7.844c0.313-1.06,0.435-1.937-0.625-2.25l-1.687-0.517c-1.919-0.565-6.212,2.242-7.343,6.079  C10.094,20.084,10.094,20.084,10.094,20.084z"/>
  <g>
  	<path fill="#2196F3" d="M26.002,44c-0.144,0-0.29-0.016-0.436-0.048c-1.078-0.239-1.759-1.308-1.519-2.386l1.742-7.843l-7.103-6.13   L22,23l7.317,8.495c0.55,0.481,0.794,1.225,0.635,1.938l-2,9C27.745,43.366,26.919,44,26.002,44z"/>
  	<path fill="#2196F3" d="M30.832,20c-0.291,0-0.581-0.085-0.832-0.252L23.668,16c-0.689-0.46-0.876-1.391-0.416-2.08   c0.459-0.691,1.39-0.876,2.08-0.416l5.607,3.266l4.89-2.611c0.742-0.371,1.642-0.069,2.013,0.671   c0.37,0.741,0.07,1.642-0.671,2.013l-5.668,3C31.291,19.947,31.062,20,30.832,20z"/>
  	<path fill="#2196F3" d="M21.001,28.501c-0.367,0-0.74-0.059-1.107-0.181c-1.834-0.611-2.825-2.594-2.214-4.427l2.499-8.5   c0.612-1.835,2.595-2.823,4.427-2.214c1.834,0.611,2.825,2.594,2.214,4.427l-2.499,8.5C23.831,27.573,22.466,28.501,21.001,28.501z   "/>
  </g>
  <path fill="#2E7D32" d="M15.521,24.99c0.959,0.112,1.948-0.394,2.227-1.33l0.052-0.176l2.231-7.672  c0.284-0.965,0.563-2.094-1.084-2.375c-0.273,0.405-0.506,0.843-0.666,1.323l-0.011,0.034l-0.011,0.034l-2.49,8.47  C15.589,23.854,15.523,24.423,15.521,24.99z"/>
</svg>