<svg xmlns="http://www.w3.org/2000/svg" id="bmx-track" height="24" width="24" viewBox="0 0 48 48" fill="rgb(52, 73, 94)">
	<path fill="#607D8B" d="M33,10c-3.8,0-7,3.1-7,7c0,3.8,3.2,7,7,7s7-3.2,7-7C40,13.1,36.8,10,33,10z"/>
	<circle fill="#FFB74D" cx="14.5" cy="8.5" r="3.5"/>
	<path fill="#607D8B" d="M21,29c-3.9,0-7,3.2-7,7s3.1,7,7,7s7-3.2,7-7S24.9,29,21,29L21,29z"/>
	<path fill="#CFD8DC" d="M21,31c-2.8,0-5,2.2-5,5s2.2,5,5,5s5-2.2,5-5S23.8,31,21,31L21,31z"/>
	<path fill="#CFD8DC" d="M33,12c-2.8,0-5,2.2-5,5s2.2,5,5,5s5-2.2,5-5S35.8,12,33,12L33,12z"/>
	<path fill="#2196F3" d="M16.2,13.8c-1.4-0.4-2.9,0.4-3.3,1.9l-2.8,9.7c-0.4,1.5,0.7,3.5,2.6,3.5c1.3,0,2.4-0.8,2.6-2.1l4.8-6.7   l-3.3,1.6l2.1-7.4C19.4,13,17.8,14.3,16.2,13.8z"/>
	<path fill="#2196F3" d="M27.7,7.5c-0.5-0.6-1.3-0.7-1.9-0.2l-5.3,4.2L14.3,14c-0.7,0.4,1,1.2,1.3,1.8c0.2,0.4,0.6,0.7,1.1,0.8   c0.3,0,0.8-0.1,1.1-0.2l4.2-2.2l5.5-4.7C28.1,9,28.2,8.1,27.7,7.5z"/>
	<path fill="#2196F3" d="M29.2,25.4l-7-5c-0.7-0.5-1.5-0.5-2.2-0.1l-8,5c-0.9,0.6-1.2,1.8-0.6,2.8c0.4,0.6,1,0.9,1.7,0.9   c0.4,0,0.7-0.1,1.1-0.3l6.9-4.3l5.9,4.2c0.9,0.6,2.1,0.4,2.8-0.5C30.3,27.3,30.1,26,29.2,25.4z"/>
	<path fill="#90A4AE" d="M33,15.5c-0.8,0-1.5,0.7-1.5,1.5s0.7,1.5,1.5,1.5s1.5-0.7,1.5-1.5S33.8,15.5,33,15.5L33,15.5z"/>
	<path fill="#90A4AE" d="M21,34.5c-0.8,0-1.5,0.7-1.5,1.5s0.7,1.5,1.5,1.5s1.5-0.7,1.5-1.5S21.8,34.5,21,34.5L21,34.5z"/>
</svg>