<svg xmlns="http://www.w3.org/2000/svg" id="canoe" width="24" height="24" viewBox="0 0 48 48" fill="rgb(52, 73, 94)">
  <path fill="#FFB74D" d="M26,13c-2.206,0-4-1.794-4-4s1.794-4,4-4s4,1.794,4,4S28.206,13,26,13"/>
  <path fill="#388E3C" d="M30,35c-2.949,0-12.228,0-19,0c-2.413,0-5-3-5-3v-7h36C42,25,36,35,30,35z"/>
  <path fill="#90CAF9" d="M44,34c-3,0-4-2-4-2s-1,2-4,2s-4-2-4-2s-1,2-4,2s-4-2-4-2s-1,2-4,2s-4-2-4-2s-1,2-4,2s-4-2-4-2s-1,2-4,2v8h4  h32h4V34z"/>
  <path fill="#C5E1A5" d="M6,29h33.112c0.594-0.717,1.114-1.402,1.545-2H6V29z"/>
  <line fill="none" stroke="#795548" stroke-width="2" x1="36.5" y1="19.5" x2="15.5" y2="40.5"/>
  <path fill="#2196F3" d="M44,38c-3,0-4-2-4-2s-1,2-4,2s-4-2-4-2s-1,2-4,2s-4-2-4-2s-1,2-4,2s-4-2-4-2s-1,2-4,2s-4-2-4-2s-1,2-4,2v4h4  h32h4V38z"/>
  <g>
   <path fill="#1565C0" d="M21.3,25l4.502-7.197c0.818-1.113-0.373-1.725-1.487-2.543l-2.418-1.775   c-1.113-0.816-2.677-0.578-3.495,0.536L11,25H21.3z"/>
   <line fill="none" stroke="#1565C0" stroke-width="4" stroke-linecap="round" x1="20.542" y1="15" x2="34" y2="23"/>
 </g>
</svg>