<svg xmlns="http://www.w3.org/2000/svg" viewBox="0 0 757.53333 229.73334" id="parks-logo">
  <g transform="matrix(1.3333333,0,0,-1.3333333,0,229.73333)"
   id="g10">
   <g transform="scale(0.1)"
     id="g12">
     <g id="g14">
      <g clip-path="url(#clipPath20)"
       id="g16">
       <path id="path22"
         style="fill:rgba(255,255,255,0.9);fill-rule:nonzero;stroke:none"
         d="m 4122.93,82.6992 c -12.38,0 -23.15,8.3906 -26.15,20.5628 -0.59,2.187 -0.8,4.789 -0.8,7.179 v 16.77 c 0,2.199 0.61,4.777 1.01,7.187 3.39,13.161 14.76,21.551 26.74,21.551 18.56,0 28.54,-16.57 28.54,-35.929 0,-22.1489 -10.78,-37.3208 -29.34,-37.3208 z m 5.99,87.2228 c -15.58,0 -27.15,-6.793 -34.13,-18.774 h -0.4 l -1,16.582 h -15.77 c 0.61,-9.191 0.8,-19.16 0.8,-31.539 V 31.6016 h 17.56 v 52.5 h 0.4 c 5.79,-9.5899 16.77,-15.1719 29.74,-15.1719 22.56,0 43.91,17.1719 43.91,51.8903 0,29.34 -17.56,49.102 -41.11,49.102" /><path
         id="path24"
         style="fill:rgba(255,255,255,0.9);fill-rule:nonzero;stroke:none"
         d="m 4242.9,103.648 c 0,-1.789 -0.21,-3.7769 -0.81,-5.5777 -2.79,-8.1797 -10.97,-16.1719 -23.75,-16.1719 -8.78,0 -16.36,5.1914 -16.36,16.7735 0,18.7501 21.76,22.1481 40.92,21.7501 z m 17.15,26.75 c 0,19.372 -7.18,39.524 -36.92,39.524 -12.17,0 -23.95,-3.391 -31.93,-8.383 l 3.99,-11.769 c 6.79,4.589 16.16,7.179 25.34,7.179 19.77,0.199 21.97,-14.371 21.97,-22.359 v -1.988 c -37.33,0.199 -58.09,-12.582 -58.09,-35.9301 0,-13.9727 9.98,-27.7422 29.54,-27.7422 13.77,0 24.35,6.7891 29.54,14.3711 h 0.6 l 1.6,-12.1719 h 15.76 c -1,6.5899 -1.4,14.7695 -1.4,23.1523 v 36.1168" /><path
         id="path26"
         style="fill:rgba(255,255,255,0.9);fill-rule:nonzero;stroke:none"
         d="m 4304.38,148.762 h -0.6 l -0.8,18.968 h -15.36 c 0.6,-8.992 0.79,-18.761 0.79,-30.152 l -0.19,-66.4491 h 17.56 v 51.4921 c 0,2.988 0.2,5.777 0.6,8.379 2.39,12.969 11.17,22.352 23.55,22.352 2.4,0 4.2,-0.192 6.19,-0.403 v 16.371 c -1.6,0.399 -3,0.602 -4.8,0.602 -11.76,0 -22.55,-8.184 -26.94,-21.16" /><path
         id="path28"
         style="fill:rgba(255,255,255,0.9);fill-rule:nonzero;stroke:none"
         d="m 4430.12,167.73 h -20.95 l -28.54,-33.332 c -2.79,-3.207 -5.99,-7.589 -8.39,-10.976 h -0.4 v 89.41 h -17.56 V 71.1289 h 17.56 v 36.3121 l 8.99,10.188 33.13,-46.5001 h 21.36 l -42.52,56.8831 37.32,39.718" /><path
         id="path30"
         style="fill:rgba(255,255,255,0.9);fill-rule:nonzero;stroke:none"
         d="m 4479.04,127.211 c -12.57,4.777 -18.17,8.379 -18.17,16.559 0,7.191 5.6,13.179 15.97,13.179 8.99,0 15.97,-3.39 19.77,-5.59 l 4.19,12.571 c -5.19,3.402 -13.77,5.992 -23.56,5.992 -20.56,0 -33.33,-12.774 -33.33,-28.34 0,-11.582 8.18,-20.953 25.75,-27.344 12.78,-4.789 17.77,-9.379 17.77,-17.7692 0,-8.1876 -6,-14.3672 -18.57,-14.3672 -8.78,0 -17.96,3.5976 -23.35,6.789 l -4.2,-13.1718 c 6.79,-4 16.58,-6.7891 27.15,-6.7891 22.55,0 35.93,11.9687 35.93,29.1406 0,14.5707 -8.78,22.9497 -25.35,29.1407" /><path
         id="path32"
         style="fill:rgba(255,255,255,0.9);fill-rule:nonzero;stroke:none"
         d="m 4532.74,94.082 c -6.98,0 -11.97,-5.3906 -11.97,-12.5703 0,-7.1914 4.78,-12.582 11.57,-12.582 h 0.2 c 7.18,0 11.98,5.3906 11.98,12.582 0,7.3789 -4.8,12.5703 -11.78,12.5703" /><path
         id="path34"
         style="fill:rgba(255,255,255,0.9);fill-rule:nonzero;stroke:none"
         d="m 4582.44,148.762 h -0.6 l -0.8,18.968 h -15.36 c 0.59,-8.992 0.79,-18.761 0.79,-30.152 l -0.2,-66.4491 h 17.56 v 51.4921 c 0,2.988 0.21,5.777 0.61,8.379 2.39,12.969 11.17,22.352 23.54,22.352 2.41,0 4.2,-0.192 6.19,-0.403 v 16.371 c -1.6,0.399 -2.99,0.602 -4.79,0.602 -11.77,0 -22.55,-8.184 -26.94,-21.16" /><path
         id="path36"
         style="fill:rgba(255,255,255,0.9);fill-rule:nonzero;stroke:none"
         d="m 4681.45,103.648 c 0,-1.789 -0.2,-3.7769 -0.8,-5.5777 -2.79,-8.1797 -10.98,-16.1719 -23.75,-16.1719 -8.79,0 -16.37,5.1914 -16.37,16.7735 0,18.7501 21.76,22.1481 40.92,21.7501 z m 17.16,26.75 c 0,19.372 -7.19,39.524 -36.93,39.524 -12.16,0 -23.94,-3.391 -31.93,-8.383 l 4,-11.769 c 6.78,4.589 16.16,7.179 25.34,7.179 19.76,0.199 21.96,-14.371 21.96,-22.359 v -1.988 c -37.32,0.199 -58.09,-12.582 -58.09,-35.9301 0,-13.9727 9.98,-27.7422 29.54,-27.7422 13.77,0 24.35,6.7891 29.55,14.3711 h 0.59 l 1.6,-12.1719 H 4700 c -0.99,6.5899 -1.39,14.7695 -1.39,23.1523 v 36.1168" /><path
         id="path38"
         style="fill:rgba(255,255,255,0.9);fill-rule:nonzero;stroke:none"
         d="m 4726.76,71.1289 h 17.5586 v 141.703 H 4726.76 Z" /><path
         id="path40"
         style="fill:rgba(255,255,255,0.9);fill-rule:nonzero;stroke:none"
         d="m 4783.65,129.012 c 1.39,12.16 8.98,28.527 26.94,28.527 19.56,0 24.36,-17.559 24.15,-28.527 z m 28.34,41.109 c -28.14,0 -45.5,-22.949 -45.5,-52.289 0,-28.9414 17.96,-48.7109 47.5,-48.7109 15.36,0 26.14,3.3984 32.33,6.1875 l -3.19,12.3906 c -6.39,-2.5976 -14.17,-4.8008 -26.75,-4.8008 -17.57,0 -32.53,9.7813 -32.93,33.5316 l 67.66,-0.2 c 0.4,2 0.59,4.79 0.59,8.379 0,17.77 -8.18,45.512 -39.71,45.512" /><path
         id="path42"
         style="fill:rgba(255,255,255,0.9);fill-rule:nonzero;stroke:none"
         d="m 4882.26,208.039 c -6.79,0 -11.38,-4.988 -11.38,-11.18 0,-6.179 4.4,-11.371 10.98,-11.371 h 0.21 c 6.98,0 11.37,5.192 11.37,11.371 0,6.192 -4.39,11.18 -11.18,11.18" /><path
         id="path44"
         style="fill:rgba(255,255,255,0.9);fill-rule:nonzero;stroke:none"
         d="m 4873.48,71.1289 h 17.5586 v 96.6016 H 4873.48 Z" /><path
         id="path46"
         style="fill:rgba(255,255,255,0.9);fill-rule:nonzero;stroke:none"
         d="m 4985.26,112.441 c 0,-3.203 -0.4,-6.589 -1.41,-9.382 -3.58,-11.3793 -13.37,-18.1684 -24.34,-18.1684 -18.76,0 -28.54,15.9684 -28.54,34.7384 0,22.551 11.97,36.723 28.74,36.723 12.97,0 21.35,-8.383 24.54,-18.774 0.8,-2.379 1.01,-4.976 1.01,-7.769 z m 2.19,40.911 h -0.39 c -4.4,7.988 -13.38,16.57 -30.15,16.57 -22.35,0 -43.7,-18.363 -43.7,-51.094 0,-26.9491 17.16,-47.2968 41.11,-47.2968 14.97,0 25.55,7.1797 30.73,16.168 h 0.4 V 77.1094 c 0,-24.5508 -13.17,-33.918 -31.13,-33.918 -11.97,0 -21.95,3.5898 -28.34,7.7774 l -4.39,-13.5782 c 7.78,-5.1797 20.55,-7.9687 32.13,-7.9687 12.17,0 25.75,2.9765 35.33,11.5664 9.18,8.582 13.77,21.9531 13.77,44.3125 v 56.0782 c 0,11.781 0.19,19.562 0.8,26.351 h -15.57 l -0.6,-14.378" /><path
         id="path48"
         style="fill:rgba(255,255,255,0.9);fill-rule:nonzero;stroke:none"
         d="m 5080.27,169.922 c -6.58,0 -12.77,-1.793 -17.96,-5 -5.39,-2.793 -9.79,-7.383 -12.58,-12.363 h -0.4 v 60.273 h -17.56 V 71.1289 h 17.56 V 129.41 c 0,3.391 0.21,5.981 1.2,8.379 3.4,9.582 12.18,17.563 23.56,17.563 16.56,0 22.35,-12.973 22.35,-28.75 V 71.1289 H 5114 v 57.4801 c 0,33.332 -20.75,41.313 -33.73,41.313" /><path
         id="path50"
         style="fill:rgba(255,255,255,0.9);fill-rule:nonzero;stroke:none"
         d="m 5190.65,169.922 c -15.97,0 -27.14,-8.981 -31.93,-17.961 h -0.39 l -1.01,15.769 h -15.57 c 0.6,-7.992 0.8,-15.968 0.8,-26.148 V 71.1289 h 17.56 V 129.41 c 0,2.789 0.4,5.981 1.2,8.168 3.2,9.793 12.18,17.973 23.56,17.973 16.56,0 22.35,-13.172 22.35,-28.742 V 71.1289 h 17.56 v 57.6801 c 0,33.132 -20.75,41.113 -34.13,41.113" /><path
         id="path52"
         style="fill:rgba(255,255,255,0.9);fill-rule:nonzero;stroke:none"
         d="m 5298.25,155.949 c 9.58,0 16.17,-2.39 20.36,-4.59 l 3.99,13.371 c -4.79,2.602 -13.97,5.192 -24.35,5.192 -31.54,0 -51.89,-21.75 -51.89,-51.5 0,-29.7306 18.96,-49.4923 48.1,-49.4923 12.97,0 23.15,3.4023 27.74,5.582 l -3,13.1875 c -4.99,-2.2109 -11.57,-4.5976 -21.55,-4.5976 -19.16,0 -33.52,13.7773 -33.52,36.1174 0,20.16 11.97,36.73 34.12,36.73" /><path
         id="path54"
         style="fill:rgba(255,255,255,0.9);fill-rule:nonzero;stroke:none"
         d="m 5348.75,94.082 c -6.98,0 -11.97,-5.3906 -11.97,-12.5703 0,-7.1914 4.79,-12.582 11.57,-12.582 h 0.21 c 7.18,0 11.97,5.3906 11.97,12.582 0,7.3789 -4.79,12.5703 -11.78,12.5703" /><path
         id="path56"
         style="fill:rgba(255,255,255,0.9);fill-rule:nonzero;stroke:none"
         d="m 5447.36,112.441 c 0,-3.203 -0.4,-6.589 -1.4,-9.382 -3.59,-11.3793 -13.38,-18.1684 -24.35,-18.1684 -18.76,0 -28.54,15.9684 -28.54,34.7384 0,22.551 11.97,36.723 28.74,36.723 12.97,0 21.35,-8.383 24.54,-18.774 0.8,-2.379 1.01,-4.976 1.01,-7.769 z m 2.19,40.911 h -0.4 c -4.39,7.988 -13.37,16.57 -30.14,16.57 -22.35,0 -43.7,-18.363 -43.7,-51.094 0,-26.9491 17.16,-47.2968 41.11,-47.2968 14.97,0 25.55,7.1797 30.73,16.168 h 0.4 V 77.1094 c 0,-24.5508 -13.17,-33.918 -31.13,-33.918 -11.98,0 -21.95,3.5898 -28.34,7.7774 l -4.39,-13.5782 c 7.78,-5.1797 20.55,-7.9687 32.13,-7.9687 12.17,0 25.75,2.9765 35.33,11.5664 9.18,8.582 13.77,21.9531 13.77,44.3125 v 56.0782 c 0,11.781 0.2,19.562 0.8,26.351 h -15.57 l -0.6,-14.378" /><path
         id="path58"
         style="fill:rgba(255,255,255,0.9);fill-rule:nonzero;stroke:none"
         d="m 5533.78,82.1016 h -0.19 c -16.96,0 -28.94,15.9687 -28.94,37.1174 0,18.359 8.98,37.519 29.53,37.519 20.77,0 28.95,-20.547 28.95,-36.906 0,-21.9609 -12.58,-37.7304 -29.35,-37.7304 z m 1.01,87.8204 c -26.55,0 -47.9,-18.961 -47.9,-51.293 0,-30.5392 20.35,-49.6993 46.3,-49.6993 h 0.2 c 22.95,0 47.9,15.5586 47.9,51.4923 0,29.348 -18.77,49.5 -46.5,49.5" /><path
         id="path60"
         style="fill:rgba(255,255,255,0.9);fill-rule:nonzero;stroke:none"
         d="m 5663.14,167.73 -18.76,-54.089 c -3.19,-8.993 -5.99,-16.9691 -8.18,-24.9496 h -0.61 c -1.99,7.9805 -4.59,15.9566 -7.78,24.9496 l -18.96,54.089 h -18.76 l 36.72,-96.6011 h 16.77 l 37.92,96.6011 h -18.36" /><path
         id="path62"
         style="fill:rgba(255,255,255,0.9);fill-rule:nonzero;stroke:none"
         d="m 2579.76,996.008 v 10.492 h -11.49 c -11.1,0 -17.66,2.01 -19.65,6 -2,3.99 -2.99,22.69 -2.99,56.1 v 95.07 c 0,18.09 0.39,35.13 1.17,51.1 12.77,4.12 24.53,6.18 35.29,6.18 18.97,0 33.26,-4.37 42.89,-13.08 9.58,-8.71 14.39,-20.83 14.39,-36.38 0,-16.09 -4.5,-28.77 -13.5,-38.04 -8.97,-9.26 -21.13,-13.9 -36.45,-13.9 -6.55,0 -14.71,1.22 -24.46,3.67 l 3.31,-12.5 c 9.99,-2.1 18.32,-3.16 24.98,-3.16 14.54,0 28.22,3.38 41.02,10.16 12.83,6.77 22.73,15.73 29.73,26.89 7.01,11.15 10.49,22.78 10.49,34.87 0,16.66 -6.06,29.86 -18.13,39.63 -12.22,9.77 -31.76,14.66 -58.63,14.66 -5.21,0 -12.87,-0.23 -22.96,-0.68 -15.33,-0.66 -29.24,-1 -41.8,-1 -21.3,0 -38.9,0.29 -52.76,0.84 v -10.49 h 8.31 c 10.99,0 17.9,-1.61 20.73,-4.83 2.82,-3.22 4.37,-11.98 4.58,-26.3 l 0.49,-34.47 v -88.91 c -0.65,-26.97 -1.27,-43.09 -1.81,-48.36 -0.57,-5.27 -1.84,-8.77 -3.84,-10.49 -2.01,-1.71 -6.49,-2.58 -13.49,-2.58 h -14.97 v -10.492 c 25.41,0.773 43.1,1.172 53.1,1.172 11.32,0 26.82,-0.399 46.45,-1.172" /><path
         id="path64"
         style="fill:rgba(255,255,255,0.9);fill-rule:nonzero;stroke:none"
         d="m 2731.42,1066.56 c 8.33,5.81 27.92,12.05 58.78,18.69 l -0.32,-8.15 0.32,-36.86 c -6.88,-9.2 -14.13,-16.12 -21.72,-20.77 -7.61,-4.65 -15.57,-6.97 -23.88,-6.97 -7.57,0 -13.73,2.46 -18.49,7.39 -4.77,4.92 -7.16,11.49 -7.16,19.68 0,12.18 4.17,21.18 12.47,26.99 z m 2.67,-73.892 c 5.36,0 9.49,0.492 12.5,1.422 2.99,0.941 6.04,2.594 9.14,4.922 l 34.47,26.278 c 0.11,-4.88 0.17,-9.7 0.17,-14.48 l -0.17,-14.802 c 10.44,0.773 18.76,1.164 24.98,1.164 4.98,0 13.81,-0.391 26.49,-1.164 V 1007 h -13.01 c -4.42,0 -7.21,1.56 -8.31,4.66 -1.11,3.1 -1.8,19.57 -2.01,49.39 -0.33,31.6 -1.15,51.39 -2.5,59.37 -1.88,10.64 -7.52,19.4 -16.89,26.28 -9.39,6.87 -21.75,10.31 -37.04,10.31 -7,0 -13.57,-0.88 -19.74,-2.66 -6.16,-1.78 -13.34,-5 -21.54,-9.66 l -18.16,-10.33 0.15,-11.48 -0.15,-11.16 9.31,-2.49 c 2.67,7.27 5.62,14.87 8.85,22.8 3.97,2.61 8.3,4.57 12.96,5.88 4.68,1.29 9.66,1.95 14.99,1.95 13.99,0 24.76,-4.38 32.3,-13.15 5.99,-6.99 9.1,-17.54 9.32,-31.64 -36.18,-6.42 -59.22,-11.64 -69.18,-15.61 -9.93,-4 -17.58,-10.18 -22.97,-18.55 -5.39,-8.36 -8.07,-18.15 -8.07,-29.32 0,-11.86 3.78,-21.32 11.33,-28.35 7.53,-7.041 18.47,-10.572 32.78,-10.572" /><path
         id="path66"
         style="fill:rgba(255,255,255,0.9);fill-rule:nonzero;stroke:none"
         d="m 2946.72,996.012 v 9.658 h -10 c -8.24,0 -14.41,1.16 -18.65,3.49 -1.78,0.98 -2.87,3.42 -3.34,7.31 -1.21,10.53 -1.81,23.51 -1.81,38.91 0,23.39 0.91,39.06 2.85,47.05 1.83,7.99 5.58,14.19 11.17,18.62 5.58,4.43 11.64,6.65 18.14,6.65 4.91,0 9.07,-1.17 12.54,-3.49 3.52,-2.33 6.53,-6.33 9.06,-11.99 h 7.5 c 0.24,16.2 1.22,28.8 2.99,37.79 l 0.18,1.67 c 0,1.44 -0.78,2.49 -2.35,3.16 -3.24,1.45 -7.89,2.16 -14.02,2.16 -5.88,0 -11.52,-1.49 -16.87,-4.5 -5.34,-2.98 -11.12,-8.54 -17.37,-16.64 -5.19,-6.88 -10.07,-12.43 -14.51,-16.63 l 0.69,33.08 c 0,2.35 -0.24,3.85 -0.69,4.52 -0.43,0.67 -1.25,1.01 -2.48,1.01 -1,0 -2.26,-0.39 -3.83,-1.16 -6.56,-3 -14.04,-5.47 -22.48,-7.42 -8.44,-1.94 -18.02,-3.52 -28.81,-4.74 v -9.66 h 13.99 c 7.67,0 12.21,-1.49 13.67,-4.48 2.11,-4.68 3.14,-20.39 3.14,-47.13 0,-21.98 -0.39,-40.95 -1.17,-56.94 -0.43,-9.1 -1.4,-14.5 -2.91,-16.15 -1.5,-1.65 -5.06,-2.71 -10.72,-3.17 l -16,-1.32 v -9.658 c 14.44,0.769 29.05,1.16 43.79,1.16 15.22,0 31.29,-0.391 48.3,-1.16" /><path
         id="path68"
         style="fill:rgba(255,255,255,0.9);fill-rule:nonzero;stroke:none"
         d="m 3016.8,1219.43 c 1.68,-4.44 2.5,-25.09 2.5,-61.9 v -99.46 c 0,-28.49 -0.78,-44.34 -2.32,-47.55 -1.56,-3.25 -6.62,-4.85 -15.16,-4.85 h -9.84 v -9.662 l 44.39,1.172 c 5.1,0 15.67,-0.282 31.68,-0.84 l 9.01,-0.332 v 9.662 h -10.14 c -9.32,0 -14.9,1.77 -16.72,5.33 -1.86,3.55 -2.77,19.31 -2.77,47.27 v 21.15 h 2.18 c 11.06,-9.76 25.55,-23.57 43.4,-41.46 24.38,-24.41 39.85,-39.28 46.39,-44.612 11.5,2.777 22.09,6.332 31.76,10.662 v 7.49 c -3.69,0.42 -6.49,1.05 -8.52,1.87 -1.99,0.81 -4.33,2.34 -7.13,4.62 -4.55,3.66 -17.93,15.72 -40.09,36.15 -4.77,4.35 -17.6,17.34 -38.42,39 27.83,23.05 47.77,38.19 59.88,45.4 6.07,3.65 11.07,5.48 14.96,5.48 h 5.98 v 9.66 h -33.58 l -23.94,-22.48 c -12.95,-12.44 -21.29,-20.2 -24.94,-23.3 -7.09,-5.99 -15.69,-12.77 -25.75,-20.32 l -2.18,1.17 v 66.83 c 0.45,42.22 0.78,65.45 1.01,69.67 l 0.84,16.66 c 0,2.22 -0.9,3.34 -2.69,3.34 l -16.86,-5.26 c -17.36,-4.59 -30.7,-6.9 -40.06,-6.9 v -9.66 h 14.14 c 7.68,0 12,-1.31 12.99,-4" /><path
         id="path70"
         style="fill:rgba(255,255,255,0.9);fill-rule:nonzero;stroke:none"
         d="m 3189.97,999.07 c 16.99,-4.261 32.3,-6.402 45.93,-6.402 21.43,0 38.58,5.449 51.35,16.322 12.85,10.86 19.24,23.79 19.24,38.76 0,7.31 -1.54,13.81 -4.65,19.47 -3.1,5.64 -7.23,9.86 -12.34,12.64 -5.1,2.77 -15.63,5.76 -31.62,8.98 -21.64,4.34 -34.85,8.45 -39.59,12.34 -4.81,3.78 -7.21,9.39 -7.21,16.84 0,7.78 3.05,14.25 9.06,19.41 6.06,5.18 14.1,7.76 24.16,7.76 7.68,0 14.85,-1.67 21.6,-4.99 6.78,-3.34 11.37,-7.05 13.95,-11.16 1.91,-3.12 2.95,-9.55 3.18,-19.32 h 9.98 c 0.63,17.76 1.37,30.42 2.35,37.97 -15.49,6.21 -30.96,9.32 -46.57,9.32 -19.64,0 -34.86,-4.61 -45.56,-13.83 -10.74,-9.23 -16.12,-21.23 -16.12,-36.01 0,-7.88 1.78,-14.61 5.36,-20.16 3.53,-5.57 8.86,-10 15.95,-13.34 7.13,-3.33 21.7,-7.22 43.81,-11.66 11.88,-2.44 19.9,-5.72 24.14,-9.84 4.22,-4.1 6.31,-9.56 6.31,-16.32 0,-8.56 -3.59,-15.93 -10.82,-22.09 -7.21,-6.18 -16.52,-9.26 -27.95,-9.26 -8.89,0 -17.52,1.67 -25.92,5.01 -8.36,3.35 -14,6.8 -16.89,10.36 -1.54,2.13 -2.35,7.52 -2.35,16.23 v 10.86 h -10.29 l 0.16,-8.01 c 0,-6.01 -0.51,-14.41 -1.51,-25.19 -0.31,-4.23 -0.7,-7.19 -1.15,-8.85 l -0.51,-2.34 c 0,-1.57 1.49,-2.722 4.52,-3.5" /><path
         id="path72"
         style="fill:rgba(255,255,255,0.9);fill-rule:nonzero;stroke:none"
         d="m 3339.28,954.887 c 12.23,15.312 22.03,29.16 29.44,41.535 7.36,12.378 14.18,26.288 20.52,41.708 l -4.66,5 c -9.75,-3.88 -21.08,-7.38 -33.95,-10.5 -1.56,-14.09 -4.59,-27.18 -9.08,-39.275 -4.49,-12.113 -11.58,-25.589 -21.23,-40.472 l 4.98,-5.156 13.98,7.16" /><path
         id="path74"
         style="fill:rgba(255,255,255,0.9);fill-rule:nonzero;stroke:none"
         d="m 2565.73,667.051 v 10.5 h -12.98 c -10.31,0 -16.41,2.14 -18.3,6.41 -1.89,4.269 -2.83,26 -2.83,65.184 v 80.41 c 0,20.097 0.65,38.965 2,56.605 11.76,4.332 23.46,6.5 35.13,6.5 16.74,0 29.56,-4.019 38.46,-12.07 8.86,-8.047 13.31,-19.231 13.31,-33.551 0,-15.992 -5.25,-28.754 -15.72,-38.285 -10.52,-9.543 -25.01,-14.316 -43.54,-14.316 -3.11,0 -7.88,0.273 -14.31,0.839 l -1.69,-5.664 c 12.55,-14.004 24.32,-28.32 35.32,-42.968 l 58.91,-79.594 c 7,0.781 13.66,1.179 19.99,1.179 6.89,0 14.93,-0.398 24.14,-1.179 v 10.5 h -4.34 c -1.99,0 -3.93,0.5 -5.81,1.5 -1.89,1 -5.67,5.051 -11.32,12.14 l -31.96,41.469 c -16.1,20.75 -29.59,38.965 -40.48,54.61 21.45,4.441 37.78,12.656 49.05,24.636 11.26,11.992 16.88,25.801 16.88,41.465 0,10.649 -2.58,19.809 -7.72,27.457 -5.17,7.672 -12.71,13.512 -22.66,17.574 -9.92,4.055 -24.49,6.078 -43.7,6.078 -6.99,0 -18.47,-0.277 -34.46,-0.839 -13.76,-0.543 -24.32,-0.821 -31.64,-0.821 -10.87,0 -26.64,0.379 -47.27,1.157 v -10.489 h 8.99 c 11.31,0 18,-2.05 20.05,-6.148 2.06,-4.11 3.08,-23.371 3.08,-57.785 v -80.078 c 0,-39.625 -0.88,-61.516 -2.65,-65.676 -1.79,-4.16 -7.43,-6.25 -16.99,-6.25 h -12.48 v -10.5 c 24.96,0.781 42.23,1.179 51.77,1.179 12.11,0 27.37,-0.398 45.77,-1.179" /><path
         id="path76"
         style="fill:rgba(255,255,255,0.9);fill-rule:nonzero;stroke:none"
         d="m 2739.23,802.59 c 7.43,9.101 17.38,13.652 29.81,13.652 7.98,0 15.04,-1.804 21.16,-5.41 6.07,-3.602 10.37,-8.133 12.79,-13.582 3.89,-8.75 5.82,-18.027 5.82,-27.793 v -9.336 c -7.76,-0.762 -15.8,-1.152 -24.12,-1.152 -20.76,0 -39.75,0.39 -56.96,1.152 0.23,19.219 4.08,33.359 11.5,42.469 z m 31.65,-138.871 c 10.31,0 20.37,1.34 30.12,4 9.76,2.672 19.25,6.66 28.48,12.011 l 5.31,13.961 -2.83,2.508 c -7.54,-5.097 -15.12,-8.929 -22.78,-11.488 -7.62,-2.563 -15.35,-3.832 -23.08,-3.832 -17.29,0 -31.27,5.672 -41.9,16.98 -10.63,11.332 -16.24,27.926 -16.79,49.801 h 41.57 c 21.06,0 37.5,0.43 49.36,1.309 6.66,0.554 13.62,1.719 20.94,3.504 l 0.33,9.816 c 0,20.781 -5.72,36.922 -17.22,48.457 -11.49,11.543 -27.06,17.324 -46.7,17.324 -12.99,0 -26.35,-3.84 -40.12,-11.496 -13.77,-7.664 -23.21,-15.984 -28.3,-24.98 -7.77,-13.641 -11.65,-29.793 -11.65,-48.446 0,-24.429 6.9,-43.75 20.73,-58.007 13.8,-14.282 31.99,-21.422 54.53,-21.422" /><path
         id="path78"
         style="fill:rgba(255,255,255,0.9);fill-rule:nonzero;stroke:none"
         d="m 2984.3,774.445 c 0.24,14.7 1.74,29.407 4.51,44.094 -7.11,3.574 -13.75,6.035 -19.88,7.422 -6.19,1.406 -13.53,2.09 -22.11,2.09 -11.17,0 -21.33,-2.051 -30.45,-6.153 -12.87,-5.781 -23.61,-11.652 -32.2,-17.656 -8.6,-5.988 -15.28,-14.289 -20.08,-24.883 -4.75,-10.605 -7.15,-23.066 -7.15,-37.375 0,-16.211 3.1,-30.183 9.33,-41.964 6.23,-11.77 15.02,-20.739 26.37,-26.969 11.39,-6.211 25.24,-9.332 41.56,-9.332 8.3,0 16.49,1.031 24.46,3.082 8.02,2.07 15.76,5.16 23.32,9.258 l 6.83,10.66 -4.51,3.992 c -6.33,-3.231 -12.71,-5.672 -19.14,-7.332 -6.42,-1.68 -12.97,-2.5 -19.65,-2.5 -16.97,0 -30.84,6.371 -41.62,19.109 -11.99,14.094 -17.97,32.828 -17.97,56.207 0,18.184 4.05,31.856 12.15,40.996 8.11,9.141 19.63,13.731 34.61,13.731 8.67,0 16.68,-1.457 23.99,-4.336 7.32,-2.891 12.01,-5.801 14.06,-8.742 2.07,-2.938 3.1,-7.969 3.1,-15.078 v -8.321 h 10.47" /><path
         id="path80"
         style="fill:rgba(255,255,255,0.9);fill-rule:nonzero;stroke:none"
         d="m 3128.81,821.078 0.2,1.66 c 0,1.426 -0.78,2.5 -2.34,3.153 -3.27,1.457 -7.92,2.168 -14.05,2.168 -5.9,0 -11.52,-1.493 -16.83,-4.5 -5.36,-2.989 -11.14,-8.536 -17.37,-16.641 -5.23,-6.887 -10.08,-12.422 -14.53,-16.641 l 0.67,33.094 c 0,2.356 -0.22,3.84 -0.67,4.524 -0.45,0.664 -1.29,0.996 -2.5,0.996 -0.99,0 -2.28,-0.391 -3.83,-1.172 -6.54,-3 -14.04,-5.449 -22.48,-7.403 -8.41,-1.945 -18.02,-3.527 -28.79,-4.726 v -9.668 h 13.99 c 7.65,0 12.21,-1.504 13.65,-4.492 2.11,-4.668 3.15,-20.371 3.15,-47.121 0,-21.981 -0.4,-40.957 -1.16,-56.938 -0.45,-9.109 -1.4,-14.5 -2.93,-16.16 -1.48,-1.672 -5.06,-2.723 -10.72,-3.16 l -15.98,-1.332 v -9.66 c 14.44,0.773 29.03,1.171 43.77,1.171 15.24,0 31.31,-0.398 48.3,-1.171 v 9.66 h -10 c -8.2,0 -14.43,1.16 -18.65,3.5 -1.76,0.972 -2.87,3.422 -3.32,7.312 -1.23,10.528 -1.83,23.489 -1.83,38.899 0,23.398 0.93,39.07 2.83,47.05 1.85,7.989 5.6,14.2 11.19,18.633 5.59,4.414 11.66,6.641 18.16,6.641 4.89,0 9.07,-1.172 12.56,-3.477 3.48,-2.343 6.47,-6.347 9.04,-12.011 h 7.49 c 0.21,16.211 1.25,28.816 2.98,37.812" /><path
         id="path82"
         style="fill:rgba(255,255,255,0.9);fill-rule:nonzero;stroke:none"
         d="m 3182.43,802.59 c 7.46,9.101 17.36,13.652 29.82,13.652 7.97,0 15.04,-1.804 21.11,-5.41 6.12,-3.602 10.39,-8.133 12.84,-13.582 3.88,-8.75 5.84,-18.027 5.84,-27.793 v -9.336 c -7.78,-0.762 -15.82,-1.152 -24.14,-1.152 -20.77,0 -39.75,0.39 -56.96,1.152 0.22,19.219 4.05,33.359 11.49,42.469 z m -31.96,-10.996 c -7.77,-13.641 -11.66,-29.793 -11.66,-48.446 0,-24.429 6.94,-43.75 20.73,-58.007 13.82,-14.282 31.99,-21.422 54.53,-21.422 10.33,0 20.37,1.34 30.13,4 9.75,2.672 19.24,6.66 28.48,12.011 l 5.33,13.961 -2.83,2.508 c -7.56,-5.097 -15.12,-8.929 -22.77,-11.488 -7.66,-2.563 -15.37,-3.832 -23.11,-3.832 -17.26,0 -31.27,5.672 -41.89,16.98 -10.63,11.332 -16.25,27.926 -16.8,49.801 h 41.58 c 21.06,0 37.5,0.43 49.36,1.309 6.64,0.554 13.63,1.719 20.94,3.504 l 0.33,9.816 c 0,20.781 -5.73,36.922 -17.21,48.457 -11.5,11.543 -27.05,17.324 -46.7,17.324 -12.99,0 -26.35,-3.84 -40.14,-11.496 -13.77,-7.664 -23.2,-15.984 -28.3,-24.98" /><path
         id="path84"
         style="fill:rgba(255,255,255,0.9);fill-rule:nonzero;stroke:none"
         d="m 3404.2,711.289 c -6.91,-9.199 -14.1,-16.109 -21.73,-20.758 -7.6,-4.652 -15.59,-6.98 -23.89,-6.98 -7.56,0 -13.71,2.461 -18.48,7.39 -4.78,4.918 -7.17,11.469 -7.17,19.688 0,12.172 4.18,21.172 12.52,26.992 8.32,5.801 27.91,12.031 58.75,18.672 l -0.33,-8.145 z m 30.14,-28.578 c -1.09,3.09 -1.78,19.57 -2.01,49.383 -0.33,31.601 -1.19,51.406 -2.48,59.375 -1.9,10.644 -7.54,19.394 -16.9,26.277 -9.41,6.887 -21.73,10.305 -37.05,10.305 -6.99,0 -13.59,-0.879 -19.72,-2.656 -6.18,-1.778 -13.34,-5 -21.57,-9.661 l -18.16,-10.32 0.16,-11.484 -0.16,-11.164 9.34,-2.489 c 2.67,7.266 5.6,14.883 8.82,22.813 3.99,2.605 8.31,4.57 12.97,5.867 4.67,1.289 9.65,1.965 14.98,1.965 14.01,0 24.75,-4.395 32.31,-13.164 6.01,-6.985 9.1,-17.539 9.33,-31.633 -36.19,-6.434 -59.23,-11.641 -69.18,-15.613 -9.92,-4.016 -17.61,-10.188 -22.96,-18.547 -5.38,-8.36 -8.09,-18.156 -8.09,-29.344 0,-11.851 3.77,-21.289 11.33,-28.32 7.52,-7.031 18.45,-10.571 32.79,-10.571 5.33,0 9.49,0.469 12.5,1.411 2.99,0.949 6.04,2.578 9.12,4.918 l 34.49,26.293 c 0.12,-4.891 0.16,-9.711 0.16,-14.481 l -0.16,-14.801 c 10.43,0.762 18.77,1.16 24.97,1.16 5.01,0 13.8,-0.398 26.48,-1.16 v 10.981 h -13.01 c -4.43,0 -7.21,1.558 -8.3,4.66" /><path
         id="path86"
         style="fill:rgba(255,255,255,0.9);fill-rule:nonzero;stroke:none"
         d="m 3496.94,733.148 -0.67,-32.128 c 0,-9.532 1.29,-16.661 3.85,-21.379 2.56,-4.743 6.68,-8.559 12.38,-11.493 5.69,-2.929 12.66,-4.418 20.9,-4.418 3.11,0 6.35,0.329 9.71,1 3.34,0.668 6.8,1.602 10.33,2.821 l 16.25,19.031 -4.82,5.789 c -3.01,-2.539 -6.02,-4.473 -9.06,-5.75 -3.07,-1.269 -6.2,-1.91 -9.42,-1.91 -5.23,0 -9.53,1.328 -12.93,4 -3.36,2.68 -5.6,6.391 -6.74,11.18 -1.09,4.769 -1.64,15.668 -1.64,32.671 v 65.36 h 5.82 l 31.98,0.168 6.81,-0.168 1.84,17.148 -13.3,-0.652 c -8.58,-0.352 -19.61,-0.52 -33.15,-0.52 0.98,32.297 1.94,52.786 2.84,61.45 l -4.36,3.32 c -5.72,-3.32 -15.02,-7.707 -27.97,-13.148 0.8,-18.54 1.23,-35.743 1.35,-51.622 -8.11,-3.992 -16.94,-7.8 -26.49,-11.472 v -7.149 c 9.13,0.762 17.97,1.141 26.49,1.141 v -63.27" /><path
         id="path88"
         style="fill:rgba(255,255,255,0.9);fill-rule:nonzero;stroke:none"
         d="m 3624.15,864.691 c 5.09,0 9.49,1.821 13.12,5.489 3.67,3.66 5.51,8.097 5.51,13.32 0,5.207 -1.84,9.691 -5.51,13.398 -3.63,3.719 -8.03,5.59 -13.12,5.59 -5.24,0 -9.67,-1.871 -13.34,-5.59 -3.66,-3.707 -5.49,-8.191 -5.49,-13.398 0,-5.223 1.83,-9.66 5.49,-13.32 3.67,-3.668 8.1,-5.489 13.34,-5.489" /><path
         id="path90"
         style="fill:rgba(255,255,255,0.9);fill-rule:nonzero;stroke:none"
         d="m 3666.76,676.719 -11.33,1.492 c -6.32,0.789 -10.31,1.949 -11.99,3.5 -1.66,1.551 -2.69,4.328 -3.16,8.328 -1,10.211 -1.51,22.531 -1.51,36.957 0,15.43 0.4,39.356 1.2,71.758 0.21,10 0.7,19.16 1.48,27.48 l -3.98,2.481 c -10.1,-3.945 -18.34,-6.738 -24.75,-8.379 -6.39,-1.641 -16.33,-3.457 -29.86,-5.43 v -9.668 h 12.48 c 5.97,0 9.84,-0.703 11.56,-2.16 1.74,-1.453 2.69,-3.894 2.91,-7.351 0.55,-9.336 0.84,-22.637 0.84,-39.883 0,-24.824 -0.29,-44.293 -0.84,-58.422 -0.31,-9.141 -1.13,-14.512 -2.38,-16.113 -1.29,-1.618 -4.73,-2.661 -10.26,-3.098 l -14.31,-1.492 v -9.668 c 13.32,0.781 26.5,1.179 39.63,1.179 13.32,0 28.06,-0.398 44.27,-1.179 v 9.668" /><path
         id="path92"
         style="fill:rgba(255,255,255,0.9);fill-rule:nonzero;stroke:none"
         d="m 3804.03,690.879 c -8.28,-10.219 -19.12,-15.32 -32.54,-15.32 -17.66,0 -31.17,8.152 -40.55,24.402 -9.39,16.289 -14.08,35.883 -14.08,58.773 0,11.883 2.29,22.891 6.84,33.008 3.3,7.442 8.53,13.387 15.58,17.832 7.03,4.442 14.94,6.68 23.69,6.68 9.87,0 18.83,-2.813 26.8,-8.438 8.01,-5.605 14.45,-14.55 19.34,-26.828 4.88,-12.293 7.32,-26.804 7.32,-43.601 0,-20.766 -4.12,-36.278 -12.4,-46.508 z m 43.87,60.266 c 0,23.3 -7.09,41.953 -21.31,55.949 -14.18,13.972 -33.11,20.965 -56.78,20.965 -16.31,0 -30.88,-3.504 -43.69,-10.497 -12.83,-6.984 -22.79,-16.66 -29.88,-29.042 -7.13,-12.375 -10.67,-26.223 -10.67,-41.543 0,-25.649 6.97,-45.918 20.9,-60.848 13.93,-14.938 31.99,-22.399 54.16,-22.399 23.12,0 42.93,7.27 59.45,21.821 18.56,16.187 27.82,38.066 27.82,65.594" /><path
         id="path94"
         style="fill:rgba(255,255,255,0.9);fill-rule:nonzero;stroke:none"
         d="m 3948.97,667.059 v 9.66 h -11.89 c -6.39,0 -10.94,1.293 -13.74,3.832 -1.44,1.328 -2.24,4.609 -2.36,9.808 -0.35,17.45 -0.49,36.305 -0.49,56.618 0,18.308 0.55,29.636 1.66,33.964 1.8,6.543 6.45,12.539 13.95,17.989 7.52,5.429 16.64,8.152 27.44,8.152 8.67,0 16.09,-1.883 22.29,-5.652 6.13,-3.789 10.52,-8.789 13.16,-15 2.6,-6.211 3.91,-16.758 3.91,-31.641 0,-36.84 -1.06,-66.09 -3.15,-87.73 9.61,0.773 18.63,1.171 27.03,1.171 8.65,0 18.89,-0.398 30.72,-1.171 v 9.66 h -11.89 c -6.09,0 -10.16,1.781 -12.27,5.32 -1.52,2.793 -2.28,13.223 -2.28,31.313 l 0.64,52.433 c 0,16.426 -1.87,28.516 -5.64,36.219 -3.79,7.707 -10.02,13.996 -18.67,18.808 -8.69,4.836 -18.99,7.239 -30.86,7.239 -7.35,0 -14.69,-1.211 -22.03,-3.653 -3.3,-1.222 -6.49,-3.164 -9.5,-5.839 l -25.19,-22.305 0.35,22.48 0.18,6.328 c 0,2.559 -0.9,3.829 -2.66,3.829 -0.9,0 -1.85,-0.227 -2.81,-0.664 -9.42,-3.887 -17.91,-6.758 -25.41,-8.665 -7.54,-1.882 -16.04,-3.378 -25.59,-4.5 v -9.648 h 11.99 c 7.23,0 11.61,-0.664 13.15,-1.992 1.58,-1.34 2.46,-3.77 2.67,-7.305 0.43,-10.762 0.69,-25.625 0.69,-44.57 0,-42.227 -0.74,-65.277 -2.07,-69.098 -1.43,-3.808 -6.21,-5.73 -14.44,-5.73 h -11.99 v -9.66 c 15,0.773 28.42,1.171 40.22,1.171 11.15,0 26.09,-0.398 44.88,-1.171" /><path
         id="path96"
         style="fill:rgba(255,255,255,0.9);fill-rule:nonzero;stroke:none"
         d="m 4135.61,719.512 c 3.54,14.074 7.54,25.676 11.91,34.758 2.19,4.55 4.07,7.187 5.47,7.929 5.06,2.149 10.69,3.215 16.9,3.215 2.79,0 5.76,-0.293 8.86,-0.976 3.09,-0.606 6.41,-1.602 9.95,-2.981 -3.6,-20.223 -8.68,-36.348 -15.45,-48.387 -5,-8.968 -11.9,-17.621 -20.67,-26.019 -8.67,-8.403 -14.72,-12.571 -18.02,-12.571 -1.18,0 -2.17,0.559 -2.99,1.79 -0.88,1.21 -1.31,3.242 -1.31,6.101 0,10.719 1.8,23.078 5.35,37.141 z m -14.2,-61.582 c 4.01,0 10.33,3.449 18.95,10.351 12.81,10.141 24.84,23.438 36.23,39.891 l 0.93,-0.082 c -5.37,-20.738 -8.06,-34.379 -8.06,-40.899 0,-2.82 0.53,-4.82 1.56,-6.07 1.04,-1.223 2.62,-1.859 4.79,-1.859 2.87,0 6.27,1.047 10.15,3.238 7.97,4.531 16.25,10.57 24.9,18.199 l -1.46,5.383 c -9.24,-7.66 -15.22,-11.492 -17.85,-11.492 -1.13,0 -1.96,0.41 -2.6,1.191 -0.64,0.778 -1,1.981 -1,3.5 0,3.758 1.27,11.75 3.7,23.86 4.29,21.043 10.35,45.183 18.2,72.332 l -2.81,1.785 -7.45,-4.188 c -4.12,1.407 -7.94,2.461 -11.6,3.184 -3.61,0.652 -7.05,1.004 -10.23,1.004 -7.38,0 -14.47,-1.844 -21.27,-5.613 -10.86,-5.997 -18.2,-11.641 -21.95,-16.887 -4.98,-6.961 -9.85,-18.653 -14.59,-35.008 -4.77,-16.371 -7.17,-30.48 -7.17,-42.27 0,-6.96 0.99,-12.289 3.05,-15.96 1.3,-2.379 3.22,-3.59 5.58,-3.59" /><path
         id="path98"
         style="fill:rgba(255,255,255,0.9);fill-rule:nonzero;stroke:none"
         d="m 4333.79,680.43 c -6.81,-4.782 -11.36,-7.141 -13.82,-7.141 -2.48,0 -3.72,1.191 -3.72,3.59 0,3.512 2.56,15.723 7.56,36.582 6.72,28.242 10.57,44.453 11.31,48.711 0.63,2.598 0.84,5.058 0.84,7.285 0,2.481 -0.62,4.434 -1.91,5.762 -1.27,1.394 -2.95,2.031 -5.14,2.031 -4.8,0 -11.46,-1.965 -19.9,-6.008 -8.5,-4.031 -17.38,-10.476 -26.68,-19.285 -9.32,-8.848 -17.48,-18.809 -24.38,-29.926 l 9.38,41.469 c 0.51,3.035 0.8,5.391 0.8,7.051 0,2.254 -0.51,3.933 -1.52,5.058 -0.98,1.102 -2.39,1.641 -4.26,1.641 -2.6,0 -5.61,-0.84 -8.93,-2.609 -7.34,-3.836 -17.5,-10.438 -30.35,-19.793 l 1.9,-4.981 c 10.23,7.324 16.89,10.996 19.88,10.996 1.21,0 2.17,-0.402 2.79,-1.281 0.67,-0.82 1,-2.09 1,-3.758 0,-4.726 -1.6,-15.703 -4.87,-32.953 -4.21,-22.461 -9.29,-43.402 -15.15,-62.883 l 1.95,-2.058 c 6.93,1.859 12.66,3.031 17.07,3.582 3.81,24.328 9.06,43.058 15.74,56.32 6.68,13.246 16.08,24.613 28.11,34.145 8.38,6.64 14.96,9.961 19.65,9.961 1.42,0 2.61,-0.489 3.44,-1.407 0.82,-0.89 1.25,-2.219 1.25,-3.898 0,-6.61 -3.74,-24.071 -11.18,-52.371 -5.25,-20.274 -7.91,-32.723 -7.91,-37.442 0,-2.781 0.69,-4.98 2.11,-6.511 1.33,-1.571 3.09,-2.379 5.37,-2.379 6.45,0 19.55,7.558 39.24,22.761 l -2.13,4.797 -7.54,-5.058" /><path
         id="path100"
         style="fill:rgba(255,255,255,0.9);fill-rule:nonzero;stroke:none"
         d="m 4384.18,721.32 c 3.46,13.489 7.56,24.856 12.41,34.024 2.18,4.172 4.45,6.906 6.83,8.293 4.01,2.207 9.22,3.301 15.69,3.301 7.14,0 15.11,-2.11 23.79,-6.329 -1.9,-16.757 -6.37,-31.789 -13.32,-45.058 -7.02,-13.321 -15.71,-24.102 -26.04,-32.352 -7.62,-5.988 -13.83,-8.969 -18.67,-8.969 -1.94,0 -3.38,0.891 -4.4,2.59 -0.99,1.719 -1.46,5.532 -1.46,11.41 0,8.551 1.72,19.579 5.17,33.09 z m -10.84,-63.39 c 5.49,0 14.36,4.609 26.68,13.91 12.35,9.301 23.42,21.98 33.34,38.211 -4.12,-17.719 -6.62,-28.742 -7.46,-33.063 -0.78,-4.328 -1.21,-7.828 -1.21,-10.558 0,-2.758 0.61,-4.918 1.78,-6.309 1.13,-1.48 2.6,-2.191 4.34,-2.191 6.52,0 19.49,7.89 39.02,23.73 l -3.03,4.262 c -9.88,-7.684 -16.64,-11.582 -20.25,-11.582 -1.02,0 -1.84,0.41 -2.38,1.23 -0.57,0.801 -0.86,2.11 -0.86,4.039 0,3.211 2.32,16.11 6.99,38.7 10.23,50.66 18.75,90.054 25.47,118.277 l -3.01,2.617 c -9.43,-4.941 -22.54,-8.535 -39.34,-10.762 l -0.66,-4.921 c 9.8,-0.098 15.64,-0.508 17.54,-1.29 1.37,-0.585 2.09,-1.914 2.09,-3.984 0,-2.492 -0.76,-7.844 -2.19,-16.164 l -4.57,-27.93 c -7.64,2.102 -14.06,3.098 -19.16,3.098 -9.24,0 -19.12,-3.77 -29.73,-11.27 -10.64,-7.589 -18.63,-17.871 -23.98,-30.929 -7.34,-17.93 -11.02,-35.571 -11.02,-52.879 0,-8.57 1.27,-14.942 3.85,-19.211 1.95,-3.34 4.57,-5.031 7.75,-5.031" /><path
         id="path102"
         style="fill:rgba(255,255,255,0.9);fill-rule:nonzero;stroke:none"
         d="m 2656.06,351.699 c -14.52,-3.437 -29.24,-5.16 -44.12,-5.16 -18.73,0 -36.57,4.891 -53.44,14.641 -16.86,9.781 -29.86,23.039 -39.04,39.8 -9.16,16.77 -13.74,35.86 -13.74,57.27 0,30.52 9.02,54.898 27.07,73.102 18.04,18.187 42.02,27.289 72,27.289 11.76,0 23.05,-1.61 33.89,-4.809 10.8,-3.223 21.16,-8.102 31.04,-14.672 l 1.32,-29.629 h 11.17 c 0.78,21.641 3.67,38.399 8.66,50.289 -6.56,1.219 -15.03,3.039 -25.48,5.489 -20.98,5.101 -39.28,7.66 -54.93,7.66 -29.86,0 -55.03,-5.09 -75.5,-15.231 -20.48,-10.156 -36.33,-24.488 -47.56,-42.949 -11.2,-18.48 -16.79,-39.437 -16.79,-62.848 0,-23.441 5.56,-44.441 16.65,-63.031 11.07,-18.59 26.98,-33.16 47.7,-43.699 20.68,-10.539 44.68,-15.813 72,-15.813 13.32,0 26.55,1.641 39.71,4.903 13.13,3.277 26.2,8.129 39.21,14.57 1.99,5.211 4.16,10.367 6.47,15.488 l -3.48,3.321 c -10.98,-8.09 -21.91,-13.418 -32.81,-15.981" /><path
         id="path104"
         style="fill:rgba(255,255,255,0.9);fill-rule:nonzero;stroke:none"
         d="m 2870.02,347.539 c -1.68,2.332 -2.5,11.602 -2.5,27.801 0,28.871 0.82,62.281 2.5,100.25 l 0.65,15.469 c 0,2.113 -0.92,3.152 -2.81,3.152 -0.88,0 -1.9,-0.281 -3.01,-0.832 -8.87,-3.547 -17.31,-6.219 -25.29,-7.988 -7.99,-1.77 -17.72,-3.332 -29.15,-4.661 v -9.16 h 13.13 c 8.91,0 13.91,-1.16 15,-3.48 1.25,-2.891 1.86,-20.758 1.86,-53.61 0,-19.558 -0.75,-31.25 -2.17,-35.14 -2.66,-6.77 -8.26,-13.481 -16.88,-20.149 -8.6,-6.66 -18.01,-9.98 -28.32,-9.98 -7.64,0 -14.1,1.848 -19.45,5.578 -5.33,3.711 -8.79,8.383 -10.45,13.981 -1.66,5.609 -2.5,18.5 -2.5,38.699 0,20.211 0.78,42.07 2.33,65.601 l 1.18,16.989 c 0,2.773 -0.96,4.152 -2.86,4.152 l -13.86,-5.16 c -12.8,-4.219 -26.76,-6.992 -41.89,-8.321 v -9.16 h 14.79 c 6.02,0 9.53,-1.05 10.6,-3.172 1.03,-2.097 1.56,-12.527 1.56,-31.289 l -0.49,-26.808 c -0.33,-9.981 -0.5,-18.75 -0.5,-26.289 0,-14.551 1.63,-25.184 4.91,-31.891 3.28,-6.723 8.48,-12.191 15.71,-16.41 7.18,-4.223 15.79,-6.313 25.74,-6.313 11.68,0 21.43,1.684 29.36,5.063 7.91,3.398 15.72,9.238 23.38,17.57 l 9.81,10.668 -1.86,-29.98 c 7.25,0.781 14.43,1.172 21.64,1.172 9.67,0 21.45,-0.391 35.31,-1.172 v 9.672 h -9.66 c -8.09,0 -13.38,1.711 -15.81,5.148" /><path
         id="path106"
         style="fill:rgba(255,255,255,0.9);fill-rule:nonzero;stroke:none"
         d="m 2970.06,348.359 c -1.42,4.551 -2.14,23.821 -2.14,57.782 v 85.578 c 0,26.301 0.95,55.703 2.83,88.242 l -2.83,2 c -13.81,-6.551 -32.31,-10.879 -55.45,-12.981 v -9.992 h 13.67 c 5.64,0 9.35,-0.898 11.13,-2.679 1.23,-1.207 1.84,-4.539 1.84,-9.977 l 0.5,-21.801 0.16,-31.972 v -85.098 c 0,-35.063 -0.72,-54.762 -2.17,-59.102 -0.88,-2.648 -4.49,-4.257 -10.82,-4.808 l -14.31,-1.16 v -9.672 c 19.8,0.781 35.82,1.179 48.02,1.179 11.04,0 22.6,-0.398 34.71,-1.179 v 9.672 l -14.12,1.48 c -6.58,0.68 -10.24,2.168 -11.02,4.488" /><path
         id="path108"
         style="fill:rgba(255,255,255,0.9);fill-rule:nonzero;stroke:none"
         d="m 3065.47,479.559 c 1.02,32.3 1.94,52.793 2.82,61.441 l -4.34,3.34 c -5.7,-3.34 -15.02,-7.719 -27.93,-13.16 0.74,-18.539 1.23,-35.75 1.33,-51.621 -8.11,-3.969 -16.93,-7.821 -26.47,-11.469 v -7.168 c 9.09,0.777 17.91,1.156 26.47,1.156 v -63.269 l -0.67,-32.129 c 0,-9.532 1.27,-16.68 3.85,-21.379 2.56,-4.711 6.68,-8.563 12.39,-11.492 5.66,-2.95 12.65,-4.411 20.87,-4.411 3.15,0 6.35,0.332 9.73,0.993 3.32,0.668 6.8,1.609 10.35,2.828 l 16.23,19.031 -4.84,5.781 c -2.99,-2.562 -6.02,-4.472 -9.06,-5.742 -3.05,-1.289 -6.2,-1.937 -9.42,-1.937 -5.21,0 -9.49,1.347 -12.89,4.007 -3.4,2.661 -5.64,6.379 -6.76,11.192 -1.09,4.769 -1.66,15.668 -1.66,32.66 v 65.379 h 5.84 l 31.96,0.172 6.83,-0.172 1.82,17.14 -13.3,-0.671 c -8.54,-0.329 -19.61,-0.5 -33.15,-0.5" /><path
         id="path110"
         style="fill:rgba(255,255,255,0.9);fill-rule:nonzero;stroke:none"
         d="m 3286.08,347.539 c -1.64,2.332 -2.5,11.602 -2.5,27.801 0,28.871 0.86,62.281 2.5,100.25 l 0.66,15.469 c 0,2.113 -0.95,3.152 -2.81,3.152 -0.92,0 -1.87,-0.281 -3.01,-0.832 -8.88,-3.547 -17.32,-6.219 -25.29,-7.988 -8.05,-1.77 -17.71,-3.332 -29.14,-4.661 v -9.16 h 13.14 c 8.87,0 13.85,-1.16 14.96,-3.48 1.24,-2.891 1.86,-20.758 1.86,-53.61 0,-19.558 -0.72,-31.25 -2.19,-35.14 -2.63,-6.77 -8.26,-13.481 -16.85,-20.149 -8.58,-6.66 -18.01,-9.98 -28.3,-9.98 -7.68,0 -14.12,1.848 -19.46,5.578 -5.33,3.711 -8.81,8.383 -10.47,13.981 -1.66,5.609 -2.5,18.5 -2.5,38.699 0,20.211 0.79,42.07 2.35,65.601 l 1.13,16.989 c 0,2.773 -0.92,4.152 -2.79,4.152 l -13.89,-5.16 c -12.79,-4.219 -26.74,-6.992 -41.87,-8.321 v -9.16 h 14.8 c 5.98,0 9.51,-1.05 10.59,-3.172 1.01,-2.097 1.56,-12.527 1.56,-31.289 l -0.49,-26.808 c -0.33,-9.981 -0.51,-18.75 -0.51,-26.289 0,-14.551 1.62,-25.184 4.93,-31.891 3.26,-6.723 8.47,-12.191 15.68,-16.41 7.19,-4.223 15.8,-6.313 25.76,-6.313 11.64,0 21.43,1.684 29.36,5.063 7.91,3.398 15.7,9.238 23.36,17.57 l 9.8,10.668 -1.86,-29.98 c 7.23,0.781 14.46,1.172 21.65,1.172 9.68,0 21.44,-0.391 35.31,-1.172 v 9.672 h -9.65 c -8.13,0 -13.36,1.711 -15.82,5.148" /><path
         id="path112"
         style="fill:rgba(255,255,255,0.9);fill-rule:nonzero;stroke:none"
         d="m 3446.24,491.559 c -3.25,1.429 -7.91,2.16 -14.05,2.16 -5.88,0 -11.5,-1.489 -16.81,-4.5 -5.39,-2.989 -11.14,-8.528 -17.39,-16.637 -5.23,-6.883 -10.09,-12.441 -14.51,-16.66 l 0.69,33.109 c 0,2.36 -0.26,3.848 -0.69,4.528 -0.43,0.66 -1.29,0.992 -2.5,0.992 -0.99,0 -2.28,-0.403 -3.85,-1.172 -6.52,-2.988 -14.02,-5.469 -22.46,-7.399 -8.42,-1.929 -18.04,-3.519 -28.81,-4.75 v -9.66 h 13.99 c 7.65,0 12.19,-1.488 13.65,-4.48 2.11,-4.668 3.17,-20.371 3.17,-47.129 0,-21.973 -0.4,-40.941 -1.16,-56.949 -0.43,-9.082 -1.42,-14.473 -2.91,-16.153 -1.5,-1.66 -5.1,-2.711 -10.74,-3.16 l -16,-1.308 v -9.672 c 14.44,0.781 29.05,1.172 43.79,1.172 15.24,0 31.31,-0.391 48.28,-1.172 v 9.672 h -10.01 c -8.19,0 -14.4,1.148 -18.62,3.488 -1.78,0.98 -2.87,3.441 -3.32,7.332 -1.23,10.5 -1.81,23.461 -1.81,38.891 0,23.367 0.91,39.07 2.79,47.039 1.87,7.988 5.58,14.179 11.21,18.621 5.58,4.429 11.64,6.66 18.18,6.66 4.85,0 9.03,-1.184 12.54,-3.5 3.48,-2.332 6.47,-6.332 9.03,-11.992 h 7.48 c 0.23,16.211 1.21,28.808 3.02,37.789 l 0.18,1.679 c 0,1.442 -0.8,2.481 -2.36,3.161" /><path
         id="path114"
         style="fill:rgba(255,255,255,0.9);fill-rule:nonzero;stroke:none"
         d="m 3566.63,376.961 c -6.92,-9.223 -14.13,-16.129 -21.74,-20.77 -7.62,-4.64 -15.57,-6.98 -23.89,-6.98 -7.54,0 -13.73,2.461 -18.48,7.371 -4.78,4.949 -7.14,11.488 -7.14,19.707 0,12.16 4.16,21.152 12.46,26.973 8.34,5.82 27.93,12.039 58.79,18.718 l -0.36,-8.171 z m 30.11,-28.59 c -1.09,3.117 -1.75,19.559 -1.99,49.41 -0.31,31.559 -1.17,51.379 -2.5,59.36 -1.87,10.64 -7.54,19.371 -16.91,26.25 -9.36,6.89 -21.7,10.32 -37.01,10.32 -7.02,0 -13.58,-0.879 -19.73,-2.652 -6.19,-1.778 -13.38,-5 -21.58,-9.661 l -18.15,-10.316 0.18,-11.492 -0.18,-11.16 9.34,-2.5 c 2.65,7.281 5.58,14.89 8.81,22.82 3.98,2.609 8.32,4.531 12.98,5.879 4.67,1.269 9.67,1.953 15,1.953 13.99,0 24.75,-4.402 32.29,-13.16 5.98,-7 9.08,-17.543 9.34,-31.633 -36.21,-6.437 -59.24,-11.66 -69.2,-15.641 -9.93,-3.976 -17.6,-10.179 -22.95,-18.527 -5.39,-8.34 -8.09,-18.141 -8.09,-29.34 0,-11.859 3.79,-21.301 11.33,-28.359 7.54,-7 18.46,-10.524 32.81,-10.524 5.31,0 9.49,0.473 12.46,1.403 2.99,0.949 6.04,2.59 9.16,4.929 l 34.48,26.258 c 0.09,-4.879 0.15,-9.679 0.15,-14.449 l -0.15,-14.82 c 10.43,0.781 18.75,1.172 24.96,1.172 5,0 13.83,-0.391 26.46,-1.172 v 10.992 h -12.99 c -4.41,0 -7.22,1.551 -8.32,4.66" /><path
         id="path116"
         style="fill:rgba(255,255,255,0.9);fill-rule:nonzero;stroke:none"
         d="m 3691.31,348.359 c -1.44,4.551 -2.16,23.821 -2.16,57.782 v 85.578 c 0,26.301 0.95,55.703 2.83,88.242 l -2.83,2 c -13.79,-6.551 -32.27,-10.879 -55.45,-12.981 v -9.992 h 13.67 c 5.64,0 9.39,-0.898 11.15,-2.679 1.23,-1.207 1.84,-4.539 1.84,-9.977 l 0.5,-21.801 0.16,-31.972 v -85.098 c 0,-35.063 -0.7,-54.762 -2.17,-59.102 -0.88,-2.648 -4.47,-4.257 -10.82,-4.808 l -14.33,-1.16 v -9.672 c 19.82,0.781 35.86,1.179 48.02,1.179 11.04,0 22.62,-0.398 34.73,-1.179 v 9.672 l -14.14,1.48 c -6.54,0.68 -10.22,2.168 -11,4.488" /><path
         id="path118"
         style="fill:rgba(255,255,255,0.9);fill-rule:nonzero;stroke:none"
         d="m 4025.12,344.711 c -1.87,1 -5.64,5.039 -11.29,12.148 l -31.99,41.461 c -16.07,20.762 -29.59,38.961 -40.47,54.61 21.47,4.441 37.78,12.648 49.05,24.64 11.26,11.981 16.91,25.809 16.91,41.461 0,10.649 -2.58,19.809 -7.75,27.481 -5.18,7.629 -12.72,13.488 -22.62,17.547 -9.96,4.05 -24.51,6.082 -43.73,6.082 -6.99,0 -18.5,-0.27 -34.48,-0.84 -13.75,-0.551 -24.29,-0.832 -31.64,-0.832 -10.86,0 -26.62,0.39 -47.24,1.172 V 559.16 h 8.96 c 11.33,0 17.99,-2.07 20.08,-6.16 2.03,-4.109 3.09,-23.371 3.09,-57.781 v -80.078 c 0,-39.629 -0.88,-61.52 -2.7,-65.68 -1.76,-4.16 -7.42,-6.231 -16.97,-6.231 h -12.46 v -10.511 c 24.96,0.781 42.21,1.172 51.76,1.172 12.09,0 27.36,-0.391 45.78,-1.172 v 10.511 h -12.97 c -10.33,0 -16.45,2.122 -18.32,6.399 -1.9,4.262 -2.83,25.992 -2.83,65.172 v 80.418 c 0,20.082 0.64,38.961 2.01,56.621 11.74,4.308 23.47,6.48 35.12,6.48 16.75,0 29.57,-4.031 38.45,-12.09 8.87,-8.019 13.3,-19.218 13.3,-33.519 0,-16 -5.23,-28.762 -15.7,-38.301 -10.53,-9.558 -25,-14.32 -43.54,-14.32 -3.1,0 -7.89,0.262 -14.33,0.832 l -1.64,-5.641 c 12.52,-14 24.29,-28.32 35.25,-42.972 l 58.97,-79.59 c 6.99,0.781 13.67,1.172 19.96,1.172 6.89,0 14.96,-0.391 24.16,-1.172 v 10.511 h -4.34 c -1.99,0 -3.94,0.481 -5.84,1.481" /><path
         id="path120"
         style="fill:rgba(255,255,255,0.9);fill-rule:nonzero;stroke:none"
         d="m 4090.88,468.238 c 7.45,9.114 17.39,13.66 29.81,13.66 8.01,0 15.04,-1.808 21.17,-5.41 6.07,-3.617 10.35,-8.136 12.81,-13.566 3.89,-8.774 5.82,-18.031 5.82,-27.813 v -9.32 c -7.77,-0.777 -15.82,-1.168 -24.14,-1.168 -20.76,0 -39.72,0.391 -56.93,1.168 0.21,19.199 4.04,33.352 11.46,42.449 z m 92.78,-106.379 c -7.56,-5.109 -15.14,-8.949 -22.8,-11.507 -7.65,-2.543 -15.35,-3.821 -23.08,-3.821 -17.29,0 -31.27,5.68 -41.94,16.989 -10.58,11.312 -16.21,27.929 -16.77,49.781 h 41.58 c 21.05,0 37.52,0.437 49.35,1.32 6.67,0.559 13.66,1.731 20.96,3.508 l 0.33,9.832 c 0,20.75 -5.74,36.891 -17.22,48.449 -11.49,11.531 -27.03,17.309 -46.68,17.309 -12.99,0 -26.41,-3.828 -40.18,-11.489 -13.75,-7.66 -23.18,-15.98 -28.3,-24.98 -7.75,-13.648 -11.62,-29.801 -11.62,-48.441 0,-24.43 6.91,-43.758 20.72,-58.028 13.81,-14.25 31.99,-21.383 54.53,-21.383 10.34,0 20.36,1.332 30.12,3.981 9.77,2.68 19.28,6.672 28.48,11.992 l 5.35,13.988 -2.83,2.5" /><path
         id="path122"
         style="fill:rgba(255,255,255,0.9);fill-rule:nonzero;stroke:none"
         d="m 4334.13,384.461 c 0,7.309 -1.55,13.801 -4.67,19.461 -3.07,5.668 -7.21,9.887 -12.31,12.637 -5.11,2.793 -15.62,5.793 -31.62,9.011 -21.66,4.321 -34.84,8.442 -39.63,12.301 -4.78,3.801 -7.18,9.399 -7.18,16.859 0,7.77 3.08,14.239 9.06,19.391 6.07,5.199 14.12,7.777 24.18,7.777 7.67,0 14.84,-1.679 21.58,-4.976 6.76,-3.34 11.41,-7.051 13.96,-11.184 1.9,-3.097 2.95,-9.547 3.17,-19.308 h 9.96 c 0.62,17.761 1.43,30.41 2.36,37.968 -15.49,6.211 -30.97,9.313 -46.52,9.313 -19.69,0 -34.9,-4.609 -45.61,-13.813 -10.7,-9.226 -16.09,-21.25 -16.09,-36.007 0,-7.879 1.78,-14.602 5.33,-20.153 3.54,-5.566 8.89,-10.027 15.98,-13.347 7.09,-3.36 21.72,-7.243 43.79,-11.68 11.89,-2.441 19.92,-5.723 24.14,-9.832 4.22,-4.109 6.31,-9.539 6.31,-16.309 0,-8.582 -3.58,-15.929 -10.8,-22.09 -7.21,-6.199 -16.53,-9.269 -27.97,-9.269 -8.91,0 -17.54,1.66 -25.9,5 -8.36,3.359 -14.02,6.828 -16.9,10.371 -1.56,2.09 -2.32,7.52 -2.32,16.219 v 10.847 h -10.33 l 0.15,-7.976 c 0,-6.024 -0.46,-14.422 -1.48,-25.192 -0.33,-4.242 -0.72,-7.218 -1.17,-8.878 l -0.51,-2.332 c 0,-1.551 1.52,-2.719 4.51,-3.508 16.98,-4.231 32.31,-6.364 45.94,-6.364 21.43,0 38.55,5.434 51.37,16.313 12.83,10.848 19.22,23.777 19.22,38.75" /><path
         id="path124"
         style="fill:rgba(255,255,255,0.9);fill-rule:nonzero;stroke:none"
         d="m 4476.08,356.551 c -8.28,-10.231 -19.1,-15.34 -32.54,-15.34 -17.66,0 -31.17,8.16 -40.55,24.418 -9.39,16.262 -14.08,35.859 -14.08,58.769 0,11.872 2.27,22.872 6.86,33 3.28,7.454 8.49,13.403 15.52,17.832 7.07,4.45 14.96,6.668 23.75,6.668 9.87,0 18.81,-2.796 26.8,-8.429 7.99,-5.617 14.41,-14.547 19.36,-26.809 4.84,-12.289 7.26,-26.801 7.26,-43.621 0,-20.758 -4.12,-36.277 -12.38,-46.488 z m -34.2,137.16 c -16.35,0 -30.9,-3.492 -43.71,-10.481 -12.83,-7 -22.79,-16.679 -29.9,-29.05 -7.11,-12.379 -10.65,-26.231 -10.65,-41.539 0,-25.653 6.96,-45.922 20.9,-60.852 13.95,-14.93 31.97,-22.398 54.18,-22.398 23.09,0 42.89,7.269 59.43,21.8 18.54,16.207 27.82,38.09 27.82,65.61 0,23.308 -7.09,41.949 -21.31,55.937 -14.2,13.981 -33.13,20.973 -56.76,20.973" /><path
         id="path126"
         style="fill:rgba(255,255,255,0.9);fill-rule:nonzero;stroke:none"
         d="m 4564.56,384.012 c 0,-14.551 1.68,-25.184 4.92,-31.891 3.26,-6.723 8.47,-12.191 15.72,-16.41 7.17,-4.223 15.78,-6.313 25.74,-6.313 11.66,0 21.41,1.684 29.36,5.063 7.89,3.398 15.7,9.238 23.34,17.57 l 9.8,10.668 -1.81,-29.98 c 7.2,0.781 14.41,1.172 21.66,1.172 9.63,0 21.4,-0.391 35.25,-1.172 v 9.672 h -9.65 c -8.12,0 -13.36,1.711 -15.78,5.148 -1.7,2.332 -2.54,11.602 -2.54,27.801 0,28.871 0.84,62.281 2.54,100.25 l 0.63,15.469 c 0,2.113 -0.92,3.152 -2.82,3.152 -0.9,0 -1.91,-0.281 -2.99,-0.832 -8.88,-3.547 -17.32,-6.219 -25.31,-7.988 -7.99,-1.77 -17.71,-3.332 -29.14,-4.661 v -9.16 h 13.17 c 8.86,0 13.86,-1.16 14.98,-3.48 1.25,-2.891 1.81,-20.758 1.81,-53.61 0,-19.558 -0.72,-31.25 -2.17,-35.14 -2.65,-6.77 -8.26,-13.481 -16.85,-20.149 -8.58,-6.66 -18.01,-9.98 -28.3,-9.98 -7.68,0 -14.14,1.848 -19.45,5.578 -5.36,3.711 -8.81,8.383 -10.45,13.981 -1.68,5.609 -2.52,18.5 -2.52,38.699 0,20.211 0.78,42.07 2.34,65.601 l 1.15,16.989 c 0,2.773 -0.92,4.152 -2.83,4.152 l -13.87,-5.16 c -12.77,-4.219 -26.74,-6.992 -41.89,-8.321 v -9.16 h 14.8 c 6,0 9.53,-1.05 10.57,-3.172 1.07,-2.097 1.58,-12.527 1.58,-31.289 l -0.51,-26.808 c -0.29,-9.981 -0.48,-18.75 -0.48,-26.289" /><path
         id="path128"
         style="fill:rgba(255,255,255,0.9);fill-rule:nonzero;stroke:none"
         d="m 4863.25,491.559 c -3.25,1.429 -7.89,2.16 -14.03,2.16 -5.88,0 -11.52,-1.489 -16.85,-4.5 -5.37,-2.989 -11.13,-8.528 -17.35,-16.637 -5.23,-6.883 -10.09,-12.441 -14.55,-16.66 l 0.69,33.109 c 0,2.36 -0.24,3.848 -0.69,4.528 -0.41,0.66 -1.23,0.992 -2.5,0.992 -0.99,0 -2.26,-0.403 -3.79,-1.172 -6.58,-2.988 -14.08,-5.469 -22.5,-7.399 -8.45,-1.929 -18.02,-3.519 -28.8,-4.75 v -9.66 h 13.98 c 7.66,0 12.21,-1.488 13.67,-4.48 2.09,-4.668 3.13,-20.371 3.13,-47.129 0,-21.973 -0.37,-40.941 -1.14,-56.949 -0.44,-9.082 -1.42,-14.473 -2.91,-16.153 -1.52,-1.66 -5.09,-2.711 -10.76,-3.16 l -15.97,-1.308 v -9.672 c 14.41,0.781 29.04,1.172 43.79,1.172 15.21,0 31.32,-0.391 48.26,-1.172 v 9.672 h -9.94 c -8.25,0 -14.46,1.148 -18.66,3.488 -1.79,0.98 -2.91,3.441 -3.36,7.332 -1.23,10.5 -1.81,23.461 -1.81,38.891 0,23.367 0.93,39.07 2.83,47.039 1.84,7.988 5.6,14.179 11.17,18.621 5.61,4.429 11.66,6.66 18.18,6.66 4.89,0 9.05,-1.184 12.54,-3.5 3.48,-2.332 6.47,-6.332 9.03,-11.992 h 7.52 c 0.23,16.211 1.19,28.808 2.99,37.789 l 0.17,1.679 c 0,1.442 -0.78,2.481 -2.34,3.161" /><path
         id="path130"
         style="fill:rgba(255,255,255,0.9);fill-rule:nonzero;stroke:none"
         d="m 5000.77,440.109 c 0.21,14.7 1.72,29.403 4.47,44.082 -7.09,3.59 -13.73,6.028 -19.88,7.411 -6.14,1.418 -13.5,2.109 -22.05,2.109 -11.2,0 -21.37,-2.051 -30.45,-6.152 -12.87,-5.77 -23.64,-11.661 -32.25,-17.661 -8.55,-5.976 -15.29,-14.269 -20.04,-24.878 -4.74,-10.598 -7.15,-23.04 -7.15,-37.379 0,-16.192 3.11,-30.2 9.32,-41.95 6.19,-11.769 15.02,-20.75 26.39,-26.98 11.36,-6.211 25.23,-9.313 41.52,-9.313 8.34,0 16.48,1.024 24.47,3.063 7.99,2.07 15.8,5.148 23.3,9.25 l 6.82,10.66 -4.47,4 c -6.33,-3.223 -12.72,-5.66 -19.14,-7.32 -6.45,-1.68 -12.99,-2.5 -19.65,-2.5 -16.98,0 -30.86,6.371 -41.62,19.121 -11.96,14.058 -17.99,32.808 -17.99,56.18 0,18.199 4.08,31.859 12.15,41.019 8.12,9.109 19.68,13.711 34.65,13.711 8.65,0 16.66,-1.461 23.98,-4.344 7.3,-2.879 11.99,-5.808 14.08,-8.738 2.01,-2.949 3.05,-7.969 3.05,-15.07 v -8.321 h 10.49" /><path
         id="path132"
         style="fill:rgba(255,255,255,0.9);fill-rule:nonzero;stroke:none"
         d="m 5070.4,468.238 c 7.4,9.114 17.36,13.66 29.76,13.66 8.01,0 15.02,-1.808 21.13,-5.41 6.14,-3.617 10.41,-8.136 12.82,-13.566 3.92,-8.774 5.88,-18.031 5.88,-27.813 v -9.32 c -7.8,-0.777 -15.84,-1.168 -24.16,-1.168 -20.77,0 -39.73,0.391 -56.96,1.168 0.24,19.199 4.06,33.352 11.53,42.449 z m 95.5,-108.879 -2.79,2.5 c -7.56,-5.109 -15.14,-8.949 -22.77,-11.507 -7.66,-2.543 -15.37,-3.821 -23.13,-3.821 -17.26,0 -31.27,5.68 -41.85,16.989 -10.67,11.312 -16.25,27.929 -16.8,49.781 h 41.56 c 21.06,0 37.52,0.437 49.36,1.32 6.68,0.559 13.63,1.731 20.95,3.508 l 0.34,9.832 c 0,20.75 -5.75,36.891 -17.25,48.449 -11.46,11.531 -27.05,17.309 -46.68,17.309 -13.01,0 -26.37,-3.828 -40.14,-11.489 -13.77,-7.66 -23.18,-15.98 -28.3,-24.98 -7.75,-13.648 -11.66,-29.801 -11.66,-48.441 0,-24.43 6.92,-43.758 20.73,-58.028 13.82,-14.25 32.01,-21.383 54.53,-21.383 10.31,0 20.35,1.332 30.11,3.981 9.79,2.68 19.28,6.672 28.5,11.992 l 5.29,13.988" /><path
         id="path134"
         style="fill:rgba(255,255,255,0.9);fill-rule:nonzero;stroke:none"
         d="m 5313.6,384.461 c 0,7.309 -1.54,13.801 -4.65,19.461 -3.12,5.668 -7.21,9.887 -12.3,12.637 -5.1,2.793 -15.69,5.793 -31.65,9.011 -21.66,4.321 -34.88,8.442 -39.62,12.301 -4.79,3.801 -7.15,9.399 -7.15,16.859 0,7.77 3.01,14.239 9.04,19.391 6.02,5.199 14.08,7.777 24.18,7.777 7.64,0 14.8,-1.679 21.56,-4.976 6.78,-3.34 11.43,-7.051 13.95,-11.184 1.91,-3.097 2.95,-9.547 3.18,-19.308 h 10 c 0.59,17.761 1.37,30.41 2.33,37.968 -15.47,6.211 -30.98,9.313 -46.55,9.313 -19.67,0 -34.88,-4.609 -45.58,-13.813 -10.73,-9.226 -16.1,-21.25 -16.1,-36.007 0,-7.879 1.76,-14.602 5.34,-20.153 3.51,-5.566 8.86,-10.027 15.95,-13.347 7.11,-3.36 21.7,-7.243 43.81,-11.68 11.88,-2.441 19.92,-5.723 24.14,-9.832 4.2,-4.109 6.31,-9.539 6.31,-16.309 0,-8.582 -3.59,-15.929 -10.82,-22.09 -7.19,-6.199 -16.52,-9.269 -27.97,-9.269 -8.89,0 -17.5,1.66 -25.86,5 -8.4,3.359 -14.02,6.828 -16.93,10.371 -1.53,2.09 -2.31,7.52 -2.31,16.219 v 10.847 h -10.33 l 0.16,-7.976 c 0,-6.024 -0.53,-14.422 -1.49,-25.192 -0.35,-4.242 -0.72,-7.218 -1.17,-8.878 l -0.51,-2.332 c 0,-1.551 1.51,-2.719 4.52,-3.508 16.97,-4.231 32.28,-6.364 45.95,-6.364 21.41,0 38.54,5.434 51.37,16.313 12.81,10.848 19.2,23.777 19.2,38.75" /><path
         id="path136"
         style="fill:rgba(255,255,255,0.9);fill-rule:nonzero;stroke:none"
         d="m 2243.44,56.9688 h -37.31 v 24.9101 c 0,10.3516 1.57,17.4023 4.74,21.1521 3.2,3.77 7.72,5.629 13.66,5.629 4,0 7.55,-1.18 10.66,-3.558 3.08,-2.372 4.99,-5.4301 5.75,-9.2036 1.66,-7.4179 2.5,-12.4375 2.5,-15.0195 z m 109.14,123.3202 -0.28,0.102 -52.89,-27.313 c -2.67,-1.359 -6.46,-3.988 -11.38,-7.957 -4.94,-3.973 -8.16,-6.98 -9.68,-9.07 -2.25,-3.082 -4.49,-8 -6.74,-14.762 -1.93,8.441 -4.35,15.063 -7.27,19.91 -4.6,7.61 -10.58,13.571 -17.97,17.922 -7.39,4.34 -16.16,6.52 -26.37,6.52 -11.66,0 -21.57,-2.84 -29.7,-8.512 -8.13,-5.68 -13.72,-13.149 -16.73,-22.418 -3,-9.262 -4.49,-22.66 -4.49,-40.1915 V 0 h 183.51 v 56.9688 h -74.48 v 5.0117 c 0,5.1679 1.43,9.8007 4.26,13.8984 2.17,2.9922 6.87,6.4219 14.13,10.2617 l 56.09,30.3204 v 64.07 h -0.01 v -0.242" /><path
         id="path138"
         style="fill:rgba(255,255,255,0.9);fill-rule:nonzero;stroke:none"
         d="m 2282.62,259.449 -65.98,20.039 65.98,20.262 z m 69.96,-21.277 -30.28,8.957 v 64.383 l 30.28,9.199 v 59.391 l -183.51,-68.973 v -61.867 l 183.23,-68.871 0.28,0.14 v 57.641" /><path
         id="path140"
         style="fill:rgba(255,255,255,0.9);fill-rule:nonzero;stroke:none"
         d="m 2352.58,180.531 -0.28,-0.14 0.28,-0.102 v 0.242" /><path
         id="path142"
         style="fill:rgba(255,255,255,0.9);fill-rule:nonzero;stroke:none"
         d="m 2169.07,454.82 v -56.699 h 183.51 V 543.34 h -45.18 v -88.52 h -138.33" /><path
         id="path144"
         style="fill:rgba(255,255,255,0.9);fill-rule:nonzero;stroke:none"
         d="m 2352.58,723.734 h -41.54 v -97.906 h -36.2 v 88.254 h -37.42 v -88.254 h -29.17 v 95.141 h -39.18 V 568.988 h 183.51 v 154.746" /><path
         id="path146"
         style="fill:rgba(255,255,255,0.9);fill-rule:nonzero;stroke:none"
         d="m 2169.07,756.535 h 183.512 v 56.8477 H 2169.07 Z" /><path
         id="path148"
         style="fill:rgba(255,255,255,0.9);fill-rule:nonzero;stroke:none"
         d="m 2326.17,1033.96 h -78.23 v -87.644 h 38.18 v 37.93 h 17.28 c 4.42,-7.426 7.54,-14.019 9.38,-19.781 1.85,-5.746 2.77,-11.797 2.77,-18.149 0,-13.351 -4.28,-23.761 -12.78,-31.23 -8.5,-7.473 -22.7,-11.211 -42.57,-11.211 -18.69,0 -32.36,3.699 -40.98,11.082 -8.65,7.379 -12.98,17.301 -12.98,29.727 0,8.351 1.83,15.222 5.52,20.593 3.66,5.391 8.97,9.207 15.9,11.457 l -9.78,54.726 c -11.85,-3.35 -21.63,-8.34 -29.35,-14.97 -7.73,-6.63 -13.41,-14.98 -17.09,-25.033 -3.67,-10.059 -5.5,-25.23 -5.5,-45.523 0,-21.02 2.96,-37.758 8.89,-50.2 7.68,-15.925 18.93,-28.027 33.73,-36.296 14.82,-8.262 32.23,-12.391 52.28,-12.391 19.02,0 35.88,3.769 50.58,11.32 14.68,7.559 25.74,18.199 33.16,31.93 7.43,13.73 11.15,31.488 11.15,53.269 0,17.692 -2.07,32.981 -6.21,45.879 -4.12,12.905 -11.91,27.735 -23.35,44.515" /><path
         id="path150"
         style="fill:rgba(255,255,255,0.9);fill-rule:nonzero;stroke:none"
         d="m 2352.58,1124.59 h -74.23 v 61.98 h 74.23 v 56.95 h -183.51 v -56.95 h 64.23 v -61.98 h -64.23 v -56.71 h 183.51 v 56.71" /><path
         id="path152"
         style="fill:rgba(255,255,255,0.9);fill-rule:nonzero;stroke:none"
         d="m 323.871,1243.48 c 0.195,2 0.371,4 0.621,6.02 L 1.78125,1250.23 0,460.551 H 0.0234375 L 1.77734,1244.2 323.871,1243.48" /><path
         id="path154"
         style="fill:rgba(255,255,255,0.9);fill-rule:nonzero;stroke:none"
         d="m 1694.57,1240.41 380.26,-0.86 0.02,6.03 -380.25,0.85 c -8.65,-1.3 -17.68,-1.83 -23.98,-5.97 l 23.95,-0.05" /><path
         id="path156"
         style="fill:rgba(255,255,255,0.9);fill-rule:nonzero;stroke:none"
         d="m 880.176,472.949 c -35.039,78.641 -118.481,134.223 -184.449,194.36 -10.809,10.461 -16.161,49.8 -25.59,16.23 -44.41,9.293 -28.313,-72.891 -41.719,-79.859 -9.441,-2.309 -32.328,-34.719 -45.781,-53.231 -21.575,-8.058 -43.102,-8.058 -64.629,0 -6.699,18.512 -22.863,10.449 -39.055,8.141 -16.824,13 -24.906,27.91 -28.988,43.539 -12.262,46.871 11.453,100.25 -57.215,128.851 -13.402,4.676 -28.262,17.344 -43.031,0 -35,17.344 -8.102,55.575 -41.758,77.579 -4.047,-3.516 -9.426,-3.516 -12.106,-8.125 -13.937,2.168 -13.882,9.726 -13.41,17.714 -0.222,2.52 -0.047,5.215 0.106,7.93 -0.594,6.152 -3.766,11.551 -16.356,13.711 -24.187,3.457 -57.871,-33.516 -78.07,0 -1.316,26.649 -16.148,34.707 -44.437,30.086 -8.524,5.492 -10.469,11.52 -9.274,17.516 -2.75,12.48 13.391,25.668 17.484,34.379 -2.488,3.05 -10.488,4.531 -28.382,3.687 -8.645,9.477 -18.227,24.773 -16.743,37.977 -0.39,3.316 -0.32,6.589 0.575,9.679 48.488,10.379 -2.668,87.927 59.257,49.767 7.696,0.94 11.122,3.19 12.25,6.23 -1.976,7.6 -8.988,17.32 -7.199,25.6 -0.48,2.57 -0.527,5.1 0.321,7.47 10.761,35.89 40.371,60.23 84.82,53.26 6.031,-4.23 6.465,-8.85 5.609,-13.54 1.133,-4.78 -1.117,-9.78 -2.019,-14.65 0.441,-1.83 1.359,-3.63 3.136,-5.35 21.543,4.57 25.614,30.06 53.875,24.24 28.2,-8.81 72.188,-9.31 69.356,-44.28 0.148,-1.73 0.199,-3.54 0.066,-5.48 18.45,-4 33.184,13.89 54.434,11.6 7.363,0 17.109,0.07 22.336,5.04 -10.36,2.32 -12.543,8.5 -11.442,15.58 -1.871,9.12 6.227,21.94 9.375,29.44 -2.308,0.55 -8.203,-1.79 -20.269,-8.61 -26.906,1.11 -10.758,65.93 -52.481,30.03 -20.211,4.67 -36.386,30.16 -44.464,49.81 0.418,1.68 0.562,3.14 0.656,4.55 -0.203,0.49 -0.461,1 -0.656,1.48 0.257,1.02 0.265,1.86 0.398,2.78 -1.723,8.91 -11.117,12.1 -20.602,16.67 -0.777,4.24 -0.89,8.89 -0.769,13.67 -0.227,4.8 0.039,9.88 0.535,15.06 L 1.77734,1244.2 0.0234375,460.551 881.309,458.582 c -0.403,4.797 -0.68,9.547 -1.133,14.367" /><path
         id="path158"
         style="fill:rgba(255,255,255,0.9);fill-rule:nonzero;stroke:none"
         d="m 1665.09,1228.64 c -0.18,-0.38 -0.14,-0.68 -0.27,-1.03 2.88,-5.53 13.41,-7.5 16.44,-12.68 0.35,-5.08 0.69,-10.64 0.52,-16.11 0.46,-17.61 -2.46,-36.37 -26.06,-37.31 -4.84,4.15 -8.29,2.33 -11.85,0.13 8.67,-7.82 12.72,-18.75 11.74,-29.27 0.71,-8.1 -1.31,-16.31 -6.65,-22.94 -29.95,-12.91 -80.63,11.91 -83.64,-24.02 0.06,-1.19 -0.01,-2.21 0.12,-3.51 10.78,2.26 28.31,-16.23 41.79,-3.45 41.73,-35.95 22.91,31.18 61.96,25.39 2.68,24.33 14.77,39.41 41.67,47.5 31.01,-3.5 39.1,-35.9 71.38,-39.38 8.45,-3.86 9.79,-8.75 8.54,-13.97 2.74,-8.65 -8.54,-19.26 -8.54,-27.88 -6.55,-2.84 -13.93,-3.46 -19.36,-7.83 11.42,-7.97 14.08,-20.56 13.6,-34.1 0.58,-13.41 -2.88,-28.309 -4.38,-40.825 23.99,16.575 47.86,-5.187 51.86,-28.171 -0.37,-0.672 -0.58,-1.36 -0.91,-2.032 0.37,-1.32 0.68,-2.652 0.91,-3.984 -3.04,-5.441 -4.34,-11.07 -4.67,-16.805 0.94,-17.004 8.83,-34.812 7.91,-51.883 0.52,-9.453 -1.25,-18.726 -7.61,-27.589 6.82,-8.434 11.47,-19.211 10.48,-30.278 0.51,-5.945 -0.44,-12.078 -3.44,-18.054 -1.92,-18.36 -35.98,-25.286 -40.28,-39.426 1.18,-4.188 4.84,-9.012 12.05,-14.793 0.59,-2.676 0.54,-4.961 0.12,-7.051 3.42,-20.156 -26.73,-20.488 -30.14,-37.641 0.12,-0.898 0.17,-1.738 0.42,-2.707 -0.21,-0.113 -0.44,-0.242 -0.65,-0.339 -0.02,-1.75 0.12,-3.59 0.65,-5.68 -20.22,-10.453 -49.8,-30.102 -78.1,-13.902 -1.84,-2.211 -2.54,-4.872 -2.78,-7.739 0.17,-3.011 0.37,-6.07 0.15,-9.019 0.27,-5.141 0.28,-10.301 -2.76,-14.492 -18.87,-11.571 -41.77,0 -61.92,0 -23.46,33.949 -89.75,-17.52 -86.23,25.128 -0.41,3.801 0.01,8.692 1.44,14.961 -11.89,7.379 -25.78,8 -31.01,-6.507 -0.19,-0.813 -0.3,-1.59 -0.4,-2.372 3.46,-22.218 45.24,-25.039 41.33,-49.511 0.88,-5.27 -0.61,-11.668 -5.92,-19.887 -18.85,-12.691 -41.75,12.719 -51.14,-3.492 0,-14.461 -21.9,-43.078 -49,-69.399 -27.1,-26.332 -108.56,-45.14 -116.64,-32.39 -2.5,4.711 -3.04,9.879 -2.55,15.238 -1.18,13.992 7.65,30.063 8.95,43.633 -0.9,7.797 -5.67,14.379 -18.5,18.66 -17.51,-13.891 -44.43,-11.594 -52.53,8.098 0.24,1.8 0.39,3.539 0.47,5.211 -0.13,0.289 -0.35,0.5 -0.47,0.808 0.22,1.641 0.34,3.199 0.43,4.731 -1.44,21.789 -18.72,28.332 -42.18,11.191 -13.47,-9.223 -37.67,-16.191 -41.73,3.488 -2.68,5.45 -3.32,10.661 -2.74,15.7 -2.11,21.023 20.99,38.921 23.37,57.812 -0.28,2.109 -0.76,4.231 -1.73,6.379 -59.26,-19.711 -110.45,-52.09 -152.18,-97.219 -8.77,-45.66 -12.22,-91.871 -12.65,-138.449 -0.01,-3.102 0.02,-6.23 0.04,-9.344 l 1041.26,-2.34 1.75,783.652 -380.26,0.86 c -11.66,-1.76 -24.21,-1.87 -29.48,-11.77" /><path
         id="path160"
         style="fill:rgba(255,255,255,0.9);fill-rule:nonzero;stroke:none"
         d="m 1704.17,1248.58 c 34.99,70.51 -74.03,99.52 -61.93,166.6 0,18.53 -24.26,22 -37.68,27.79 -4.1,17.35 13.42,20.8 25.58,30.1 8.08,35.84 -47.15,17.31 -55.23,49.73 -34.98,3.51 -67.32,-15.06 -99.68,-24.26 -10.7,-22.02 20.26,-35.93 -6.69,-47.51 -20.21,-12.73 4.07,-57.82 -32.33,-41.65 -18.86,10.38 -5.36,34.76 -4.02,49.77 -22.89,8.11 -20.21,42.83 -53.81,41.65 -12.15,27.79 44.35,22 21.49,45.11 -44.45,27.82 26.95,24.33 29.66,46.31 -5.4,3.55 -5.4,8.12 -9.46,11.56 -16.18,11.6 -40.36,19.67 -57.88,8.16 -5.39,24.26 -39.06,10.38 -55.21,21.94 -29.59,-12.68 -21.56,-49.72 -32.33,-74.01 -25.56,20.75 8.11,54.34 -25.56,74.01 -39.08,3.49 -40.43,42.83 -64.63,59.01 -30.99,-4.66 -24.28,31.28 -52.51,30.1 -28.3,-5.79 -16.12,-35.86 -28.3,-52.04 -16.15,6.91 -8.06,27.75 -26.91,30.06 -20.17,-41.66 -75.4,-8.12 -92.924,-55.58 -13.429,-12.74 0,-38.16 -22.871,-43.9 -30.961,-31.29 26.969,-24.35 29.629,-47.51 -12.136,-4.64 -26.926,-2.31 -39.066,-3.48 -17.5,-11.51 -24.223,-31.19 -16.141,-49.74 -12.121,-6.94 -30.929,-8.12 -41.75,-8.12 48.469,39.36 -38.988,74.09 0,116.91 -8.09,44 -67.289,37.06 -94.207,61.36 -30.992,-12.74 -61.914,-6.99 -80.832,-37.07 -9.402,-11.56 -6.691,-28.92 6.758,-35.89 -48.473,-34.68 -20.199,53.24 -78.078,22.01 -22.871,-6.96 -18.84,-27.78 -18.84,-41.65 -12.117,8.07 -25.609,10.43 -36.402,-2.36 18.922,-34.67 -28.215,-28.87 -44.387,-49.68 -25.602,-5.88 -29.621,-30.13 -13.473,-45.17 29.645,-4.62 65.949,-45.15 84.821,-4.62 -17.551,-43.98 39.058,-33.55 64.601,-50.92 13.477,-10.42 0,-25.46 0,-38.21 -20.16,0 -40.371,-38.2 -55.16,-8.07 -21.57,69.4 -49.82,-43.96 -68.672,16.2 -25.59,-2.31 -64.601,30.08 -76.726,-5.81 -26.942,21.98 6.726,44 16.125,63.64 -5.399,12.79 -14.829,20.85 -29.598,25.47 -10.813,-12.68 -44.449,-11.56 -41.738,-35.85 -10.782,-13.92 10.746,-53.26 -18.871,-47.45 -12.09,-8.13 -29.59,-17.4 -22.848,-33.6 4,-33.54 -48.524,-34.71 -57.91,-69.38 1.617,-11.31 -1.727,-27.29 -3.688,-43.04 l 1370.108,-3.07 c 3.32,0.5 6.58,1.11 9.57,2.15" /><path
         id="path162"
         style="fill:rgba(255,255,255,0.9);fill-rule:nonzero;stroke:none"
         d="m 1031.79,458.238 c 0,-2.008 0.02,-4.008 0.03,-6.008 h 0.02 c -0.02,2 -0.01,4 -0.02,6.008 h -0.03" /><path
         id="path164"
         style="fill:rgba(255,255,255,0.9);fill-rule:nonzero;stroke:none"
         d="m 996.477,135.789 -34.602,10.359 10.41,179.981 h 23.672 v 2.41 -2.41 h 17.833 c 0,-145.367 -17.313,-190.34 -17.313,-190.34 z m -114.215,316.77 c 7.441,-98.84 4.734,-193.707 1.254,-289.161 l 12.601,7.883 c -3.273,-49.832 -75.058,-55.32 -110.758,-69.23 l 50.254,31.41 C 749.949,117.09 650.168,124.77 566.477,112.102 c 1.332,-3.473 -5.415,-5.801 -2.676,-10.364 74.054,2.25 133.254,-5.8161 203.273,-3.5075 -1.336,-15.0391 -2.664,-40.5117 25.594,-38.211 20.199,-31.2109 -32.313,-8.0586 -41.73,-31.2109 14.8,-20.82032 37.699,4.6133 61.929,-2.3203 48.449,-26.636738 98.27,1.1328 150.781,8.0703 v 11.582 c -64.609,25.4414 43.072,4.6406 45.772,38.1797 98.25,9.2383 191.18,16.1917 288.15,19.6677 12.08,1.172 8.06,11.621 2.65,16.192 -82.11,1.211 -183.08,-6.899 -251.74,39.359 -3.48,98.102 -15.74,196.152 -16.64,292.691 h -0.02 l -149.558,0.329" /><path
         id="path166"
         style="fill:rgba(255,255,255,0.9);fill-rule:nonzero;stroke:none"
         d="m 166.605,1016.87 c 12.161,1.47 13.833,6.17 12.25,12.24 -1.128,-3.04 -4.554,-5.29 -12.25,-6.23 -61.925,38.16 -10.769,-39.388 -59.257,-49.767 -0.895,-3.09 -0.965,-6.363 -0.575,-9.679 0.137,1.226 0.235,2.468 0.575,3.652 48.488,10.391 -2.668,87.944 59.257,49.784" /><path
         id="path168"
         style="fill:rgba(255,255,255,0.9);fill-rule:nonzero;stroke:none"
         d="m 1548.52,637.469 c 3.91,24.472 -37.87,27.293 -41.33,49.511 -3.52,-25.628 37.81,-28.679 41.33,-49.511" /><path
         id="path170"
         style="fill:rgba(255,255,255,0.9);fill-rule:nonzero;stroke:none"
         d="m 1332.22,571.172 c -1.3,-13.57 -10.13,-29.641 -8.95,-43.633 1.34,14.652 10.42,30.781 8.95,43.633" /><path
         id="path172"
         style="fill:rgba(255,255,255,0.9);fill-rule:nonzero;stroke:none"
         d="m 1681.26,1208.92 c 0.22,-3.22 0.43,-6.64 0.52,-10.1 0.17,5.47 -0.17,11.03 -0.52,16.11 -3.03,5.18 -13.56,7.15 -16.44,12.68 -3.76,-10.58 12.52,-12 16.44,-18.69" /><path
         id="path174"
         style="fill:rgba(255,255,255,0.9);fill-rule:nonzero;stroke:none"
         d="m 1819.29,936.363 c -0.96,-16.82 6.96,-34.629 7.91,-51.883 0.92,17.071 -6.97,34.879 -7.91,51.883" /><path
         id="path176"
         style="fill:rgba(255,255,255,0.9);fill-rule:nonzero;stroke:none"
         d="m 1538.6,695.859 c -1.43,-6.269 -1.85,-11.16 -1.44,-14.961 0.32,3.934 1.18,8.563 2.77,14.204 -0.44,0.289 -0.89,0.488 -1.33,0.757" /><path
         id="path178"
         style="fill:rgba(255,255,255,0.9);fill-rule:nonzero;stroke:none"
         d="m 344.309,1195.3 c 0.195,-0.48 0.453,-0.99 0.656,-1.48 0.097,1.57 -0.004,2.97 -0.258,4.26 -0.133,-0.92 -0.141,-1.76 -0.398,-2.78" /><path
         id="path180"
         style="fill:rgba(255,255,255,0.9);fill-rule:nonzero;stroke:none"
         d="m 1688.07,670.262 c 0.22,2.949 0.02,6.008 -0.15,9.019 -0.23,-2.859 -0.02,-5.941 0.15,-9.019" /><path
         id="path182"
         style="fill:rgba(255,255,255,0.9);fill-rule:nonzero;stroke:none"
         d="m 282.551,826.078 c -0.153,-2.715 -0.328,-5.41 -0.106,-7.93 0.157,2.657 0.352,5.352 0.106,7.93" /><path
         id="path184"
         style="fill:rgba(255,255,255,0.9);fill-rule:nonzero;stroke:none"
         d="m 1798.4,748.324 c 0.08,-0.371 0.05,-0.676 0.12,-1.035 0.42,2.09 0.47,4.375 -0.12,7.051 -7.21,5.781 -10.87,10.605 -12.05,14.793 -1.67,-5.488 1.13,-12.059 12.05,-20.809" /><path
         id="path186"
         style="fill:rgba(255,255,255,0.9);fill-rule:nonzero;stroke:none"
         d="m 256.797,1109.43 c 3.422,-2.41 5,-4.93 5.609,-7.53 0.856,4.69 0.422,9.31 -5.609,13.54 -44.449,6.97 -74.059,-17.37 -84.82,-53.26 -0.848,-2.37 -0.801,-4.9 -0.321,-7.47 0.106,0.48 0.153,0.98 0.321,1.45 10.761,35.89 40.371,60.23 84.82,53.27" /><path
         id="path188"
         style="fill:rgba(255,255,255,0.9);fill-rule:nonzero;stroke:none"
         d="m 151.898,921.77 c -4.093,-8.711 -20.234,-21.899 -17.484,-34.379 2.793,13.992 22.828,27.832 17.484,34.379" /><path
         id="path190"
         style="fill:rgba(255,255,255,0.9);fill-rule:nonzero;stroke:none"
         d="m 1830.07,826.613 c 0.99,11.067 -3.66,21.844 -10.48,30.278 -0.77,-1.063 -1.43,-2.141 -2.33,-3.196 6.76,-7.324 11.93,-16.933 12.81,-27.082" /><path
         id="path192"
         style="fill:rgba(255,255,255,0.9);fill-rule:nonzero;stroke:none"
         d="m 461.523,1118.04 c -3.148,-7.5 -11.246,-20.32 -9.375,-29.44 1.985,12.68 14.497,28.2 9.375,29.44" /><path
         id="path194"
         style="fill:rgba(255,255,255,0.9);fill-rule:nonzero;stroke:none"
         d="m 324.492,1243.48 1346.128,-3.02 c 6.3,4.14 15.33,4.67 23.98,5.97 l -1370.108,3.07 c -0.25,-2.02 -0.426,-4.02 -0.621,-6.02 h 0.621" /><path
         id="path196"
         style="fill:rgba(255,255,255,0.9);fill-rule:nonzero;stroke:none"
         d="m 1776.48,1028.18 c 0.48,13.54 -2.18,26.13 -13.6,34.1 -1.29,-1.04 -2.5,-2.21 -3.52,-3.76 12.52,-6.66 16.58,-17.84 17.12,-30.34" /><path
         id="path198"
         style="fill:rgba(255,255,255,0.9);fill-rule:nonzero;stroke:none"
         d="m 1031.79,458.238 h 0.03 c -0.02,3.114 -0.05,6.242 -0.04,9.344 -0.03,-3.102 0.02,-6.23 0.01,-9.344" /><path
         id="path200"
         style="fill:rgba(255,255,255,0.9);fill-rule:nonzero;stroke:none"
         d="m 1655.61,1132.37 c 0.98,10.52 -3.07,21.45 -11.74,29.27 -1.4,-0.87 -2.83,-1.79 -4.35,-2.45 9.79,-6.49 15.19,-16.57 16.09,-26.82" /><path
         id="path202"
         style="fill:rgba(255,255,255,0.9);fill-rule:nonzero;stroke:none"
         d="m 441.254,1061.96 c 9.445,0 22.91,0 25.57,10.47 -1.176,0.14 -2.219,0.36 -3.234,0.59 -5.227,-4.97 -14.973,-5.04 -22.336,-5.04 -21.25,2.29 -35.984,-15.6 -54.434,-11.6 -0.125,-1.89 -0.312,-3.83 -0.73,-5.93 18.797,-4.68 33.629,13.82 55.164,11.51" /><path
         id="path204"
         style="fill:rgba(255,255,255,0.9);fill-rule:nonzero;stroke:none"
         d="m 1261.19,603.949 c 0.12,-0.308 0.34,-0.519 0.47,-0.808 0.1,1.941 0.07,3.789 -0.04,5.539 -0.09,-1.532 -0.21,-3.09 -0.43,-4.731" /><path
         id="path206"
         style="fill:rgba(255,255,255,0.9);fill-rule:nonzero;stroke:none"
         d="m 323.871,1243.48 c -0.496,-5.18 -0.762,-10.26 -0.535,-15.06 0.121,4.9 0.516,9.94 1.156,15.06 h -0.621" /><path
         id="path208"
         style="fill:rgba(255,255,255,0.9);fill-rule:nonzero;stroke:none"
         d="m 1823.05,957.152 c 0.33,0.672 0.54,1.36 0.91,2.032 -4,22.984 -27.87,44.746 -51.86,28.171 -0.26,-2.203 -0.49,-4.359 -0.6,-6.39 22.79,16.363 45.61,-2.227 51.55,-23.813" /><path
         id="path210"
         style="fill:rgba(255,255,255,0.9);fill-rule:nonzero;stroke:none"
         d="m 1198.34,696.871 c -2.38,-18.891 -25.48,-36.789 -23.37,-57.812 2.39,20.632 25.95,38.492 23.37,57.812" /><path
         id="path212"
         style="fill:rgba(255,255,255,0.9);fill-rule:nonzero;stroke:none"
         d="m 263.523,1075.88 c 21.543,4.58 25.614,30.05 53.875,24.24 26.473,-8.27 66.86,-9.23 69.356,-38.26 2.832,34.97 -41.156,35.47 -69.356,44.28 -28.261,5.82 -32.332,-19.67 -53.875,-24.24 -1.777,1.72 -2.695,3.52 -3.136,5.35 -0.731,-3.94 -0.551,-7.79 3.136,-11.37" /><path
         id="path214"
         style="fill:rgba(255,255,255,0.9);fill-rule:nonzero;stroke:none"
         d="m 1768.8,706.941 c -0.25,0.969 -0.3,1.809 -0.42,2.707 -0.19,-0.937 -0.21,-1.988 -0.23,-3.046 0.21,0.097 0.44,0.226 0.65,0.339" /><path
         id="path216"
         style="fill:rgba(255,255,255,0.9);fill-rule:nonzero;stroke:none"
         d="m 1565.44,1075.88 c 10.78,2.27 28.31,-16.22 41.79,-3.45 41.73,-35.94 22.91,31.19 61.96,25.39 2.68,24.34 14.77,39.41 41.67,47.5 31.01,-3.49 39.1,-35.89 71.38,-39.39 5.09,-2.32 7.61,-5.02 8.54,-7.94 1.25,5.22 -0.09,10.11 -8.54,13.97 -32.28,3.48 -40.37,35.88 -71.38,39.38 -26.9,-8.09 -38.99,-23.17 -41.67,-47.5 -39.05,5.79 -20.23,-61.34 -61.96,-25.39 -13.48,-12.78 -31.01,5.71 -41.79,3.45 -0.13,1.3 -0.06,2.32 -0.12,3.51 -0.23,-2.82 -0.26,-5.91 0.12,-9.53" /><path
         id="path218"
         style="fill:rgba(255,255,255,0.9);fill-rule:nonzero;stroke:none"
         d="m 883.516,163.398 -47.903,-29.937 c 16.321,3.121 32.184,7.019 47.262,12.211 0.223,5.91 0.426,11.816 0.641,17.726" /><path
         id="path220"
         style="fill:rgba(255,255,255,0.9);fill-rule:nonzero;stroke:none"
         d="m 896.117,171.281 -12.601,-7.883 c -0.215,-5.91 -0.418,-11.816 -0.641,-17.726 -15.078,-5.192 -30.941,-9.09 -47.262,-12.211 l -50.254,-31.41 c 35.7,13.91 107.485,19.398 110.758,69.23" /><path
         id="path222"
         style="fill:rgba(255,255,255,0.9);fill-rule:nonzero;stroke:none"
         d="m 995.957,322.52 v -99.321 102.93 h -23.672 l -10.41,-179.981 34.602,-10.359 c 0,0 17.313,44.973 17.313,190.34 h -17.833 v -3.609" /><path
         id="path224"
         style="fill:none;stroke:#eee;stroke-width:30;stroke-linecap:butt;stroke-linejoin:miter;stroke-miterlimit:10;stroke-dasharray:none;stroke-opacity:1"
         d="m 995.957,322.52 v -99.321 102.93 h -23.672 l -10.41,-179.981 34.602,-10.359 c 0,0 17.313,44.973 17.313,190.34 h -17.833 z" /><path
         id="path226"
         style="fill:rgba(255,255,255,0.9);fill-rule:nonzero;stroke:none"
         d="m 881.309,458.582 c 0.171,-2.023 0.316,-4.012 0.476,-6.023 h 0.477 c -0.153,2 -0.321,4 -0.477,6.023 h -0.476" /><path
         id="path228"
         style="fill:rgba(255,255,255,0.9);fill-rule:nonzero;stroke:none"
         d="m 1655.72,1167.52 c -6.76,5.79 -10.8,0 -16.2,-2.32 1.6,-1.06 2.98,-2.32 4.35,-3.56 3.56,2.2 7.01,4.02 11.85,-0.13 23.6,0.94 26.52,19.7 26.06,37.31 -0.47,-15.62 -5.14,-30.46 -26.06,-31.3" /><path
         id="path230"
         style="fill:rgba(255,255,255,0.9);fill-rule:nonzero;stroke:none"
         d="m 1565.32,1085.41 c 3.01,35.93 53.69,11.11 83.64,24.02 5.34,6.63 7.36,14.84 6.65,22.94 -0.57,-6.05 -2.64,-11.94 -6.65,-16.93 -31.46,-13.55 -85.73,14.43 -83.64,-30.03" /><path
         id="path232"
         style="fill:rgba(255,255,255,0.9);fill-rule:nonzero;stroke:none"
         d="m 260.387,1087.25 c 0.902,4.87 3.152,9.87 2.019,14.65 -0.89,-4.92 -3.164,-9.92 -2.019,-14.65" /><path
         id="path234"
         style="fill:rgba(255,255,255,0.9);fill-rule:nonzero;stroke:none"
         d="m 386.82,1056.38 c 0.133,1.94 0.082,3.75 -0.066,5.48 -0.137,-1.74 -0.285,-3.48 -0.664,-5.4 0.25,-0.06 0.48,-0.02 0.73,-0.08" /><path
         id="path236"
         style="fill:rgba(255,255,255,0.9);fill-rule:nonzero;stroke:none"
         d="m 123.516,931.473 c -7.348,8.062 -15.391,20.339 -16.743,31.961 -1.484,-13.204 8.098,-28.5 16.743,-37.977 17.894,0.844 25.894,-0.637 28.382,-3.687 3.247,6.898 -1.082,10.992 -28.382,9.703" /><path
         id="path238"
         style="fill:rgba(255,255,255,0.9);fill-rule:nonzero;stroke:none"
         d="m 452.148,1088.6 c -1.101,-7.08 1.082,-13.26 11.442,-15.58 1.472,1.4 2.648,3.12 3.234,5.43 -9.597,1.23 -13.644,5.12 -14.676,10.15" /><path
         id="path240"
         style="fill:rgba(255,255,255,0.9);fill-rule:nonzero;stroke:none"
         d="m 266.195,845.805 c -24.187,3.461 -57.871,-33.516 -78.07,0 -1.316,26.648 -16.148,34.711 -44.437,30.086 -5.665,3.652 -8.407,7.539 -9.274,11.5 -1.195,-5.996 0.75,-12.024 9.274,-17.516 28.289,4.621 43.121,-3.437 44.437,-30.086 20.199,-33.516 53.883,3.457 78.07,0 12.59,-2.16 15.762,-7.559 16.356,-13.711 0.476,8.418 0.23,16.883 -16.356,19.727" /><path
         id="path242"
         style="fill:rgba(255,255,255,0.9);fill-rule:nonzero;stroke:none"
         d="m 695.727,673.32 c -10.809,10.461 -16.161,49.809 -25.59,16.231 -44.41,9.301 -28.313,-72.891 -41.719,-79.84 -9.441,-2.32 -32.328,-34.742 -45.781,-53.242 -21.575,-8.047 -43.102,-8.047 -64.629,0 -6.699,18.5 -22.863,10.453 -39.055,8.133 -16.824,13.019 -24.906,27.91 -28.988,43.546 -12.262,46.864 11.453,100.243 -57.215,128.856 -13.402,4.668 -28.262,17.336 -43.031,0 -35,17.336 -8.102,55.578 -41.758,77.57 -4.047,-3.496 -9.426,-3.496 -12.106,-8.125 -10.324,1.61 -12.921,6.192 -13.41,11.699 -0.472,-7.988 -0.527,-15.546 13.41,-17.714 2.68,4.609 8.059,4.609 12.106,8.125 33.656,-22.004 6.758,-60.235 41.758,-77.579 14.769,17.344 29.629,4.676 43.031,0 68.668,-28.601 44.953,-81.98 57.215,-128.851 4.082,-15.629 12.164,-30.539 28.988,-43.539 16.192,2.308 32.356,10.371 39.055,-8.141 21.527,-8.058 43.054,-8.058 64.629,0 13.453,18.512 36.34,50.922 45.781,53.231 13.406,6.968 -2.691,89.152 41.719,79.859 9.429,33.57 14.781,-5.769 25.59,-16.23 65.968,-60.137 149.41,-115.719 184.449,-194.36 0.453,-4.82 0.73,-9.57 1.133,-14.367 h 0.476 c -0.539,6.789 -0.969,13.547 -1.609,20.387 -35.039,78.652 -118.481,134.23 -184.449,194.351" /><path
         id="path244"
         style="fill:rgba(255,255,255,0.9);fill-rule:nonzero;stroke:none"
         d="m 324.105,1220.77 c -0.445,2.43 -0.652,5.02 -0.769,7.65 -0.121,-4.78 -0.008,-9.43 0.769,-13.67 9.485,-4.57 18.879,-7.76 20.602,-16.67 1.949,13.72 -9.258,17.22 -20.602,22.69" /><path
         id="path246"
         style="fill:rgba(255,255,255,0.9);fill-rule:nonzero;stroke:none"
         d="m 1665.09,1234.66 c -1.36,-2.93 -1.25,-5.2 -0.27,-7.05 0.13,0.35 0.09,0.65 0.27,1.03 5.27,9.9 17.82,10.01 29.48,11.77 l -23.95,0.05 c -2.21,-1.45 -4.16,-3.23 -5.53,-5.8" /><path
         id="path248"
         style="fill:rgba(255,255,255,0.9);fill-rule:nonzero;stroke:none"
         d="m 441.254,1115.44 c -26.906,1.13 -10.758,65.94 -52.481,30.04 -19.718,4.56 -35.546,28.9 -43.808,48.34 -0.094,-1.41 -0.238,-2.87 -0.656,-4.55 8.078,-19.65 24.253,-45.14 44.464,-49.81 41.723,35.9 25.575,-28.92 52.481,-30.03 12.066,6.82 17.961,9.16 20.269,8.61 3.133,7.46 1.344,9.62 -20.269,-2.6" /><path
         id="path250"
         style="fill:rgba(255,255,255,0.9);fill-rule:nonzero;stroke:none"
         d="m 171.656,1054.71 c -1.789,-8.28 5.223,-18 7.199,-25.6 2.379,6.37 -5.48,16.32 -7.199,25.6" /><path
         id="path252"
         style="fill:rgba(255,255,255,0.9);fill-rule:nonzero;stroke:none"
         d="m 1507.59,695.359 c -0.72,-3.078 -0.8,-5.847 -0.4,-8.379 0.1,0.782 0.21,1.559 0.4,2.372 5.23,14.507 19.12,13.886 31.01,6.507 0.38,1.672 0.8,3.403 1.33,5.262 -12.16,8.16 -26.92,9.289 -32.34,-5.762" /><path
         id="path254"
         style="fill:rgba(255,255,255,0.9);fill-rule:nonzero;stroke:none"
         d="m 1491.46,620.121 c 0,-14.473 -21.9,-43.101 -49,-69.41 -27.1,-26.332 -108.56,-45.141 -116.64,-32.402 -1.55,2.921 -2.28,6.031 -2.55,9.23 -0.49,-5.359 0.05,-10.527 2.55,-15.238 8.08,-12.75 89.54,6.058 116.64,32.39 27.1,26.321 49,54.938 49,69.399 9.39,16.211 32.29,-9.199 51.14,3.492 5.31,8.219 6.8,14.617 5.92,19.887 -0.64,-3.989 -2.48,-8.539 -5.92,-13.86 -18.85,-12.687 -41.75,12.7 -51.14,-3.488" /><path
         id="path256"
         style="fill:rgba(255,255,255,0.9);fill-rule:nonzero;stroke:none"
         d="m 1623.39,661.801 c -22.22,32.148 -82.86,-12.321 -86.23,19.097 -3.52,-42.648 62.77,8.821 86.23,-25.128 20.15,0 43.05,-11.571 61.92,0 3.04,4.191 3.03,9.351 2.76,14.492 -0.23,-3.032 -0.92,-5.934 -2.76,-8.461 -18.87,-11.582 -41.77,0 -61.92,0" /><path
         id="path258"
         style="fill:rgba(255,255,255,0.9);fill-rule:nonzero;stroke:none"
         d="m 1219.44,625.879 c -13.47,-9.219 -37.67,-16.168 -41.73,3.5 -1.63,3.312 -2.42,6.519 -2.74,9.68 -0.58,-5.039 0.06,-10.25 2.74,-15.7 4.06,-19.679 28.26,-12.711 41.73,-3.488 23.46,17.141 40.74,10.598 42.18,-11.191 1.51,26.5 -16.69,35.832 -42.18,17.199" /><path
         id="path260"
         style="fill:rgba(255,255,255,0.9);fill-rule:nonzero;stroke:none"
         d="m 1196.61,709.281 c -59.26,-19.73 -110.45,-52.09 -152.18,-97.242 -9.15,-47.617 -12.46,-95.84 -12.65,-144.457 0.43,46.578 3.88,92.789 12.65,138.449 41.73,45.129 92.92,77.508 152.18,97.219 0.97,-2.148 1.45,-4.27 1.73,-6.379 0.52,4.07 0.17,8.188 -1.73,12.41" /><path
         id="path262"
         style="fill:rgba(255,255,255,0.9);fill-rule:nonzero;stroke:none"
         d="m 1313.72,595.84 c -17.25,-13.668 -43.52,-11.559 -52.06,7.301 -0.08,-1.672 -0.23,-3.411 -0.47,-5.211 8.1,-19.692 35.02,-21.989 52.53,-8.098 12.83,-4.281 17.6,-10.863 18.5,-18.66 0.98,10.398 -2.48,19.34 -18.5,24.668" /><path
         id="path264"
         style="fill:rgba(255,255,255,0.9);fill-rule:nonzero;stroke:none"
         d="m 1690.7,693.051 c -3.08,-3.711 -3.05,-8.629 -2.78,-13.77 0.24,2.867 0.94,5.528 2.78,7.739 28.3,-16.2 57.88,3.449 78.1,13.902 -0.53,2.09 -0.67,3.93 -0.65,5.68 -20.2,-10.532 -49.44,-29.614 -77.45,-13.551" /><path
         id="path266"
         style="fill:rgba(255,255,255,0.9);fill-rule:nonzero;stroke:none"
         d="m 1786.35,769.133 c 4.3,14.14 38.36,21.066 40.28,39.426 3,5.976 3.95,12.109 3.44,18.054 -0.36,-4.011 -1.44,-8.066 -3.44,-12.039 -2.17,-20.781 -45.51,-26.914 -40.28,-45.441" /><path
         id="path268"
         style="fill:rgba(255,255,255,0.9);fill-rule:nonzero;stroke:none"
         d="m 1819.59,856.891 c 6.36,8.863 8.13,18.136 7.61,27.589 -0.46,-8.5 -3.1,-16.82 -9.94,-24.765 0.82,-0.891 1.56,-1.871 2.33,-2.824" /><path
         id="path270"
         style="fill:rgba(255,255,255,0.9);fill-rule:nonzero;stroke:none"
         d="m 1759.36,1064.54 c 1.29,-0.7 2.4,-1.48 3.52,-2.26 5.43,4.37 12.81,4.99 19.36,7.83 0,8.62 11.28,19.23 8.54,27.88 -1.75,-7.26 -8.54,-15.15 -8.54,-21.85 -8.09,-3.53 -17.52,-3.53 -22.88,-11.6" /><path
         id="path272"
         style="fill:rgba(255,255,255,0.9);fill-rule:nonzero;stroke:none"
         d="m 1772.1,987.355 c 1.5,12.516 4.96,27.415 4.38,40.825 -0.5,-14.17 -4.34,-29.325 -4.98,-41.196 0.2,0.141 0.4,0.235 0.6,0.371" /><path
         id="path274"
         style="fill:rgba(255,255,255,0.9);fill-rule:nonzero;stroke:none"
         d="m 1819.29,936.363 c 0.33,5.735 1.63,11.364 4.67,16.805 -0.23,1.332 -0.54,2.664 -0.91,3.984 -3.23,-6.714 -4.15,-13.679 -3.76,-20.789" /><path
         id="path276"
         style="fill:rgba(255,255,255,0.9);fill-rule:nonzero;stroke:none"
         d="m 1768.38,709.648 c 3.41,17.153 33.56,17.485 30.14,37.641 -3.26,-16.113 -32.96,-16.719 -30.14,-37.641" /><path
         id="path278"
         style="fill:rgba(255,255,255,0.9);fill-rule:nonzero;stroke:none"
         d="m 1031.79,458.238 -150.005,0.344 c 0.156,-2.023 0.324,-4.023 0.477,-6.023 l 149.558,-0.329 c -0.01,2 -0.03,4 -0.03,6.008" /><path
         id="path280"
         style="fill:rgba(255,255,255,0.9);fill-rule:nonzero;stroke:none"
         d="m 1041.24,1025.02 c 1.03,1.23 2.23,2.34 3.19,3.62 -15.48,9.87 -19.44,23.53 -19.87,38.26 -0.42,-15.86 2.11,-30.84 16.68,-41.88" /><path
         id="path282"
         style="fill:rgba(255,255,255,0.9);fill-rule:nonzero;stroke:none"
         d="m 993.246,1067.77 c 25.604,15.05 4.055,35.85 29.654,52.08 2.26,-5.62 3.16,-11.72 3.37,-18.08 0.21,8.52 -0.4,16.73 -3.37,24.1 -25.599,-16.23 -4.05,-37.04 -29.654,-52.08 -13.301,-9.39 -16.769,-19.95 -15.828,-30.84 0.742,8.75 5,17.17 15.828,24.82" /><path
         id="path284"
         style="fill:rgba(255,255,255,0.9);fill-rule:nonzero;stroke:none"
         d="m 944.109,1022.07 c -0.265,-10.77 1.207,-22.621 1.481,-33.785 0.289,10.828 -1.192,22.675 -1.481,33.785" /><path
         id="path286"
         style="fill:rgba(255,255,255,0.9);fill-rule:nonzero;stroke:none"
         d="m 944.785,1036.79 h -18.84 c 0.586,-1.84 0.942,-3.95 1.321,-6.02 h 16.945 c 0.109,2.05 0.281,4.07 0.574,6.02" /><path
         id="path288"
         style="fill:rgba(255,255,255,0.9);fill-rule:nonzero;stroke:none"
         d="m 1055.24,784.211 c 28.28,-3.27 52.92,27.101 79.76,10.605 1.25,1.243 2.5,2.442 3.69,3.586 -28.29,21.934 -53.88,-11.601 -83.45,-8.175 -17.1,6.269 -23.12,20.207 -26.1,33.957 -0.27,-0.606 -0.63,-1.133 -0.87,-1.758 2.69,-15.02 8.09,-31.289 26.97,-38.215" /><path
         id="path290"
         style="fill:rgba(255,255,255,0.9);fill-rule:nonzero;stroke:none"
         d="m 1067.33,861.977 c 0,19.707 -20.54,38.347 -22.65,56.996 -2.34,-18.848 18.41,-37.582 22.08,-57.289 0.19,0.089 0.39,0.199 0.57,0.293" /><path
         id="path292"
         style="fill:rgba(255,255,255,0.9);fill-rule:nonzero;stroke:none"
         d="m 1125.21,748.324 c 9.44,-13.886 31.02,-19.629 43.07,-9.219 1.37,8.067 10.78,10.43 18.86,11.602 1.65,-3.379 2.45,-6.184 2.88,-8.73 0.91,3.652 0.22,8.386 -2.88,14.746 -8.08,-1.172 -17.49,-3.535 -18.86,-11.602 -12.05,-10.41 -33.63,-4.668 -43.07,9.219 -3.65,3.426 -5.51,6.972 -6.17,10.527 -0.99,-5.558 0.46,-11.191 6.17,-16.543" /><path
         id="path294"
         style="fill:rgba(255,255,255,0.9);fill-rule:nonzero;stroke:none"
         d="m 1099.62,1008.71 c 0.13,-0.32 0.15,-0.61 0.24,-0.92 0.63,2.23 0.71,4.51 -0.24,6.94 -5.41,48.63 -32.29,-5.71 -41.72,-16.183 -36.43,-40.828 -45.48,-93.563 -45.29,-148.383 0.5,52.652 10.2,103.031 45.29,142.367 9.43,10.469 36.31,64.809 41.72,16.179" /><path
         id="path296"
         style="fill:rgba(255,255,255,0.9);fill-rule:nonzero;stroke:none"
         d="m 896.992,874.867 c -0.445,-6.199 -2.465,-12.305 -7.387,-18.652 1.192,-0.371 2.114,-0.953 2.918,-1.621 4,6.804 5.012,13.429 4.469,20.273" /><path
         id="path298"
         style="fill:rgba(255,255,255,0.9);fill-rule:nonzero;stroke:none"
         d="m 909.281,857.836 c 0.16,19.48 -4.652,38.976 -10.242,57.355 -11.883,0 -21.519,-5.609 -16.738,-11.351 2.664,3.09 9.242,5.336 16.738,5.336 5.016,-16.485 9.484,-33.871 10.242,-51.34" /><path
         id="path300"
         style="fill:rgba(255,255,255,0.9);fill-rule:nonzero;stroke:none"
         d="m 845.137,812.289 c -12.117,-16.223 -20.16,6.914 -36.328,0 1.91,-1.465 3.558,-3.086 5.101,-4.785 12.891,0.957 20.453,-15.645 31.227,-1.231 72.054,-55.195 57.531,-153.011 64.101,-229.691 0.176,-0.133 0.367,-0.293 0.543,-0.434 -8.062,77.551 9.43,179.403 -64.644,236.141" /><path
         id="path302"
         style="fill:rgba(255,255,255,0.9);fill-rule:nonzero;stroke:none"
         d="m 838.594,705.449 c -3.121,-16.398 -27.856,-31.719 -32.465,-45.961 0.609,-0.566 1.32,-1.168 1.945,-1.75 8.371,14.762 33.313,30.672 30.52,47.711" /><path
         id="path304"
         style="fill:rgba(255,255,255,0.9);fill-rule:nonzero;stroke:none"
         d="m 824.977,728.91 c 0.136,-0.098 0.214,-0.187 0.351,-0.273 0.672,9.863 1.668,20.867 1.469,31.699 -0.199,-11.008 -1.336,-21.953 -1.82,-31.426" /><path
         id="path306"
         style="fill:rgba(255,255,255,0.9);fill-rule:nonzero;stroke:none"
         d="m 1044.43,1022.62 c -1.19,0.76 -2.13,1.59 -3.19,2.4 -11.93,-14.29 -27.93,-25.438 -45.283,-40.387 0,17.267 -16.809,38.367 -18.539,58.317 -1.836,-21.66 18.539,-45.325 18.539,-64.341 18.843,16.243 36.333,27.831 48.473,44.011" /><path
         id="path308"
         style="fill:rgba(255,255,255,0.9);fill-rule:nonzero;stroke:none"
         d="m 1026.27,1101.77 c -0.29,-11.46 -2.04,-23.48 -1.71,-34.87 0.3,11.6 2.07,23.63 1.71,34.87" /><path
         id="path310"
         style="fill:rgba(255,255,255,0.9);fill-rule:nonzero;stroke:none"
         d="m 1041.24,1025.02 c -14.57,11.04 -17.1,26.02 -16.68,41.88 -0.33,11.39 1.42,23.41 1.71,34.87 -0.21,6.36 -1.11,12.46 -3.37,18.08 -25.599,-16.23 -4.05,-37.03 -29.654,-52.08 -10.828,-7.65 -15.086,-16.07 -15.828,-24.82 1.73,-19.95 18.539,-41.05 18.539,-58.317 17.353,14.949 33.353,26.097 45.283,40.387" /><path
         id="path312"
         style="fill:rgba(255,255,255,0.9);fill-rule:nonzero;stroke:none"
         d="m 925.945,1030.77 c 2.258,-7.02 2.789,-16.06 2.832,-25.69 0.129,9.31 -0.129,18.16 -1.511,25.69 h -1.321" /><path
         id="path314"
         style="fill:rgba(255,255,255,0.9);fill-rule:nonzero;stroke:none"
         d="m 931.328,956.898 c -2.262,7.004 -2.793,16.047 -2.836,25.668 -0.168,-11.871 0.113,-23.222 2.836,-31.683 12.613,7.82 14.633,21.926 14.262,37.402 -0.352,-13.055 -3.309,-24.59 -14.262,-31.387" /><path
         id="path316"
         style="fill:rgba(255,255,255,0.9);fill-rule:nonzero;stroke:none"
         d="m 944.785,1030.77 h -0.574 c -0.164,-2.82 -0.172,-5.73 -0.102,-8.7 0.079,2.99 0.254,5.91 0.676,8.7" /><path
         id="path318"
         style="fill:rgba(255,255,255,0.9);fill-rule:nonzero;stroke:none"
         d="m 945.59,988.285 c -0.274,11.164 -1.746,23.015 -1.481,33.785 -0.07,2.97 -0.062,5.88 0.102,8.7 h -16.945 c 1.382,-7.53 1.64,-16.38 1.511,-25.69 -0.105,-7.514 -0.32,-15.162 -0.285,-22.514 0.043,-9.621 0.574,-18.664 2.836,-25.668 10.953,6.797 13.91,18.332 14.262,31.387" /><path
         id="path320"
         style="fill:rgba(255,255,255,0.9);fill-rule:nonzero;stroke:none"
         d="m 1028.27,828.449 c 0.25,-1.414 0.56,-2.84 0.87,-4.265 7.32,16.191 25.18,25.121 38.19,31.777 0,1.918 -0.21,3.82 -0.57,5.723 -13.44,-6.864 -31.84,-16.114 -38.49,-33.235" /><path
         id="path322"
         style="fill:rgba(255,255,255,0.9);fill-rule:nonzero;stroke:none"
         d="m 1057.9,945.332 c -11.18,-8.859 -14.21,-17.609 -13.22,-26.359 0.84,6.746 4.6,13.511 13.22,20.336 25.59,8.109 -6.74,46.242 34.97,49.773 3.88,6.629 8.9,12.148 6.99,18.708 -1.17,-4.17 -4.35,-8.173 -6.99,-12.688 -41.71,-3.536 -9.38,-41.661 -34.97,-49.77" /><path
         id="path324"
         style="fill:rgba(255,255,255,0.9);fill-rule:nonzero;stroke:none"
         d="m 1022.91,682.648 c 0.18,50.676 -10.1,110.227 -10.3,167.516 -0.53,-56.859 9.68,-116.391 10.3,-167.516" /><path
         id="path326"
         style="fill:rgba(255,255,255,0.9);fill-rule:nonzero;stroke:none"
         d="m 1119.04,764.867 c 1.79,10.137 11.81,20.02 19.65,27.52 -1.24,0.957 -2.46,1.679 -3.69,2.429 -8.65,-8.543 -17.92,-19.324 -15.96,-29.949" /><path
         id="path328"
         style="fill:rgba(255,255,255,0.9);fill-rule:nonzero;stroke:none"
         d="m 1131.94,720.82 c -9.41,-17.398 -36.35,5.805 -48.45,-13.89 -14.81,-17.379 -36.4,-27.809 -60.58,-27.809 0.01,-2.012 0.02,-4.039 0,-6.012 24.18,0 45.77,10.43 60.58,27.801 12.1,19.699 39.04,-3.512 48.45,13.899 14.67,12.578 62.27,2.492 58.08,27.168 -4.2,-17.043 -44.76,-9.727 -58.08,-21.157" /><path
         id="path330"
         style="fill:rgba(255,255,255,0.9);fill-rule:nonzero;stroke:none"
         d="m 1083.49,706.93 c 12.1,19.695 39.04,-3.508 48.45,13.89 13.32,11.43 53.88,4.114 58.08,21.157 -0.43,2.546 -1.23,5.351 -2.88,8.73 -8.08,-1.172 -17.49,-3.535 -18.86,-11.602 -12.05,-10.41 -33.63,-4.667 -43.07,9.219 -5.71,5.352 -7.16,10.985 -6.17,16.543 -1.96,10.625 7.31,21.406 15.96,29.949 -26.84,16.496 -51.48,-13.875 -79.76,-10.605 -18.88,6.926 -24.28,23.195 -26.97,38.215 0.24,0.625 0.6,1.152 0.87,1.758 -0.31,1.425 -0.62,2.851 -0.87,4.265 6.65,17.121 25.05,26.371 38.49,33.235 -3.67,19.707 -24.42,38.441 -22.08,57.289 -0.99,8.75 2.04,17.5 13.22,26.359 25.59,8.109 -6.74,46.234 34.97,49.77 2.64,4.515 5.82,8.518 6.99,12.688 -0.09,0.31 -0.11,0.6 -0.24,0.92 -5.41,48.63 -32.29,-5.71 -41.72,-16.179 -35.09,-39.336 -44.79,-89.715 -45.29,-142.367 0.2,-57.289 10.48,-116.84 10.3,-167.516 0,-1.168 0.01,-2.367 0,-3.527 24.18,0 45.77,10.43 60.58,27.809" /><path
         id="path332"
         style="fill:rgba(255,255,255,0.9);fill-rule:nonzero;stroke:none"
         d="m 896.238,834.574 c -0.191,-7.832 -0.863,-14.433 9.528,-8.691 3.062,10.547 3.98,21.269 3.515,31.953 -0.066,-8.684 -1.023,-17.363 -3.515,-25.938 -7.481,-4.14 -9.207,-1.836 -9.528,2.676" /><path
         id="path334"
         style="fill:rgba(255,255,255,0.9);fill-rule:nonzero;stroke:none"
         d="m 892.523,854.594 c -0.851,-1.457 -1.769,-2.918 -2.918,-4.395 5.098,-1.594 6.352,-6.191 6.594,-11.133 0.156,5.586 0.403,12.176 -3.676,15.528" /><path
         id="path336"
         style="fill:rgba(255,255,255,0.9);fill-rule:nonzero;stroke:none"
         d="m 893.617,891.824 c 1.598,-5.941 2.945,-11.523 3.375,-16.957 0.531,7.348 -1.18,14.817 -3.375,22.977 -6.055,1.847 -9.594,3.929 -11.316,5.996 -3.082,-3.57 -0.934,-8.278 11.316,-12.016" /><path
         id="path338"
         style="fill:rgba(255,255,255,0.9);fill-rule:nonzero;stroke:none"
         d="m 896.992,874.867 c 0.543,-6.844 -0.469,-13.469 -4.469,-20.273 4.079,-3.352 3.832,-9.942 3.676,-15.528 -0.043,-1.632 -0.051,-3.144 0.039,-4.492 0.321,-4.512 2.047,-6.816 9.528,-2.676 2.492,8.575 3.449,17.254 3.515,25.938 -0.758,17.469 -5.226,34.855 -10.242,51.34 -7.496,0 -14.074,-2.246 -16.738,-5.336 1.722,-2.067 5.261,-4.149 11.316,-5.996 2.195,-8.16 3.906,-15.629 3.375,-22.977" /><path
         id="path340"
         style="fill:rgba(255,255,255,0.9);fill-rule:nonzero;stroke:none"
         d="m 825.328,728.637 c -0.137,-1.973 -0.262,-3.887 -0.351,-5.746 8.789,-5.93 12.683,-11.75 13.617,-17.442 1.426,7.5 -1.692,15.231 -13.266,23.188" /><path
         id="path342"
         style="fill:rgba(255,255,255,0.9);fill-rule:nonzero;stroke:none"
         d="m 806.129,653.48 c 28.25,-26.628 71.355,-56.691 103.652,-83.339 -0.219,2.109 -0.355,4.308 -0.543,6.441 -31.535,25.977 -73.062,55.098 -101.164,81.156 -0.808,-1.429 -1.492,-2.847 -1.945,-4.258" /><path
         id="path344"
         style="fill:rgba(255,255,255,0.9);fill-rule:nonzero;stroke:none"
         d="m 808.809,806.273 c 14.019,-10.761 17.656,-28.085 17.988,-45.937 0.316,17.461 -1.824,35.039 -12.887,47.168 -1.613,-0.117 -3.301,-0.469 -5.101,-1.231" />
         <path
           id="path346"
           style="fill:rgba(255,255,255,0.9);fill-rule:nonzero;stroke:none"
           d="m 845.137,806.273 c -10.774,-14.414 -18.336,2.188 -31.227,1.231 11.063,-12.129 13.203,-29.707 12.887,-47.168 0.199,-10.832 -0.797,-21.836 -1.469,-31.699 11.574,-7.957 14.692,-15.688 13.266,-23.188 2.793,-17.039 -22.149,-32.949 -30.52,-47.711 28.102,-26.058 69.629,-55.179 101.164,-81.156 -6.57,76.68 7.953,174.496 -64.101,229.691" />
         </g>
       </g>
     </g>
   </g>
 </svg>