<svg xmlns="http://www.w3.org/2000/svg" viewBox="0 0 104.53333 104.53333" id="picnic-basket" height="24" width="24">
  
  <defs id="defs6">
    <clipPath id="clipPath20" clipPathUnits="userSpaceOnUse">
      <path id="path18" d="M 783.98,391.996 C 783.98,175.488 608.492,0 391.992,0 175.488,0 0,175.488 0,391.996 0,608.5 175.488,783.988 391.992,783.988 c 216.5,0 391.988,-175.488 391.988,-391.992 z" />
    </clipPath>
  </defs>

  <g transform="matrix(1.3333333,0,0,-1.3333333,0,104.53333)" id="g10">
    <g transform="scale(0.1)" id="g12">
      <g id="g14">
        <g clip-path="url(#clipPath20)" id="g16">
          <path id="path36" style="fill:#875524;fill-opacity:1;fill-rule:nonzero;stroke:none" d="m 67.707,525.328 h 314.414 v 28.3281 H 67.707 Z" />
          <path
           id="path38"
           style="fill:none;stroke:#231f20;stroke-width:10;stroke-linecap:butt;stroke-linejoin:miter;stroke-miterlimit:4;stroke-dasharray:none;stroke-opacity:1"
           d="m 67.707,525.328 h 314.414 v 28.3281 H 67.707 Z" /><path
           id="path40"
           style="fill:#875524;fill-opacity:1;fill-rule:nonzero;stroke:none"
           d="m 399.715,525.328 h 314.441 v 28.3281 H 399.715 Z" /><path
           id="path42"
           style="fill:none;stroke:#231f20;stroke-width:10;stroke-linecap:butt;stroke-linejoin:miter;stroke-miterlimit:4;stroke-dasharray:none;stroke-opacity:1"
           d="m 399.715,525.328 h 314.441 v 28.3281 H 399.715 Z" /><path
           id="path44"
           style="fill:#d39c69;fill-opacity:1;fill-rule:nonzero;stroke:none"
           d="m 121.25,215.332 h 107.707 v 33.3398 H 121.25 Z" /><path
           id="path46"
           style="fill:none;stroke:#231f20;stroke-width:10;stroke-linecap:butt;stroke-linejoin:miter;stroke-miterlimit:4;stroke-dasharray:none;stroke-opacity:1"
           d="m 121.25,215.332 h 107.707 v 33.3398 H 121.25 Z" /><path
           id="path48"
           style="fill:#d39c69;fill-opacity:1;fill-rule:nonzero;stroke:none"
           d="M 300.871,215.332 H 408.59 v 33.3398 H 300.871 Z" /><path
           id="path50"
           style="fill:none;stroke:#231f20;stroke-width:10;stroke-linecap:butt;stroke-linejoin:miter;stroke-miterlimit:4;stroke-dasharray:none;stroke-opacity:1"
           d="M 300.871,215.332 H 408.59 v 33.3398 H 300.871 Z" /><path
           id="path52"
           style="fill:#d39c69;fill-opacity:1;fill-rule:nonzero;stroke:none"
           d="m 481.422,215.332 h 107.734 v 33.3398 H 481.422 Z" /><path
           id="path54"
           style="fill:none;stroke:#231f20;stroke-width:10;stroke-linecap:butt;stroke-linejoin:miter;stroke-miterlimit:4;stroke-dasharray:none;stroke-opacity:1"
           d="m 481.422,215.332 h 107.734 v 33.3398 H 481.422 Z" /><path
           id="path56"
           style="fill:#d39c69;fill-opacity:1;fill-rule:nonzero;stroke:none"
           d="m 228.957,215.332 h 73.4453 v 33.3398 H 228.957 Z" /><path
           id="path58"
           style="fill:none;stroke:#231f20;stroke-width:10;stroke-linecap:butt;stroke-linejoin:miter;stroke-miterlimit:4;stroke-dasharray:none;stroke-opacity:1"
           d="m 228.957,215.332 h 73.4453 v 33.3398 H 228.957 Z" /><path
           id="path60"
           style="fill:#d39c69;fill-opacity:1;fill-rule:nonzero;stroke:none"
           d="m 407.984,215.332 h 73.4375 v 33.3398 H 407.984 Z" /><path
           id="path62"
           style="fill:none;stroke:#231f20;stroke-width:10;stroke-linecap:butt;stroke-linejoin:miter;stroke-miterlimit:4;stroke-dasharray:none;stroke-opacity:1"
           d="m 407.984,215.332 h 73.4375 v 33.3398 H 407.984 Z" /><path
           id="path64"
           style="fill:#d39c69;fill-opacity:1;fill-rule:nonzero;stroke:none"
           d="m 588.531,215.332 h 73.457 v 33.3398 h -73.457 z" /><path
           id="path66"
           style="fill:none;stroke:#231f20;stroke-width:10;stroke-linecap:butt;stroke-linejoin:miter;stroke-miterlimit:4;stroke-dasharray:none;stroke-opacity:1"
           d="m 588.531,215.332 h 73.457 v 33.3398 h -73.457 z" /><path
           id="path68"
           style="fill:#d39c69;fill-opacity:1;fill-rule:nonzero;stroke:none"
           d="M 300.871,285.332 H 408.59 v 33.3398 H 300.871 Z" /><path
           id="path70"
           style="fill:none;stroke:#231f20;stroke-width:10;stroke-linecap:butt;stroke-linejoin:miter;stroke-miterlimit:4;stroke-dasharray:none;stroke-opacity:1"
           d="M 300.871,285.332 H 408.59 v 33.3398 H 300.871 Z" /><path
           id="path72"
           style="fill:#d39c69;fill-opacity:1;fill-rule:nonzero;stroke:none"
           d="m 481.422,285.332 h 107.734 v 33.3398 H 481.422 Z" /><path
           id="path74"
           style="fill:none;stroke:#231f20;stroke-width:10;stroke-linecap:butt;stroke-linejoin:miter;stroke-miterlimit:4;stroke-dasharray:none;stroke-opacity:1"
           d="m 481.422,285.332 h 107.734 v 33.3398 H 481.422 Z" /><path
           id="path76"
           style="fill:#d39c69;fill-opacity:1;fill-rule:nonzero;stroke:none"
           d="m 228.957,285.332 h 73.4453 v 33.3398 H 228.957 Z" /><path
           id="path78"
           style="fill:none;stroke:#231f20;stroke-width:10;stroke-linecap:butt;stroke-linejoin:miter;stroke-miterlimit:4;stroke-dasharray:none;stroke-opacity:1"
           d="m 228.957,285.332 h 73.4453 v 33.3398 H 228.957 Z" /><path
           id="path80"
           style="fill:#d39c69;fill-opacity:1;fill-rule:nonzero;stroke:none"
           d="m 407.984,285.332 h 73.4375 v 33.3398 H 407.984 Z" /><path
           id="path82"
           style="fill:none;stroke:#231f20;stroke-width:10;stroke-linecap:butt;stroke-linejoin:miter;stroke-miterlimit:4;stroke-dasharray:none;stroke-opacity:1"
           d="m 407.984,285.332 h 73.4375 v 33.3398 H 407.984 Z" /><path
           id="path84"
           style="fill:#d39c69;fill-opacity:1;fill-rule:nonzero;stroke:none"
           d="M 300.871,355.332 H 408.59 v 33.3398 H 300.871 Z" /><path
           id="path86"
           style="fill:none;stroke:#231f20;stroke-width:10;stroke-linecap:butt;stroke-linejoin:miter;stroke-miterlimit:4;stroke-dasharray:none;stroke-opacity:1"
           d="M 300.871,355.332 H 408.59 v 33.3398 H 300.871 Z" /><path
           id="path88"
           style="fill:#d39c69;fill-opacity:1;fill-rule:nonzero;stroke:none"
           d="m 481.422,355.332 h 107.734 v 33.3398 H 481.422 Z" /><path
           id="path90"
           style="fill:none;stroke:#231f20;stroke-width:10;stroke-linecap:butt;stroke-linejoin:miter;stroke-miterlimit:4;stroke-dasharray:none;stroke-opacity:1"
           d="m 481.422,355.332 h 107.734 v 33.3398 H 481.422 Z" /><path
           id="path92"
           style="fill:#d39c69;fill-opacity:1;fill-rule:nonzero;stroke:none"
           d="m 228.957,355.332 h 73.4453 v 33.3398 H 228.957 Z" /><path
           id="path94"
           style="fill:none;stroke:#231f20;stroke-width:10;stroke-linecap:butt;stroke-linejoin:miter;stroke-miterlimit:4;stroke-dasharray:none;stroke-opacity:1"
           d="m 228.957,355.332 h 73.4453 v 33.3398 H 228.957 Z" /><path
           id="path96"
           style="fill:#d39c69;fill-opacity:1;fill-rule:nonzero;stroke:none"
           d="m 407.984,355.332 h 73.4375 v 33.3398 H 407.984 Z" /><path
           id="path98"
           style="fill:none;stroke:#231f20;stroke-width:10;stroke-linecap:butt;stroke-linejoin:miter;stroke-miterlimit:4;stroke-dasharray:none;stroke-opacity:1"
           d="m 407.984,355.332 h 73.4375 v 33.3398 H 407.984 Z" /><path
           id="path100"
           style="fill:#d39c69;fill-opacity:1;fill-rule:nonzero;stroke:none"
           d="m 81.457,423.656 h 40.3867 v 33.3398 H 81.457 Z" /><path
           id="path102"
           style="fill:none;stroke:#231f20;stroke-width:10;stroke-linecap:butt;stroke-linejoin:miter;stroke-miterlimit:4;stroke-dasharray:none;stroke-opacity:1"
           d="m 81.457,423.656 h 40.3867 v 33.3398 H 81.457 Z" /><path
           id="path104"
           style="fill:#d39c69;fill-opacity:1;fill-rule:nonzero;stroke:none"
           d="M 300.871,423.656 H 408.59 v 33.3398 H 300.871 Z" /><path
           id="path106"
           style="fill:none;stroke:#231f20;stroke-width:10;stroke-linecap:butt;stroke-linejoin:miter;stroke-miterlimit:4;stroke-dasharray:none;stroke-opacity:1"
           d="M 300.871,423.656 H 408.59 v 33.3398 H 300.871 Z" /><path
           id="path108"
           style="fill:#d39c69;fill-opacity:1;fill-rule:nonzero;stroke:none"
           d="m 228.957,423.656 h 73.4453 v 33.3398 H 228.957 Z" /><path
           id="path110"
           style="fill:none;stroke:#231f20;stroke-width:10;stroke-linecap:butt;stroke-linejoin:miter;stroke-miterlimit:4;stroke-dasharray:none;stroke-opacity:1"
           d="m 228.957,423.656 h 73.4453 v 33.3398 H 228.957 Z" /><path
           id="path112"
           style="fill:#d39c69;fill-opacity:1;fill-rule:nonzero;stroke:none"
           d="m 407.984,423.656 h 73.4375 v 33.3398 H 407.984 Z" /><path
           id="path114"
           style="fill:none;stroke:#231f20;stroke-width:10;stroke-linecap:butt;stroke-linejoin:miter;stroke-miterlimit:4;stroke-dasharray:none;stroke-opacity:1"
           d="m 407.984,423.656 h 73.4375 v 33.3398 H 407.984 Z" /><path
           id="path116"
           style="fill:#d39c69;fill-opacity:1;fill-rule:nonzero;stroke:none"
           d="m 660.445,423.656 h 41.3281 v 33.3398 H 660.445 Z" /><path
           id="path118"
           style="fill:none;stroke:#231f20;stroke-width:10;stroke-linecap:butt;stroke-linejoin:miter;stroke-miterlimit:4;stroke-dasharray:none;stroke-opacity:1"
           d="m 660.445,423.656 h 41.3281 v 33.3398 H 660.445 Z" /><path
           id="path120"
           style="fill:#d39c69;fill-opacity:1;fill-rule:nonzero;stroke:none"
           d="m 210.625,180.332 h 107.707 v 33.3398 H 210.625 Z" /><path
           id="path122"
           style="fill:none;stroke:#231f20;stroke-width:10;stroke-linecap:butt;stroke-linejoin:miter;stroke-miterlimit:4;stroke-dasharray:none;stroke-opacity:1"
           d="m 210.625,180.332 h 107.707 v 33.3398 H 210.625 Z" /><path
           id="path124"
           style="fill:#d39c69;fill-opacity:1;fill-rule:nonzero;stroke:none"
           d="m 391.164,180.332 h 107.719 v 33.3398 H 391.164 Z" /><path
           id="path126"
           style="fill:none;stroke:#231f20;stroke-width:10;stroke-linecap:butt;stroke-linejoin:miter;stroke-miterlimit:4;stroke-dasharray:none;stroke-opacity:1"
           d="m 391.164,180.332 h 107.719 v 33.3398 H 391.164 Z" /><path
           id="path128"
           style="fill:#d39c69;fill-opacity:1;fill-rule:nonzero;stroke:none"
           d="m 571.715,180.332 h 84.7656 v 33.3398 H 571.715 Z" /><path
           id="path130"
           style="fill:none;stroke:#231f20;stroke-width:10;stroke-linecap:butt;stroke-linejoin:miter;stroke-miterlimit:4;stroke-dasharray:none;stroke-opacity:1"
           d="m 571.715,180.332 h 84.7656 v 33.3398 H 571.715 Z" /><path
           id="path132"
           style="fill:#d39c69;fill-opacity:1;fill-rule:nonzero;stroke:none"
           d="m 134.102,180.332 h 78.0352 v 33.3398 H 134.102 Z" /><path
           id="path134"
           style="fill:none;stroke:#231f20;stroke-width:10;stroke-linecap:butt;stroke-linejoin:miter;stroke-miterlimit:4;stroke-dasharray:none;stroke-opacity:1"
           d="m 134.102,180.332 h 78.0352 v 33.3398 H 134.102 Z" /><path
           id="path136"
           style="fill:#d39c69;fill-opacity:1;fill-rule:nonzero;stroke:none"
           d="m 317.707,180.332 h 73.457 v 33.3398 h -73.457 z" /><path
           id="path138"
           style="fill:none;stroke:#231f20;stroke-width:10;stroke-linecap:butt;stroke-linejoin:miter;stroke-miterlimit:4;stroke-dasharray:none;stroke-opacity:1"
           d="m 317.707,180.332 h 73.457 v 33.3398 h -73.457 z" /><path
           id="path140"
           style="fill:#d39c69;fill-opacity:1;fill-rule:nonzero;stroke:none"
           d="m 498.277,180.332 h 73.4375 v 33.3398 H 498.277 Z" /><path
           id="path142"
           style="fill:none;stroke:#231f20;stroke-width:10;stroke-linecap:butt;stroke-linejoin:miter;stroke-miterlimit:4;stroke-dasharray:none;stroke-opacity:1"
           d="m 498.277,180.332 h 73.4375 v 33.3398 H 498.277 Z" /><path
           id="path144"
           style="fill:#d39c69;fill-opacity:1;fill-rule:nonzero;stroke:none"
           d="m 209.09,250.332 h 107.707 v 33.3398 H 209.09 Z" /><path
           id="path146"
           style="fill:none;stroke:#231f20;stroke-width:10;stroke-linecap:butt;stroke-linejoin:miter;stroke-miterlimit:4;stroke-dasharray:none;stroke-opacity:1"
           d="m 209.09,250.332 h 107.707 v 33.3398 H 209.09 Z" /><path
           id="path148"
           style="fill:#d39c69;fill-opacity:1;fill-rule:nonzero;stroke:none"
           d="M 389.621,250.332 H 497.34 v 33.3398 H 389.621 Z" /><path
           id="path150"
           style="fill:none;stroke:#231f20;stroke-width:10;stroke-linecap:butt;stroke-linejoin:miter;stroke-miterlimit:4;stroke-dasharray:none;stroke-opacity:1"
           d="M 389.621,250.332 H 497.34 v 33.3398 H 389.621 Z" /><path
           id="path152"
           style="fill:#d39c69;fill-opacity:1;fill-rule:nonzero;stroke:none"
           d="m 137.156,250.332 h 73.4492 v 33.3398 H 137.156 Z" /><path
           id="path154"
           style="fill:none;stroke:#231f20;stroke-width:10;stroke-linecap:butt;stroke-linejoin:miter;stroke-miterlimit:4;stroke-dasharray:none;stroke-opacity:1"
           d="m 137.156,250.332 h 73.4492 v 33.3398 H 137.156 Z" /><path
           id="path156"
           style="fill:#d39c69;fill-opacity:1;fill-rule:nonzero;stroke:none"
           d="m 316.164,250.332 h 73.457 v 33.3398 h -73.457 z" /><path
           id="path158"
           style="fill:none;stroke:#231f20;stroke-width:10;stroke-linecap:butt;stroke-linejoin:miter;stroke-miterlimit:4;stroke-dasharray:none;stroke-opacity:1"
           d="m 316.164,250.332 h 73.457 v 33.3398 h -73.457 z" /><path
           id="path160"
           style="fill:#d39c69;fill-opacity:1;fill-rule:nonzero;stroke:none"
           d="m 496.734,250.332 h 73.457 v 33.3398 h -73.457 z" /><path
           id="path162"
           style="fill:none;stroke:#231f20;stroke-width:10;stroke-linecap:butt;stroke-linejoin:miter;stroke-miterlimit:4;stroke-dasharray:none;stroke-opacity:1"
           d="m 496.734,250.332 h 73.457 v 33.3398 h -73.457 z" /><path
           id="path164"
           style="fill:#d39c69;fill-opacity:1;fill-rule:nonzero;stroke:none"
           d="m 209.09,320.332 h 107.707 v 33.3398 H 209.09 Z" /><path
           id="path166"
           style="fill:none;stroke:#231f20;stroke-width:10;stroke-linecap:butt;stroke-linejoin:miter;stroke-miterlimit:4;stroke-dasharray:none;stroke-opacity:1"
           d="m 209.09,320.332 h 107.707 v 33.3398 H 209.09 Z" /><path
           id="path168"
           style="fill:#d39c69;fill-opacity:1;fill-rule:nonzero;stroke:none"
           d="M 389.621,320.332 H 497.34 v 33.3398 H 389.621 Z" /><path
           id="path170"
           style="fill:none;stroke:#231f20;stroke-width:10;stroke-linecap:butt;stroke-linejoin:miter;stroke-miterlimit:4;stroke-dasharray:none;stroke-opacity:1"
           d="M 389.621,320.332 H 497.34 v 33.3398 H 389.621 Z" /><path
           id="path172"
           style="fill:#d39c69;fill-opacity:1;fill-rule:nonzero;stroke:none"
           d="m 316.164,320.332 h 73.457 v 33.3398 h -73.457 z" /><path
           id="path174"
           style="fill:none;stroke:#231f20;stroke-width:10;stroke-linecap:butt;stroke-linejoin:miter;stroke-miterlimit:4;stroke-dasharray:none;stroke-opacity:1"
           d="m 316.164,320.332 h 73.457 v 33.3398 h -73.457 z" /><path
           id="path176"
           style="fill:#d39c69;fill-opacity:1;fill-rule:nonzero;stroke:none"
           d="m 496.734,320.332 h 73.457 v 33.3398 h -73.457 z" /><path
           id="path178"
           style="fill:none;stroke:#231f20;stroke-width:10;stroke-linecap:butt;stroke-linejoin:miter;stroke-miterlimit:4;stroke-dasharray:none;stroke-opacity:1"
           d="m 496.734,320.332 h 73.457 v 33.3398 h -73.457 z" /><path
           id="path180"
           style="fill:#d39c69;fill-opacity:1;fill-rule:nonzero;stroke:none"
           d="m 209.09,388.652 h 107.707 v 33.3438 H 209.09 Z" /><path
           id="path182"
           style="fill:none;stroke:#231f20;stroke-width:10;stroke-linecap:butt;stroke-linejoin:miter;stroke-miterlimit:4;stroke-dasharray:none;stroke-opacity:1"
           d="m 209.09,388.652 h 107.707 v 33.3438 H 209.09 Z" /><path
           id="path184"
           style="fill:#d39c69;fill-opacity:1;fill-rule:nonzero;stroke:none"
           d="M 389.621,388.652 H 497.34 v 33.3438 H 389.621 Z" /><path
           id="path186"
           style="fill:none;stroke:#231f20;stroke-width:10;stroke-linecap:butt;stroke-linejoin:miter;stroke-miterlimit:4;stroke-dasharray:none;stroke-opacity:1"
           d="M 389.621,388.652 H 497.34 v 33.3438 H 389.621 Z" /><path
           id="path188"
           style="fill:#d39c69;fill-opacity:1;fill-rule:nonzero;stroke:none"
           d="m 677.301,388.652 h 18.9648 v 33.3438 H 677.301 Z" /><path
           id="path190"
           style="fill:none;stroke:#231f20;stroke-width:10;stroke-linecap:butt;stroke-linejoin:miter;stroke-miterlimit:4;stroke-dasharray:none;stroke-opacity:1"
           d="m 677.301,388.652 h 18.9648 v 33.3438 H 677.301 Z" /><path
           id="path192"
           style="fill:#d39c69;fill-opacity:1;fill-rule:nonzero;stroke:none"
           d="m 316.164,388.652 h 73.457 v 33.3438 h -73.457 z" /><path
           id="path194"
           style="fill:none;stroke:#231f20;stroke-width:10;stroke-linecap:butt;stroke-linejoin:miter;stroke-miterlimit:4;stroke-dasharray:none;stroke-opacity:1"
           d="m 316.164,388.652 h 73.457 v 33.3438 h -73.457 z" /><path
           id="path196"
           style="fill:#d39c69;fill-opacity:1;fill-rule:nonzero;stroke:none"
           d="m 496.734,388.652 h 73.457 v 33.3438 h -73.457 z" /><path
           id="path198"
           style="fill:none;stroke:#231f20;stroke-width:10;stroke-linecap:butt;stroke-linejoin:miter;stroke-miterlimit:4;stroke-dasharray:none;stroke-opacity:1"
           d="m 496.734,388.652 h 73.457 v 33.3438 h -73.457 z" /><path
           id="path200"
           style="fill:#875524;fill-opacity:1;fill-rule:nonzero;stroke:none"
           d="m 711.109,458.656 v 51.68 H 580.113 l 29.727,-51.68 h 101.269" /><path
           id="path202"
           style="fill:none;stroke:#231f20;stroke-width:10;stroke-linecap:butt;stroke-linejoin:miter;stroke-miterlimit:4;stroke-dasharray:none;stroke-opacity:1"
           d="m 711.109,458.656 v 51.68 H 580.113 l 29.727,-51.68 z" /><path
           id="path204"
           style="fill:#875524;fill-opacity:1;fill-rule:nonzero;stroke:none"
           d="m 67.707,510.336 v -51.68 H 173.34 l 29.754,51.68 H 67.707" /><path
           id="path206"
           style="fill:none;stroke:#231f20;stroke-width:10;stroke-linecap:butt;stroke-linejoin:miter;stroke-miterlimit:4;stroke-dasharray:none;stroke-opacity:1"
           d="m 67.707,510.336 v -51.68 H 173.34 l 29.754,51.68 z" /><path
           id="path208"
           style="fill:#875524;fill-opacity:1;fill-rule:nonzero;stroke:none"
           d="m 220.281,458.656 h 342.625 l -21.875,38.008 20.02,13.672 H 232.352 l 12.699,-8.672 -24.77,-43.008" /><path
           id="path210"
           style="fill:none;stroke:#231f20;stroke-width:10;stroke-linecap:butt;stroke-linejoin:miter;stroke-miterlimit:4;stroke-dasharray:none;stroke-opacity:1"
           d="m 220.281,458.656 h 342.625 l -21.875,38.008 20.02,13.672 H 232.352 l 12.699,-8.672 z" /><path
           id="path212"
           style="fill:#d39c69;fill-opacity:1;fill-rule:nonzero;stroke:none"
           d="m 200.137,423.656 h 28.82 v 33.34 h -9.633 l -19.187,-33.34" /><path
           id="path214"
           style="fill:none;stroke:#231f20;stroke-width:10;stroke-linecap:butt;stroke-linejoin:miter;stroke-miterlimit:4;stroke-dasharray:none;stroke-opacity:1"
           d="m 200.137,423.656 h 28.82 v 33.34 h -9.633 z" /><path
           id="path216"
           style="fill:#d39c69;fill-opacity:1;fill-rule:nonzero;stroke:none"
           d="m 121.25,456.996 v -33.34 h 31.926 l 19.199,33.34 H 121.25" /><path
           id="path218"
           style="fill:none;stroke:#231f20;stroke-width:10;stroke-linecap:butt;stroke-linejoin:miter;stroke-miterlimit:4;stroke-dasharray:none;stroke-opacity:1"
           d="m 121.25,456.996 v -33.34 h 31.926 l 19.199,33.34 z" /><path
           id="path220"
           style="fill:#d39c69;fill-opacity:1;fill-rule:nonzero;stroke:none"
           d="m 210.605,388.652 v 33.344 h -11.417 l -19.2,-33.344 h 30.617" /><path
           id="path222"
           style="fill:none;stroke:#231f20;stroke-width:10;stroke-linecap:butt;stroke-linejoin:miter;stroke-miterlimit:4;stroke-dasharray:none;stroke-opacity:1"
           d="m 210.605,388.652 v 33.344 h -11.417 l -19.2,-33.344 z" /><path
           id="path224"
           style="fill:#d39c69;fill-opacity:1;fill-rule:nonzero;stroke:none"
           d="m 137.156,421.996 v -26.191 l 15.078,26.191 h -15.078" /><path
           id="path226"
           style="fill:none;stroke:#231f20;stroke-width:10;stroke-linecap:butt;stroke-linejoin:miter;stroke-miterlimit:4;stroke-dasharray:none;stroke-opacity:1"
           d="m 137.156,421.996 v -26.191 l 15.078,26.191 z" /><path
           id="path228"
           style="fill:#d39c69;fill-opacity:1;fill-rule:nonzero;stroke:none"
           d="m 179.988,388.652 -19.195,-33.32 h 68.164 v 33.34 h -48.969 v -0.02" /><path
           id="path230"
           style="fill:none;stroke:#231f20;stroke-width:10;stroke-linecap:butt;stroke-linejoin:miter;stroke-miterlimit:4;stroke-dasharray:none;stroke-opacity:1"
           d="m 179.988,388.652 -19.195,-33.32 h 68.164 v 33.34 h -48.969 z" /><path
           id="path232"
           style="fill:#d39c69;fill-opacity:1;fill-rule:nonzero;stroke:none"
           d="m 137.156,395.805 v 26.191 H 87.5898 v -33.344 h 45.4652 v 0.02 l 4.101,7.133" /><path
           id="path234"
           style="fill:none;stroke:#231f20;stroke-width:10;stroke-linecap:butt;stroke-linejoin:miter;stroke-miterlimit:4;stroke-dasharray:none;stroke-opacity:1"
           d="m 137.156,395.805 v 26.191 H 87.5898 v -33.344 h 45.4652 v 0.02 z" /><path
           id="path236"
           style="fill:#d39c69;fill-opacity:1;fill-rule:nonzero;stroke:none"
           d="m 124.902,374.531 8.153,14.141 H 95.2227 v -33.34 h 18.6323 l 7.395,12.832 3.652,6.367" /><path
           id="path238"
           style="fill:none;stroke:#231f20;stroke-width:10;stroke-linecap:butt;stroke-linejoin:miter;stroke-miterlimit:4;stroke-dasharray:none;stroke-opacity:1"
           d="m 124.902,374.531 8.153,14.141 H 95.2227 v -33.34 h 18.6323 l 7.395,12.832 z" /><path
           id="path240"
           style="fill:#d39c69;fill-opacity:1;fill-rule:nonzero;stroke:none"
           d="m 210.605,320.332 v 33.34 h -50.753 l -19.207,-33.34 h 69.96" /><path
           id="path242"
           style="fill:none;stroke:#231f20;stroke-width:10;stroke-linecap:butt;stroke-linejoin:miter;stroke-miterlimit:4;stroke-dasharray:none;stroke-opacity:1"
           d="m 210.605,320.332 v 33.34 h -50.753 l -19.207,-33.34 z" /><path
           id="path244"
           style="fill:#d39c69;fill-opacity:1;fill-rule:nonzero;stroke:none"
           d="m 98.293,353.672 v -25.391 l 14.605,25.391 H 98.293" /><path
           id="path246"
           style="fill:none;stroke:#231f20;stroke-width:10;stroke-linecap:butt;stroke-linejoin:miter;stroke-miterlimit:4;stroke-dasharray:none;stroke-opacity:1"
           d="m 98.293,353.672 v -25.391 l 14.605,25.391 z" /><path
           id="path248"
           style="fill:#d39c69;fill-opacity:1;fill-rule:nonzero;stroke:none"
           d="m 121.25,286.602 v -1.27 h 107.707 v 33.34 h -89.25 l -18.457,-32.07" /><path
           id="path250"
           style="fill:none;stroke:#231f20;stroke-width:10;stroke-linecap:butt;stroke-linejoin:miter;stroke-miterlimit:4;stroke-dasharray:none;stroke-opacity:1"
           d="m 121.25,286.602 v -1.27 h 107.707 v 33.34 h -89.25 z" /><path
           id="path252"
           style="fill:#d39c69;fill-opacity:1;fill-rule:nonzero;stroke:none"
           d="m 107.469,250.332 h 29.687 v 33.34 h -17.597 l -12.09,-20.996 v -12.344" /><path
           id="path254"
           style="fill:none;stroke:#231f20;stroke-width:10;stroke-linecap:butt;stroke-linejoin:miter;stroke-miterlimit:4;stroke-dasharray:none;stroke-opacity:1"
           d="m 107.469,250.332 h 29.687 v 33.34 h -17.597 l -12.09,-20.996 z" /><path
           id="path256"
           style="fill:#875524;fill-opacity:1;fill-rule:nonzero;stroke:none"
           d="m 232.352,510.336 -21.004,14.336 -8.254,-14.336 -29.754,-51.68 -0.965,-1.66 -19.199,-33.34 -0.942,-1.66 -15.078,-26.191 -4.101,-7.133 v -0.02 l -8.153,-14.121 -3.652,-6.367 -7.395,-12.832 -0.957,-1.66 -14.605,-25.391 -41.3789,-71.894 33.6797,-23.028 16.8752,29.317 12.09,20.996 1.691,2.93 18.457,32.07 0.938,1.66 19.207,33.34 0.941,1.66 19.195,33.32 v 0.02 l 19.2,33.324 0.949,1.66 19.187,33.34 0.957,1.66 24.77,43.008 -12.699,8.672" /><path
           id="path258"
           style="fill:none;stroke:#231f20;stroke-width:10;stroke-linecap:butt;stroke-linejoin:miter;stroke-miterlimit:4;stroke-dasharray:none;stroke-opacity:1"
           d="m 232.352,510.336 -21.004,14.336 -8.254,-14.336 -29.754,-51.68 -0.965,-1.66 -19.199,-33.34 -0.942,-1.66 -15.078,-26.191 -4.101,-7.133 v -0.02 l -8.153,-14.121 -3.652,-6.367 -7.395,-12.832 -0.957,-1.66 -14.605,-25.391 -41.3789,-71.894 33.6797,-23.028 16.8752,29.317 12.09,20.996 1.691,2.93 18.457,32.07 0.938,1.66 19.207,33.34 0.941,1.66 19.195,33.32 v 0.02 l 19.2,33.324 0.949,1.66 19.187,33.34 0.957,1.66 24.77,43.008 z" /><path
           id="path260"
           style="fill:#d39c69;fill-opacity:1;fill-rule:nonzero;stroke:none"
           d="m 661.988,423.656 v 33.34 h -51.191 l 19.219,-33.34 h 31.972" /><path
           id="path262"
           style="fill:none;stroke:#231f20;stroke-width:10;stroke-linecap:butt;stroke-linejoin:miter;stroke-miterlimit:4;stroke-dasharray:none;stroke-opacity:1"
           d="m 661.988,423.656 v 33.34 h -51.191 l 19.219,-33.34 z" /><path
           id="path264"
           style="fill:#d39c69;fill-opacity:1;fill-rule:nonzero;stroke:none"
           d="m 481.422,456.996 v -33.34 h 101.621 l -19.18,33.34 h -82.441" /><path
           id="path266"
           style="fill:none;stroke:#231f20;stroke-width:10;stroke-linecap:butt;stroke-linejoin:miter;stroke-miterlimit:4;stroke-dasharray:none;stroke-opacity:1"
           d="m 481.422,456.996 v -33.34 h 101.621 l -19.18,33.34 z" /><path
           id="path268"
           style="fill:#d39c69;fill-opacity:1;fill-rule:nonzero;stroke:none"
           d="m 676.363,388.652 v 33.344 h -45.41 l 19.18,-33.344 h 26.23" /><path
           id="path270"
           style="fill:none;stroke:#231f20;stroke-width:10;stroke-linecap:butt;stroke-linejoin:miter;stroke-miterlimit:4;stroke-dasharray:none;stroke-opacity:1"
           d="m 676.363,388.652 v 33.344 h -45.41 l 19.18,-33.344 z" /><path
           id="path272"
           style="fill:#d39c69;fill-opacity:1;fill-rule:nonzero;stroke:none"
           d="m 570.191,421.996 v -33.344 h 33.008 L 584,421.996 h -13.809" /><path
           id="path274"
           style="fill:none;stroke:#231f20;stroke-width:10;stroke-linecap:butt;stroke-linejoin:miter;stroke-miterlimit:4;stroke-dasharray:none;stroke-opacity:1"
           d="m 570.191,421.996 v -33.344 h 33.008 L 584,421.996 Z" /><path
           id="path276"
           style="fill:#d39c69;fill-opacity:1;fill-rule:nonzero;stroke:none"
           d="m 603.199,388.672 h -14.668 v -33.34 h 33.848 l -19.18,33.32 v 0.02" /><path
           id="path278"
           style="fill:none;stroke:#231f20;stroke-width:10;stroke-linecap:butt;stroke-linejoin:miter;stroke-miterlimit:4;stroke-dasharray:none;stroke-opacity:1"
           d="m 603.199,388.672 h -14.668 v -33.34 h 33.848 l -19.18,33.32 z" /><path
           id="path280"
           style="fill:#d39c69;fill-opacity:1;fill-rule:nonzero;stroke:none"
           d="m 661.988,388.672 h -11.855 v -0.02 l 11.855,-20.547 7.344,-12.773 h 15.606 v 33.34 h -22.95" /><path
           id="path282"
           style="fill:none;stroke:#231f20;stroke-width:10;stroke-linecap:butt;stroke-linejoin:miter;stroke-miterlimit:4;stroke-dasharray:none;stroke-opacity:1"
           d="m 661.988,388.672 h -11.855 v -0.02 l 11.855,-20.547 7.344,-12.773 h 15.606 v 33.34 z" /><path
           id="path284"
           style="fill:#d39c69;fill-opacity:1;fill-rule:nonzero;stroke:none"
           d="m 570.191,353.672 v -33.34 h 72.344 l -19.199,33.34 h -53.145" /><path
           id="path286"
           style="fill:none;stroke:#231f20;stroke-width:10;stroke-linecap:butt;stroke-linejoin:miter;stroke-miterlimit:4;stroke-dasharray:none;stroke-opacity:1"
           d="m 570.191,353.672 v -33.34 h 72.344 l -19.199,33.34 z" /><path
           id="path288"
           style="fill:#d39c69;fill-opacity:1;fill-rule:nonzero;stroke:none"
           d="m 680.953,353.672 h -10.664 l 10.664,-18.555 v 18.555" /><path
           id="path290"
           style="fill:none;stroke:#231f20;stroke-width:10;stroke-linecap:butt;stroke-linejoin:miter;stroke-miterlimit:4;stroke-dasharray:none;stroke-opacity:1"
           d="m 680.953,353.672 h -10.664 l 10.664,-18.555 z" /><path
           id="path292"
           style="fill:#d39c69;fill-opacity:1;fill-rule:nonzero;stroke:none"
           d="m 588.531,318.672 v -33.34 h 73.457 v 1.211 l -18.496,32.129 h -54.961" /><path
           id="path294"
           style="fill:none;stroke:#231f20;stroke-width:10;stroke-linecap:butt;stroke-linejoin:miter;stroke-miterlimit:4;stroke-dasharray:none;stroke-opacity:1"
           d="m 588.531,318.672 v -33.34 h 73.457 v 1.211 l -18.496,32.129 z" /><path
           id="path296"
           style="fill:#d39c69;fill-opacity:1;fill-rule:nonzero;stroke:none"
           d="m 570.191,283.672 v -33.34 h 106.172 v 11.211 l -12.715,22.129 h -93.457" /><path
           id="path298"
           style="fill:none;stroke:#231f20;stroke-width:10;stroke-linecap:butt;stroke-linejoin:miter;stroke-miterlimit:4;stroke-dasharray:none;stroke-opacity:1"
           d="m 570.191,283.672 v -33.34 h 106.172 v 11.211 l -12.715,22.129 z" /><path
           id="path300"
           style="fill:#875524;fill-opacity:1;fill-rule:nonzero;stroke:none"
           d="M 574.723,519.672 541.031,496.664 695.465,228.359 729.156,251.387 574.723,519.672" /><path
           id="path302"
           style="fill:none;stroke:#231f20;stroke-width:10;stroke-linecap:butt;stroke-linejoin:miter;stroke-miterlimit:4;stroke-dasharray:none;stroke-opacity:1"
           d="m 574.723,519.672 -33.692,-23.008 154.434,-268.305 33.691,23.028 z" /><path
           id="path304"
           style="fill:#231f20;fill-opacity:1;fill-rule:nonzero;stroke:none"
           d="m 222.605,487.621 c 0,-5.527 -4.089,-10 -9.179,-10 -5.078,0 -9.16,4.473 -9.16,10 0,5.527 4.082,10 9.16,10 5.09,0 9.179,-4.473 9.179,-10" /><path
           id="path306"
           style="fill:#231f20;fill-opacity:1;fill-rule:nonzero;stroke:none"
           d="m 578.355,487.621 c 0,-5.527 -4.101,-10 -9.179,-10 -5.078,0 -9.18,4.473 -9.18,10 0,5.527 4.102,10 9.18,10 5.078,0 9.179,-4.473 9.179,-10" />
        </g>
      </g>
    </g>
  </g>
</svg>