<svg xmlns="http://www.w3.org/2000/svg" id="tennis-center" width="24" height="24" viewBox="0 0 48 48" fill="rgb(52, 73, 94)">
  <polygon fill="#607D8B" points="35.999,21 33.999,21 34.021,19.021 35.999,19 "/>
  <path fill="#B0BEC5" d="M37.956,25.043h-5.913C31.467,25.043,31,24.576,31,24c0-2.206,1.794-4,3.999-4s4,1.794,4,4  C38.999,24.576,38.532,25.043,37.956,25.043z"/>
  <path fill="#FFA726" d="M19,16c-2.762,0-5-2.238-5-5s2.238-5,5-5c2.761,0,5,2.238,5,5S21.761,16,19,16"/>
  <path fill="#607D8B" d="M9,24.287c0,0,2.768-6.287,10-6.287s10,6.287,10,6.287v3.258H9V24.287z"/>
  <path fill="#FFA000" d="M41,42H7V26h34V42z"/>
  <rect x="6" y="24" fill="#EF6C00" width="36" height="4"/>
</svg>